<?xml version="1.0" encoding="utf-8"?>
<!-- Generator: Adobe Illustrator 22.0.1, SVG Export Plug-In . SVG Version: 6.00 Build 0)  -->
<svg version="1.1" id="图层_1" xmlns="http://www.w3.org/2000/svg" xmlns:xlink="http://www.w3.org/1999/xlink" x="0px" y="0px"
	 viewBox="0 0 48 28" style="enable-background:new 0 0 48 28;" xml:space="preserve">
<style type="text/css">
	.st0{fill:#1677ff;}
</style>
<g>
	<g>
		<path class="st0" d="M11.9,5.9c-0.7,0-1.2,0.2-1.6,0.5H6.6C6.3,6.1,5.8,5.9,5.1,5.9c-0.5,0-0.5,0-0.5,0s0,11.2,0,12.3
			c0,2,1,3.2,3.5,3.2h0.7c2.3,0,3.5-0.8,3.5-3.3s0-12.2,0-12.2S12.1,5.9,11.9,5.9z M7.1,8.8h2.7c0,0.9,0,2.3,0,3.7H7.1
			C7.1,11.1,7.1,9.7,7.1,8.8z M8.7,19.1c-0.5,0-0.1,0-0.5,0c-0.8,0-1.1-0.3-1.1-1c0-0.3,0-1.6,0-3.1h2.7c0,1.5,0,2.8,0,3.1
			C9.8,18.8,9.4,19.1,8.7,19.1z"/>
		<path class="st0" d="M19.7,5.6c-1.7,0-0.9,0-2.8,0c-2.4,0-3.4,0.9-3.4,3.2c0,4,0,10,0,10.4c0,1.3-0.5,2.4-1.9,2.8
			c0,0.1,0,1.9,0,2.2c2.6,0,4.6-1.5,4.6-4.5c0-0.3,0-0.5,0-0.8h4.4c0,0.9,0,1.6,0,1.8c0,1-0.4,1.3-1.4,1.3c-0.6,0-0.7,0-0.7,0v2
			c0,0,0,0,1.5,0c2,0,3.2-0.9,3.2-3c0-1.4,0-8.3,0-12.3C23.1,6.7,22,5.6,19.7,5.6z M17.4,8c0.8,0,1,0,1.8,0c0.9,0,1.3,0.4,1.3,1.2
			c0,0.5,0,1.1,0,1.8h-4.4c0-0.9,0-1.5,0-1.8C16.1,8.3,16.5,8,17.4,8z M16.1,16.3c0-1,0-2,0-3h4.4c0,1,0,2,0,3H16.1z"/>
	</g>
	<g>
		<rect x="25.3" y="5.7" class="st0" width="4" height="2.3"/>
		<path class="st0" d="M43.7,21.7h-2.5l0,0H32c-1.5-0.1-2.7-1-2.7-2.9c0,0,0-5.3,0-6.8c0-1.6-0.8-2.4-2.7-2.4c-0.9,0-1.4,0-1.4,0
			v2.3c0,0,0.3,0,0.7,0c0.5,0,0.7,0.2,0.7,0.7c0,0.4,0,7.2,0,7.2c0,1.2-0.5,1.6-1.4,1.9V24c1.4-0.1,2.6-0.6,3.2-1.3
			C29,23.6,30,24,31.7,24H42h1.7V21.7z"/>
		<path class="st0" d="M38.4,8.8h5.3v-2H42l0.3-1.3c0,0-1.1,0-1.9,0c-0.9,0-1.2,0.2-1.3,0.8C39,6.6,39,6.8,38.9,6.9h-4
			c0-0.1-0.1-0.2-0.1-0.5c-0.2-0.5-0.5-0.8-1.3-0.8s-1.8,0-1.8,0L32,6.9h-1.7v2h5.3v1.3h-3c-0.3-0.3-0.8-0.5-1.5-0.5
			c-0.3,0-0.6,0-0.6,0s0,6.8,0,8c0,2,0.8,3,3.2,3h6.7c2.1,0,3.2-0.9,3.2-3.1c0-2.6,0-7.9,0-7.9s-0.3,0-0.6,0c-0.6,0-1.1,0.2-1.5,0.5
			h-3.3V8.8H38.4z M33.1,14.8h7.8c0,0.4,0,0.7,0,1h-7.8C33.1,15.6,33.1,15.2,33.1,14.8z M40.9,13h-7.8c0-0.3,0-0.6,0-1h7.8
			C40.9,12.4,40.9,12.7,40.9,13z M39.8,18.7c-0.7,0-5.2,0-5.8,0s-1-0.2-1-0.9c0-0.1,0-0.1,0-0.1h7.8v0.1
			C40.9,18.5,40.5,18.7,39.8,18.7z"/>
	</g>
</g>
</svg>
