<svg xmlns="http://www.w3.org/2000/svg" xmlns:xlink="http://www.w3.org/1999/xlink" width="175" height="200"><path fill="#448AFF" d="M-1473.397-1821.995v123.969c0 4.034-3.272 7.269-7.271 7.269h-138.145a7.245 7.245 0 0 1-7.271-7.269v-159.959c0-4 3.235-7.271 7.271-7.271h102.191l43.225 43.261z"/><g opacity=".2"><defs><path id="a" d="M-1516.622-1865.258h43.225V-1822h-43.225z"/></defs><clipPath id="b"><use xlink:href="#a" overflow="visible"/></clipPath><g clip-path="url(#b)"><defs><path id="c" d="M-1516.622-1865.259h43.225V-1822h-43.225z"/></defs><clipPath id="d"><use xlink:href="#c" overflow="visible"/></clipPath><path clip-path="url(#d)" fill="#231815" d="M-1516.622-1829.266v-35.991l43.225 43.262h-35.954c-3.999.001-7.271-3.271-7.271-7.271"/></g></g><path fill="#FFF" d="M-1592.093-1807.128h11.542l11.723 49.623h.181l13.089-49.623h11.634l12.725 49.623h.181l12.088-49.623h11.541l-17.903 64.894h-11.545l-12.994-49.625h-.185l-13.267 49.625h-11.726z"/><path fill="#62BB37" d="M-1238.73-1821.993v123.969a7.27 7.27 0 0 1-7.271 7.27h-138.145a7.245 7.245 0 0 1-7.271-7.27v-159.959c0-4 3.235-7.271 7.271-7.271h102.191l43.225 43.261z"/><g opacity=".2"><defs><path id="e" d="M-1281.956-1865.258h43.225V-1822h-43.225z"/></defs><clipPath id="f"><use xlink:href="#e" overflow="visible"/></clipPath><g clip-path="url(#f)"><defs><path id="g" d="M-1281.956-1865.259h43.225V-1822h-43.225z"/></defs><clipPath id="h"><use xlink:href="#g" overflow="visible"/></clipPath><path clip-path="url(#h)" fill="#231815" d="M-1281.956-1829.264v-35.991l43.225 43.262h-35.954c-3.999 0-7.271-3.272-7.271-7.271"/></g></g><path fill="#FFF" d="M-1343.25-1807.125h13.544l14.723 22.903 15.358-22.903h12.724l-21.448 31.264 22.994 33.628h-13.817l-16.174-24.813-16.452 24.813h-12.997l22.994-33.628z"/><path fill="#F57C00" d="M-1016.741-1821.996v123.969c0 4.034-3.272 7.269-7.271 7.269h-138.145a7.245 7.245 0 0 1-7.271-7.269v-159.959c0-4 3.235-7.271 7.271-7.271h102.191l43.225 43.261z"/><g opacity=".2"><defs><path id="i" d="M-1059.967-1865.257h43.225v43.259h-43.225z"/></defs><clipPath id="j"><use xlink:href="#i" overflow="visible"/></clipPath><g clip-path="url(#j)"><defs><path id="k" d="M-1059.967-1865.257h43.225v43.259h-43.225z"/></defs><clipPath id="l"><use xlink:href="#k" overflow="visible"/></clipPath><path clip-path="url(#l)" fill="#231815" d="M-1059.966-1829.267v-35.991l43.225 43.262h-35.954c-4 0-7.271-3.272-7.271-7.271"/></g></g><path fill="#FFF" d="M-1118.44-1807.128h28.629c4.602 0 8.36.668 11.267 2 2.909 1.335 5.148 3 6.725 4.998 1.576 2 2.651 4.183 3.227 6.544.576 2.364.862 4.544.862 6.544 0 2.001-.286 4.167-.862 6.5-.576 2.331-1.651 4.499-3.227 6.497-1.578 1.998-3.816 3.652-6.725 4.952-2.907 1.307-6.666 1.956-11.267 1.956h-17.269v24.901h-11.36v-64.892zm11.36 30.72h16.63c1.274 0 2.577-.185 3.909-.546a11.224 11.224 0 0 0 3.68-1.773c1.122-.82 2.031-1.909 2.727-3.272.696-1.365 1.044-3.075 1.044-5.134 0-2.12-.302-3.877-.909-5.272-.604-1.392-1.424-2.5-2.453-3.317-1.03-.82-2.211-1.377-3.542-1.682a19.326 19.326 0 0 0-4.272-.454h-16.813v21.45z"/><path fill="#448AFF" d="M-571.263-1821.996v123.968a7.27 7.27 0 0 1-7.271 7.27H-716.68a7.245 7.245 0 0 1-7.271-7.27v-159.959c0-4 3.235-7.271 7.271-7.271h102.191l43.226 43.262z"/><g opacity=".2"><defs><path id="m" d="M-614.489-1865.257h43.225v43.262h-43.225z"/></defs><clipPath id="n"><use xlink:href="#m" overflow="visible"/></clipPath><g clip-path="url(#n)"><defs><path id="o" d="M-614.489-1865.257h43.225v43.26h-43.225z"/></defs><clipPath id="p"><use xlink:href="#o" overflow="visible"/></clipPath><path clip-path="url(#p)" fill="#231815" d="M-614.489-1829.267v-35.991l43.225 43.262h-35.954c-3.999 0-7.271-3.272-7.271-7.271"/></g></g><path fill="#FFF" d="M-677.408-1808.781h12.477l17.179 54.226h.192l17.564-54.226h12.189l-23.418 68.526h-13.339z"/><path fill="#718BC8" d="M-346.275-1821.996v123.968a7.27 7.27 0 0 1-7.271 7.27h-138.145a7.245 7.245 0 0 1-7.271-7.27v-159.959c0-4 3.235-7.271 7.271-7.271H-389.5l43.225 43.262z"/><g opacity=".2"><defs><path id="q" d="M-389.5-1865.257h43.225v43.262H-389.5z"/></defs><clipPath id="r"><use xlink:href="#q" overflow="visible"/></clipPath><g clip-path="url(#r)"><defs><path id="s" d="M-389.5-1865.258h43.224v43.26H-389.5z"/></defs><clipPath id="t"><use xlink:href="#s" overflow="visible"/></clipPath><path clip-path="url(#t)" fill="#231815" d="M-389.5-1829.267v-35.991l43.225 43.262h-35.954c-3.999 0-7.271-3.272-7.271-7.271"/></g></g><path fill="#FFF" d="M-378.994-1790.223c0 24.093-19.532 43.625-43.625 43.625s-43.625-19.532-43.625-43.625 19.532-43.625 43.625-43.625 43.625 19.532 43.625 43.625"/><path fill="#718BC8" d="M-409.895-1790.223c0 7.027-5.697 12.725-12.725 12.725s-12.723-5.698-12.723-12.725c0-7.027 5.696-12.724 12.723-12.724s12.725 5.697 12.725 12.724"/><path fill="#FFF" d="M-451.942-1719.142c0 .803.113 1.577.34 2.328a5.804 5.804 0 0 0 1.024 1.967c.455.56 1.03 1.01 1.726 1.344s1.525.501 2.488.501c1.338 0 2.415-.286 3.232-.862.815-.576 1.424-1.438 1.827-2.588h4.333c-.241 1.122-.656 2.125-1.244 3.008a8.688 8.688 0 0 1-2.127 2.228 9.236 9.236 0 0 1-2.788 1.365 11.264 11.264 0 0 1-3.232.461c-1.632 0-3.078-.267-4.335-.803-1.258-.534-2.321-1.284-3.19-2.247-.869-.962-1.525-2.113-1.967-3.452-.441-1.338-.663-2.808-.663-4.413 0-1.473.236-2.871.701-4.197a10.779 10.779 0 0 1 2.008-3.492 9.631 9.631 0 0 1 3.15-2.387c1.23-.588 2.623-.883 4.174-.883 1.632 0 3.097.342 4.394 1.022 1.298.684 2.377 1.586 3.232 2.71.857 1.124 1.48 2.415 1.865 3.874.389 1.459.489 2.963.302 4.516h-15.25zm10.676-3.012a7.414 7.414 0 0 0-.462-2.087 5.532 5.532 0 0 0-1.042-1.745 5.21 5.21 0 0 0-1.605-1.206c-.63-.307-1.331-.459-2.108-.459-.803 0-1.532.14-2.187.421a5.012 5.012 0 0 0-1.686 1.164 5.772 5.772 0 0 0-1.125 1.745 6.08 6.08 0 0 0-.461 2.167h10.676zM-425.612-1720.869l-7.185-9.833h5.539l4.335 6.38 4.535-6.38h5.296l-7.062 9.592 7.945 11.158h-5.497l-5.258-7.666-5.097 7.666h-5.378zM-404.063-1719.142c0 .803.113 1.577.34 2.328a5.804 5.804 0 0 0 1.024 1.967c.455.56 1.03 1.01 1.726 1.344.696.333 1.525.501 2.488.501 1.338 0 2.415-.286 3.232-.862.815-.576 1.424-1.438 1.827-2.588h4.333c-.241 1.122-.656 2.125-1.244 3.008a8.688 8.688 0 0 1-2.127 2.228 9.23 9.23 0 0 1-2.789 1.365 11.264 11.264 0 0 1-3.232.461c-1.632 0-3.078-.267-4.335-.803-1.258-.534-2.321-1.284-3.19-2.247-.869-.962-1.525-2.113-1.967-3.452-.441-1.338-.663-2.808-.663-4.413 0-1.473.236-2.871.701-4.197a10.779 10.779 0 0 1 2.008-3.492 9.631 9.631 0 0 1 3.15-2.387c1.23-.588 2.623-.883 4.174-.883 1.632 0 3.097.342 4.394 1.022 1.298.684 2.377 1.586 3.232 2.71.857 1.124 1.48 2.415 1.865 3.874.389 1.459.489 2.963.302 4.516h-15.249zm10.676-3.012a7.414 7.414 0 0 0-.462-2.087 5.532 5.532 0 0 0-1.042-1.745 5.21 5.21 0 0 0-1.605-1.206c-.63-.307-1.331-.459-2.108-.459-.803 0-1.532.14-2.186.421a5.012 5.012 0 0 0-1.686 1.164 5.794 5.794 0 0 0-1.126 1.745 6.08 6.08 0 0 0-.461 2.167h10.676z"/><path fill="#29D3B2" d="M-796.725-1821.723v123.199a7.225 7.225 0 0 1-7.226 7.226h-137.29a7.202 7.202 0 0 1-7.226-7.226v-158.966a7.224 7.224 0 0 1 7.226-7.226h101.559l42.957 42.993z"/><g opacity=".15"><defs><path id="u" d="M-839.683-1864.712h42.958v42.997h-42.958z"/></defs><clipPath id="v"><use xlink:href="#u" overflow="visible"/></clipPath><g clip-path="url(#v)"><defs><path id="w" d="M-839.683-1864.712h42.958v42.997h-42.958z"/></defs><clipPath id="x"><use xlink:href="#w" overflow="visible"/></clipPath><path clip-path="url(#x)" fill="#231815" d="M-839.682-1828.948v-35.767l42.957 42.993h-35.731c-3.976 0-7.226-3.253-7.226-7.226"/></g></g><path fill="#FFF" d="M-903.041-1815.616h60.891v11.378h-23.915v63.84h-13.168v-63.84h-23.808z"/><path fill="#F57C00" d="M-1473.397-1554.967v123.969c0 4.034-3.272 7.269-7.271 7.269h-138.145a7.245 7.245 0 0 1-7.271-7.269v-159.959c0-4 3.235-7.271 7.271-7.271h102.191l43.225 43.261z"/><g opacity=".2"><defs><path id="y" d="M-1516.622-1598.231h43.225v43.258h-43.225z"/></defs><clipPath id="z"><use xlink:href="#y" overflow="visible"/></clipPath><g clip-path="url(#z)"><defs><path id="A" d="M-1516.622-1598.231h43.224v43.259h-43.224z"/></defs><clipPath id="B"><use xlink:href="#A" overflow="visible"/></clipPath><path clip-path="url(#B)" fill="#231815" d="M-1516.622-1562.238v-35.991l43.225 43.262h-35.954c-4 0-7.271-3.271-7.271-7.271"/></g></g><path fill="#FFF" d="M-1512.781-1534.631l-29.43 29.43 3.272 3.656 25.189-25.188zM-1566.309-1513.834c-20.621 20.621-27.372 39.647-27.372 39.647s19.026-6.751 39.646-27.372l3.553-3.555-12.274-12.272-3.553 3.552zM-1546.292-1509.313l-12.275-12.274 33.51-33.509 12.274 12.275zM-1593.681-1470.516h80.888v5.474h-80.888z"/><path fill="#62BB37" d="M-1238.73-1554.967v123.969a7.27 7.27 0 0 1-7.271 7.27h-138.145a7.245 7.245 0 0 1-7.271-7.27v-159.959c0-4 3.235-7.271 7.271-7.271h102.191l43.225 43.261z"/><g opacity=".2"><defs><path id="C" d="M-1281.956-1598.232h43.225v43.258h-43.225z"/></defs><clipPath id="D"><use xlink:href="#C" overflow="visible"/></clipPath><g clip-path="url(#D)"><defs><path id="E" d="M-1281.956-1598.232h43.225v43.259h-43.225z"/></defs><clipPath id="F"><use xlink:href="#E" overflow="visible"/></clipPath><path clip-path="url(#F)" fill="#231815" d="M-1281.956-1562.238v-35.991l43.225 43.262h-35.954c-3.999.001-7.271-3.271-7.271-7.271"/></g></g><path fill="#FFF" d="M-1356.956-1517.639h19.992v36.553h-19.992zM-1325.071-1552.24h19.992v71.154h-19.992zM-1293.186-1531.332h19.992v50.245h-19.992zM-1356.956-1471.281h83.762v5.409h-83.762z"/><path fill="#448AFF" d="M-1005.35-1554.968V-1431a7.27 7.27 0 0 1-7.271 7.27h-138.145a7.245 7.245 0 0 1-7.271-7.27v-159.959c0-4 3.235-7.271 7.271-7.271h102.191l43.225 43.262z"/><g opacity=".2"><defs><path id="G" d="M-1048.575-1598.229h43.225v43.259h-43.225z"/></defs><clipPath id="H"><use xlink:href="#G" overflow="visible"/></clipPath><g clip-path="url(#H)"><defs><path id="I" d="M-1048.575-1598.229h43.225v43.259h-43.225z"/></defs><clipPath id="J"><use xlink:href="#I" overflow="visible"/></clipPath><path clip-path="url(#J)" fill="#231815" d="M-1048.575-1562.239v-35.991l43.225 43.262h-35.954c-4 0-7.271-3.271-7.271-7.271"/></g></g><path fill="#FFF" d="M-1121.275-1505.918v-36.411c0-3.897 3.188-7.085 7.085-7.085h64.993c3.896 0 7.085 3.188 7.085 7.085v36.411M-1121.275-1499.476h79.162v7.085h-79.162zM-1100.615-1470.375h37.839v7.085h-37.839z"/><path fill="#FFF" d="M-1085.238-1496.975h7.085v30.145h-7.085z"/><path fill="#718BC8" d="M-784.009-1554.968V-1431a7.27 7.27 0 0 1-7.271 7.27h-138.145a7.245 7.245 0 0 1-7.271-7.27v-159.959c0-4 3.235-7.271 7.271-7.271h102.191l43.225 43.262z"/><path fill="#FFF" d="M-816.728-1523.195c0 24.093-19.532 43.625-43.625 43.625s-43.625-19.532-43.625-43.625 19.532-43.625 43.625-43.625c24.094 0 43.625 19.532 43.625 43.625"/><path fill="#718BC8" d="M-847.629-1523.195c0 7.027-5.697 12.725-12.725 12.725-7.027 0-12.723-5.697-12.723-12.725 0-7.027 5.696-12.724 12.723-12.724 7.028 0 12.725 5.697 12.725 12.724"/><g opacity=".2"><defs><path id="K" d="M-827.234-1598.226h43.225v43.259h-43.225z"/></defs><clipPath id="L"><use xlink:href="#K" overflow="visible"/></clipPath><g clip-path="url(#L)"><defs><path id="M" d="M-827.234-1598.226h43.225v43.259h-43.225z"/></defs><clipPath id="N"><use xlink:href="#M" overflow="visible"/></clipPath><path clip-path="url(#N)" fill="#231815" d="M-827.234-1562.239v-35.991l43.225 43.262h-35.954c-3.999.001-7.271-3.271-7.271-7.271"/></g></g><path fill="#FFF" d="M-880.479-1442.739h-4.103v-2.658h-.075c-.583 1.14-1.431 1.956-2.544 2.448a8.587 8.587 0 0 1-3.532.742c-1.544 0-2.893-.272-4.043-.817-1.154-.545-2.11-1.284-2.869-2.221-.761-.935-1.33-2.043-1.708-3.323-.38-1.279-.571-2.652-.571-4.122 0-1.769.241-3.303.722-4.593.48-1.293 1.12-2.356 1.918-3.192a7.402 7.402 0 0 1 2.734-1.841 8.683 8.683 0 0 1 3.132-.59c.609 0 1.227.058 1.862.171a8.386 8.386 0 0 1 1.824.55 7.28 7.28 0 0 1 1.612.97c.494.393.906.853 1.235 1.385h.075v-10.025h4.329v27.116zm-15.115-9.608c0 .836.108 1.66.323 2.469.216.811.544 1.532.988 2.166a4.985 4.985 0 0 0 1.691 1.518c.682.379 1.492.569 2.429.569.963 0 1.792-.201 2.488-.607a5.137 5.137 0 0 0 1.708-1.595 7.25 7.25 0 0 0 .988-2.221 9.945 9.945 0 0 0 .323-2.525c0-2.178-.487-3.874-1.462-5.09-.974-1.214-2.297-1.822-3.968-1.822-1.014 0-1.867.209-2.563.626a5.22 5.22 0 0 0-1.708 1.633 6.764 6.764 0 0 0-.949 2.279 11.746 11.746 0 0 0-.288 2.6M-873.871-1462.371h4.102v2.733h.112c.33-.48.684-.923 1.064-1.328a5.788 5.788 0 0 1 1.272-1.026 6.549 6.549 0 0 1 1.614-.665c.609-.164 1.304-.246 2.089-.246 1.19 0 2.298.267 3.322.797 1.026.531 1.754 1.356 2.185 2.467.733-1.01 1.581-1.81 2.544-2.391.961-.583 2.165-.874 3.609-.874 2.075 0 3.689.506 4.842 1.518 1.15 1.014 1.726 2.71 1.726 5.09v13.557h-4.329v-11.47c0-.784-.026-1.499-.075-2.145-.052-.646-.197-1.202-.438-1.672a2.47 2.47 0 0 0-1.082-1.082c-.48-.253-1.139-.379-1.975-.379-1.466 0-2.53.455-3.188 1.366-.66.913-.988 2.202-.988 3.874v11.507h-4.329v-12.608c0-1.368-.246-2.399-.742-3.096-.494-.694-1.398-1.043-2.715-1.043-.557 0-1.096.113-1.614.342-.52.227-.974.557-1.366.986-.393.431-.708.963-.949 1.595-.243.635-.361 1.356-.361 2.166v11.658h-4.329v-19.631zM-820.782-1443.764c0 2.963-.829 5.172-2.487 6.628-1.658 1.457-4.045 2.183-7.158 2.183-.989 0-1.982-.101-2.982-.302a8.885 8.885 0 0 1-2.734-1.026 6.587 6.587 0 0 1-2.068-1.9c-.558-.785-.888-1.745-.989-2.886h4.329c.127.609.342 1.101.647 1.483.302.379.663.677 1.082.89.417.216.878.356 1.384.419.508.063 1.04.094 1.597.094 1.747 0 3.026-.429 3.836-1.291.81-.859 1.214-2.101 1.214-3.722v-2.998h-.075a6.578 6.578 0 0 1-2.488 2.544 6.675 6.675 0 0 1-3.399.911c-1.569 0-2.904-.272-4.005-.817a7.613 7.613 0 0 1-2.734-2.241c-.722-.949-1.248-2.045-1.577-3.284a15.553 15.553 0 0 1-.494-3.987c0-1.316.204-2.57.609-3.761a9.61 9.61 0 0 1 1.747-3.134 8.396 8.396 0 0 1 2.792-2.146c1.101-.531 2.347-.796 3.74-.796 1.241 0 2.38.26 3.418.778 1.038.52 1.834 1.335 2.392 2.45h.075v-2.696h4.329v18.607zm-9.608-2.392c.963 0 1.778-.195 2.45-.588a4.827 4.827 0 0 0 1.633-1.556c.417-.646.722-1.38.911-2.202.19-.822.284-1.653.284-2.488a9.76 9.76 0 0 0-.302-2.431 6.534 6.534 0 0 0-.932-2.089 4.491 4.491 0 0 0-1.633-1.443c-.67-.352-1.474-.53-2.411-.53-.963 0-1.773.201-2.431.605a4.86 4.86 0 0 0-1.593 1.577 6.739 6.739 0 0 0-.874 2.202c-.178.822-.267 1.64-.267 2.45 0 .811.103 1.6.305 2.373.201.773.513 1.462.93 2.071a4.95 4.95 0 0 0 1.595 1.48c.646.381 1.424.569 2.335.569"/><g><path fill="#D32F2F" d="M-571.263-1266.939v123.968c0 4.034-3.272 7.27-7.272 7.27H-716.68a7.245 7.245 0 0 1-7.271-7.27v-159.959c0-4 3.235-7.271 7.271-7.271h102.19l43.227 43.262z"/><path fill="#F6F4F4" d="M-648.928-1242.469c.662 0 .662 0 0 0 .661-2.644 1.323-3.965 1.323-5.947v-1.321c.66-3.303.66-5.947 0-6.607v-.661l-.661-.661s0 .661-.661.661c-1.322 3.965-1.322 8.589-.001 14.536m-19.819 45.589c-1.323.66-2.644 1.321-3.303 1.98-4.626 3.965-7.929 8.591-8.589 10.573 3.962-.661 7.927-4.626 11.892-12.553.659 0 .659 0 0 0 .659 0 0 0 0 0m60.783-9.912c-.66-.66-3.303-2.642-12.554-2.642h-1.321v.661c4.624 1.981 9.25 3.303 12.554 3.303h1.982v-.661c.001 0-.661 0-.661-.661m2.644 5.286c-1.323.661-3.303 1.323-5.947 1.323-5.286 0-13.215-1.323-19.821-4.626-11.231 1.321-19.82 2.644-26.428 5.286-.66 0-.66 0-1.321.661-7.927 13.875-14.536 20.481-19.821 20.481-1.321 0-1.98 0-2.642-.66l-3.303-1.982v-.661c-.661-1.321-.661-1.982-.661-3.303.661-3.303 4.626-9.25 12.553-13.875 1.321-.661 3.303-1.982 5.947-3.303 1.981-3.303 3.963-7.268 6.607-11.892 3.303-6.608 5.286-13.215 7.266-19.16-2.642-7.929-3.963-12.554-1.319-21.804.66-2.644 2.642-5.286 5.284-5.286h1.323c1.321 0 2.642.661 3.963 1.321 4.626 4.626 2.644 15.195 0 23.784v.661c2.644 7.268 6.608 13.215 10.571 17.178 1.982 1.323 3.303 2.644 5.947 3.965 3.303 0 5.947-.66 8.589-.66 7.929 0 13.215 1.321 15.195 4.624.661 1.321.661 2.642.661 3.965-.663.659-1.322 2.641-2.643 3.963m-42.946-25.767c-1.321 4.624-3.965 9.91-6.607 15.857-1.321 2.644-2.644 4.624-3.965 7.268H-657.517c8.589-3.303 16.518-5.286 21.804-5.947-1.321-.66-1.982-1.321-2.644-1.982-3.303-3.964-7.266-9.249-9.909-15.196"/><g opacity=".2"><defs><path id="O" d="M-614.492-1310.2h43.224v43.262h-43.224z"/></defs><clipPath id="P"><use xlink:href="#O" overflow="visible"/></clipPath><g clip-path="url(#P)"><defs><path id="Q" d="M-614.492-1310.2h43.224v43.26h-43.224z"/></defs><clipPath id="R"><use xlink:href="#Q" overflow="visible"/></clipPath><path clip-path="url(#R)" fill="#231815" d="M-614.489-1274.21v-35.991l43.225 43.262h-35.954c-3.999 0-7.271-3.272-7.271-7.271"/></g></g></g><g><path fill="#5465FC" d="M-1473.401-1266.938v123.969c0 4.034-3.272 7.269-7.272 7.269h-138.144a7.245 7.245 0 0 1-7.271-7.269v-159.959c0-4 3.235-7.271 7.271-7.271h102.19l43.226 43.261z"/><g opacity=".2"><defs><path id="S" d="M-1516.634-1310.202h43.241v43.258h-43.241z"/></defs><clipPath id="T"><use xlink:href="#S" overflow="visible"/></clipPath><g clip-path="url(#T)"><defs><path id="U" d="M-1516.634-1310.202h43.241v43.259h-43.241z"/></defs><clipPath id="V"><use xlink:href="#U" overflow="visible"/></clipPath><path clip-path="url(#V)" fill="#231815" d="M-1516.626-1274.209v-35.991l43.225 43.262h-35.954c-3.999 0-7.271-3.272-7.271-7.271"/></g></g><path fill="#FFF" d="M-1583.557-1250.635c3.686-.67 8.797-1.173 15.747-1.173 7.54 0 13.068 1.592 16.672 4.607 3.351 2.764 5.528 7.203 5.528 12.482 0 5.361-1.675 9.8-4.86 12.815-4.104 4.104-10.554 6.033-17.841 6.033-1.928 0-3.686-.084-5.027-.337v21.279h-10.219v-55.706zm10.219 26.302c1.256.335 2.933.419 5.027.419 7.706 0 12.396-3.769 12.396-10.386 0-6.284-4.356-9.634-11.477-9.634-2.848 0-4.858.251-5.947.503v19.098zM-1539.416-1204.397c2.347 1.424 6.786 2.933 10.472 2.933 4.523 0 6.533-1.844 6.533-4.525 0-2.764-1.675-4.188-6.701-5.947-7.957-2.764-11.308-7.12-11.224-11.896 0-7.203 5.947-12.815 15.412-12.815 4.523 0 8.46 1.173 10.807 2.429l-2.01 7.287c-1.759-1.005-5.027-2.345-8.629-2.345-3.685 0-5.696 1.759-5.696 4.272 0 2.598 1.927 3.853 7.12 5.697 7.371 2.68 10.807 6.45 10.891 12.48 0 7.373-5.779 12.733-16.586 12.733-4.942 0-9.383-1.174-12.396-2.849l2.007-7.454z"/></g><g><path fill="#F57C00" d="M-1257.379-1266.939v123.969c0 4.034-3.272 7.269-7.272 7.269h-138.144a7.245 7.245 0 0 1-7.271-7.269v-159.959c0-4 3.235-7.271 7.271-7.271h102.19l43.226 43.261z"/><g opacity=".2"><defs><path id="W" d="M-1300.612-1309.786h43.241v43.258h-43.241z"/></defs><clipPath id="X"><use xlink:href="#W" overflow="visible"/></clipPath><g clip-path="url(#X)"><defs><path id="Y" d="M-1300.612-1309.786h43.241v43.259h-43.241z"/></defs><clipPath id="Z"><use xlink:href="#Y" overflow="visible"/></clipPath><path clip-path="url(#Z)" fill="#231815" d="M-1300.604-1273.8v-35.991l43.225 43.262h-35.954c-3.999.001-7.271-3.271-7.271-7.271"/></g></g><path fill="#FFF" d="M-1352.025-1210.051l-4.858 16h-10.639l18.096-56.459h13.152l18.343 56.459h-11.057l-5.109-16h-17.928zm16.168-7.789l-4.439-13.906c-1.089-3.434-2.01-7.289-2.848-10.555h-.168c-.838 3.266-1.675 7.205-2.682 10.555l-4.355 13.906h14.492zM-1299.925-1246.238c0 3.099-2.262 5.528-5.863 5.528-3.436 0-5.698-2.429-5.698-5.528 0-3.183 2.347-5.614 5.78-5.614 3.52 0 5.698 2.431 5.781 5.614m-10.974 11.393h10.388v40.795h-10.388v-40.795z"/></g><g><path fill="#C11187" d="M-784.013-1266.939v123.968c0 4.034-3.272 7.27-7.272 7.27h-138.144a7.245 7.245 0 0 1-7.271-7.27v-159.959c0-4 3.235-7.271 7.271-7.271h102.19l43.226 43.262z"/><g opacity=".25"><defs><path id="aa" d="M-827.246-1310.197h43.241v43.259h-43.241z"/></defs><clipPath id="ab"><use xlink:href="#aa" overflow="visible"/></clipPath><g clip-path="url(#ab)"><defs><path id="ac" d="M-827.246-1310.197h43.241v43.259h-43.241z"/></defs><clipPath id="ad"><use xlink:href="#ac" overflow="visible"/></clipPath><path clip-path="url(#ad)" fill="#231815" d="M-827.238-1274.21v-35.991l43.225 43.262h-35.954c-3.999.001-7.271-3.271-7.271-7.271"/></g></g><path fill="#FFF" d="M-890.176-1250.134h10.303v56.459h-10.303zM-830.873-1253.149v48c0 4.186.169 8.711.337 11.475h-9.215l-.419-6.45h-.167c-2.429 4.521-7.371 7.371-13.318 7.371-9.718 0-17.425-8.294-17.425-20.858-.084-13.654 8.461-21.779 18.263-21.779 5.612 0 9.634 2.345 11.475 5.361h.168v-23.12h10.301zm-10.302 35.685c0-.838-.084-1.844-.251-2.682-.921-4.02-4.188-7.287-8.879-7.287-6.617 0-10.304 5.863-10.304 13.487 0 7.455 3.687 12.899 10.221 12.899 4.188 0 7.873-2.848 8.88-7.287.249-.921.333-1.926.333-3.015v-6.115z"/></g><g><path fill="#F57C00" d="M-1005.354-1266.939v123.968c0 4.034-3.272 7.27-7.272 7.27h-138.144a7.245 7.245 0 0 1-7.271-7.27v-159.959c0-4 3.235-7.271 7.271-7.271h102.191l43.225 43.262z"/><g opacity=".2"><defs><path id="ae" d="M-1048.587-1310.2h43.241v43.259h-43.241z"/></defs><clipPath id="af"><use xlink:href="#ae" overflow="visible"/></clipPath><g clip-path="url(#af)"><defs><path id="ag" d="M-1048.587-1310.2h43.241v43.259h-43.241z"/></defs><clipPath id="ah"><use xlink:href="#ag" overflow="visible"/></clipPath><path clip-path="url(#ah)" fill="#231815" d="M-1048.579-1274.21v-35.991l43.225 43.262h-35.954c-3.999 0-7.271-3.272-7.271-7.271"/></g></g><path fill="#F57C00" d="M-1091.123-1253.571h19.195v19.195h-19.195z"/><path fill="#FFF" d="M-1040.691-1228.705v-4.799h-20.759c6.544 4.623 12.304 11.648 17.077 20.977 6.699 13.098 9.121 26.002 9.219 26.545l-6.863 1.263c-.079-.422-7.135-37.113-29.154-46.264v4.343h-20.71v-4.343c-22.02 9.153-29.077 45.841-29.154 46.264l-6.865-1.263c.099-.543 2.52-13.447 9.221-26.545 4.773-9.329 10.533-16.354 17.076-20.977h-21.104v4.799h-16.578v-16.578h16.578v4.799h30.825v-6.865h20.71v6.865h30.48v-4.799h16.578v16.578h-16.577zm-34.727-14.396h-12.215v12.215h12.215v-12.215z"/></g><g><path fill="#C11187" d="M-571.263-1008.914v123.968c0 4.034-3.272 7.27-7.272 7.27H-716.68a7.245 7.245 0 0 1-7.271-7.27v-159.959c0-4 3.235-7.271 7.271-7.271h102.19l43.227 43.262z"/><g opacity=".25"><defs><path id="ai" d="M-614.489-1052.174h43.224v43.262h-43.224z"/></defs><clipPath id="aj"><use xlink:href="#ai" overflow="visible"/></clipPath><g clip-path="url(#aj)"><defs><path id="ak" d="M-614.489-1052.174h43.224v43.26h-43.224z"/></defs><clipPath id="al"><use xlink:href="#ak" overflow="visible"/></clipPath><path clip-path="url(#al)" fill="#231815" d="M-614.489-1016.185v-35.991l43.225 43.262h-35.954c-3.999.001-7.271-3.271-7.271-7.271"/></g></g><path fill="#FFF" d="M-657.825-936.688l-5.898-10.826c-2.344-4.202-3.878-7.111-5.413-10.261h-.243c-1.293 3.15-2.747 6.059-4.928 10.261l-5.415 10.826h-11.391l16.159-27.55-15.513-26.904h11.391l5.9 11.231c1.777 3.392 3.07 6.059 4.525 9.13h.161a134.022 134.022 0 0 1 4.282-9.13l5.816-11.231h11.391l-15.914 26.582 16.562 27.873h-11.472zM-604.426-994.051v46.295c0 4.038.162 8.402.323 11.069h-8.887l-.403-6.221h-.16c-2.345 4.361-7.111 7.109-12.847 7.109-9.372 0-16.806-7.999-16.806-20.116-.08-13.169 8.16-21.008 17.614-21.008 5.413 0 9.292 2.263 11.069 5.172h.161v-22.299h9.936zm-9.937 34.418c0-.808-.08-1.778-.241-2.586-.89-3.877-4.041-7.029-8.566-7.029-6.381 0-9.936 5.656-9.936 13.007 0 7.191 3.555 12.442 9.856 12.442 4.04 0 7.596-2.747 8.564-7.027.243-.89.323-1.86.323-2.911v-5.896z"/></g><g><path fill="#A0F" d="M-1257.375-1008.912v123.968c0 4.034-3.272 7.27-7.272 7.27h-138.144a7.245 7.245 0 0 1-7.271-7.27v-159.959c0-4 3.235-7.271 7.271-7.271h102.19l43.226 43.262z"/><g opacity=".3"><defs><path id="am" d="M-1300.6-1052.177h43.224v43.258h-43.224z"/></defs><clipPath id="an"><use xlink:href="#am" overflow="visible"/></clipPath><g clip-path="url(#an)"><defs><path id="ao" d="M-1300.6-1052.177h43.224v43.259h-43.224z"/></defs><clipPath id="ap"><use xlink:href="#ao" overflow="visible"/></clipPath><path clip-path="url(#ap)" fill="#231815" d="M-1300.6-1016.183v-35.991l43.225 43.262h-35.954c-3.999.001-7.271-3.271-7.271-7.271"/></g></g><path fill="#FFF" d="M-1297.521-998.222h-70.54l-12.337 27.308 47.607 54.852 47.605-54.852-12.335-27.308zm-3.245 6.042l7.226 18.017h-12.986l5.76-18.017zm-6.159-.287l-5.272 16.907-13.177-16.907h18.449zm-12.277 18.305H-1346.38l13.59-17.288 13.588 17.288zm-21.008-18.305l-13.175 16.907-5.273-16.907h18.448zm-24.607.287l5.76 18.017h-12.986l7.226-18.017zm-5.786 23.771h14.07l14.356 32.752-28.426-32.752zm20.352 0h34.919l-17.459 39.831-17.46-39.831zm26.845 32.753l14.356-32.752h14.07l-28.426 32.752z"/></g><g><path fill="#D32F2F" d="M-1005.805-1008.914v123.969c0 4.043-3.249 7.269-7.226 7.269h-137.328c-4.021 0-7.224-3.227-7.224-7.269v-159.959c0-4 3.226-7.271 7.224-7.271h101.566l42.988 43.261z"/><g opacity=".2"><defs><path id="aq" d="M-1048.836-1052.174h42.944v43.259h-42.944z"/></defs><clipPath id="ar"><use xlink:href="#aq" overflow="visible"/></clipPath><g clip-path="url(#ar)"><defs><path id="as" d="M-1048.836-1052.174h42.944v43.259h-42.944z"/></defs><clipPath id="at"><use xlink:href="#as" overflow="visible"/></clipPath><path clip-path="url(#at)" fill="#231815" d="M-1048.839-1052.175v35.991c0 4 3.249 7.272 7.226 7.272h35.716l-42.942-43.263z"/></g></g><path fill="#FFF" d="M-1038.793-986.936c.503.129 1.017.216 1.504.393 1.499.544 1.989 1.795 1.954 3.371-.049 2.188-.199 4.355-.811 6.49-1.134 3.945-3.572 6.563-7.107 8.116-2.49 1.094-5.111 1.492-7.75 1.801-1.82.211-3.637.464-5.453.712a2.518 2.518 0 0 0-.714.236c-.97.45-1.223 1.333-.504 2.12a18.953 18.953 0 0 0 2.431 2.218c3.256 2.501 6.605 4.874 9.802 7.455 3.614 2.916 6.781 6.324 9.189 10.459 2.364 4.062 3.563 8.49 3.405 13.337-.042 1.279-.626 2.017-1.831 2.078-1.872.092-3.746.106-5.619.124-2.326.021-4.651.012-6.977.018-2.37.004-4.741.002-7.113.01-1.693.005-3.387.028-5.08.03-.496.002-.993-.019-1.487-.063-2.113-.185-2.896-1.005-3.109-3.248-.304-3.177-.787-6.299-2-9.236-2.038-4.94-5.348-8.657-9.625-11.454-3.694-2.415-7.711-3.93-12.075-4.312-4.303-.378-8.308.48-11.524 3.968-1.944 2.108-3.015 4.708-3.766 7.477-.34 1.253-.637 2.52-1.01 3.76-.426 1.41-1.571 1.7-2.729 1.74-2.529.085-5.057.085-7.586.108-2.326.021-4.651.024-6.977.037-2.145.012-4.291.045-6.434.026-.56-.005-1.122-.133-1.668-.267-.811-.197-1.139-.675-1.094-1.544.284-5.284 2.377-9.587 6.387-12.854 3.305-2.691 7.064-4.366 11.009-5.509 3.743-1.085 7.542-1.932 11.311-2.911 1.058-.274 2.118-.569 3.134-.984 1.625-.665 1.89-1.754.607-2.949-1.23-1.15-2.607-2.15-4.01-3.061-3.775-2.45-7.666-4.708-11.1-7.695-3.523-3.066-6.472-6.605-8.079-11.248-.845-2.443-1.197-4.982-1.192-7.593 0-1.002.483-1.778 1.546-2.029a18.989 18.989 0 0 1 3.822-.497c2.89-.078 5.78-.045 8.669-.05 2.326-.004 4.652.009 6.976.007 1.717 0 3.432-.017 5.15-.014.789.002 1.577.04 2.368.057 1.33.03 1.906.471 2.16 1.857.302 1.638.506 3.298.768 4.947.935 5.91 3.15 11.072 7.598 14.899 3.059 2.633 6.626 3.858 10.576 4.029 2.066.089 4.115.059 6.111-.651 3.076-1.094 4.57-3.553 4.282-6.954a212.412 212.412 0 0 1-.332-4.724c-.065-1.071.271-1.719 1.274-1.914 1.258-.246 2.555-.33 3.832-.349 2.551-.037 5.103.026 7.654.038 2.324.009 4.651-.009 6.975.011 1.42.01 2.839.065 4.259.099.002.026.003.054.003.082"/></g><g><path fill="#D32F2F" d="M-784.009-1008.914v123.968c0 4.034-3.272 7.27-7.272 7.27h-138.144a7.245 7.245 0 0 1-7.271-7.27v-159.959c0-4 3.235-7.271 7.271-7.271h102.19l43.226 43.262z"/><path fill="#FFF" d="M-851.526-895.41s-.019-20.699 0-26.231c0-.277-.007-.555 0-.831.061-2.722 1.474-4.137 4.223-4.146 5.771-.017 11.54 0 17.31 0 4.853 0 7.303-2.438 7.304-7.285.002-19.799-.007-39.597.007-59.398.002-2.659-.888-4.839-3.312-6.095-.913-.473-2.029-.766-3.055-.768-20.945-.051-41.89-.057-62.836-.044-3.399.002-6.027 2.633-6.202 6.074-.04.789-.009 1.581-.009 2.371v58.093c0 4.446 2.628 7.052 7.085 7.05 10.275-.005 30.824-.002 30.824-.002v8.561s-20.893-.007-31.445.007c-2.375.002-4.663-.401-6.748-1.536-5.146-2.802-8.149-7.017-8.154-13.028-.021-20.392.08-40.784-.061-61.174-.043-6.242 4.397-13.597 12.836-14.852a16.331 16.331 0 0 1 2.359-.174 93300.9 93300.9 0 0 1 62.599-.044c7.852-.003 14.658 6.724 14.668 14.586.03 20.471.03 40.941.005 61.413-.01 8.154-6.354 14.881-14.518 15.054-4.108.086-8.221.049-12.328.012-.949-.009-1.852 1.187-1.852 1.187l-8.7 21.2z"/><path fill="#FFF" d="M-874.527-974.296v1.951c.002 10.116.005 20.23.005 30.344 0 1.577-.003 1.583-1.546 1.583-2.995.004-5.989.002-9.105.002-.031-.585-.079-1.042-.079-1.497-.003-13.986.012-27.974-.026-41.96-.004-1.15.328-1.459 1.459-1.445 4.74.059 9.482.066 14.224-.007 1.155-.017 1.536.389 1.802 1.448 2.284 9.034 4.628 18.052 6.956 27.075.105.407.237.804.64 1.253.138-.363.312-.719.41-1.092 2.399-9.207 4.804-18.41 7.165-27.627.213-.827.576-1.045 1.38-1.042 4.9.014 9.798.009 14.696-.059 1.057-.014 1.335.319 1.333 1.347-.03 14.107-.03 28.211.002 42.316.004 1.031-.27 1.38-1.326 1.351-2.804-.08-5.61-.049-8.414-.071-.347-.004-.691-.061-1.187-.108v-33.63a67.463 67.463 0 0 1-.331-.063c-.129.377-.279.75-.386 1.134-2.911 10.5-5.827 20.999-8.706 31.509-.241.879-.616 1.216-1.541 1.187a98.931 98.931 0 0 0-6.282-.002c-.955.031-1.384-.258-1.644-1.211-2.879-10.549-5.806-21.087-8.722-31.625-.101-.366-.232-.726-.349-1.089-.141.011-.285.02-.428.028"/><g opacity=".2"><defs><path id="au" d="M-827.234-1052.171h43.224v43.259h-43.224z"/></defs><clipPath id="av"><use xlink:href="#au" overflow="visible"/></clipPath><g clip-path="url(#av)"><defs><path id="aw" d="M-827.234-1052.171h43.224v43.259h-43.224z"/></defs><clipPath id="ax"><use xlink:href="#aw" overflow="visible"/></clipPath><path clip-path="url(#ax)" fill="#231815" d="M-827.234-1016.184v-35.991l43.225 43.262h-35.954c-3.999 0-7.271-3.272-7.271-7.271"/></g></g></g><g><path fill="#A0F" d="M-1473.397-1008.913v123.969c0 4.034-3.272 7.269-7.272 7.269h-138.145a7.245 7.245 0 0 1-7.271-7.269v-159.959c0-4 3.235-7.271 7.271-7.271h102.191l43.226 43.261z"/><g opacity=".3"><defs><path id="ay" d="M-1516.622-1052.176h43.224v43.258h-43.224z"/></defs><clipPath id="az"><use xlink:href="#ay" overflow="visible"/></clipPath><g clip-path="url(#az)"><defs><path id="aA" d="M-1516.622-1052.177h43.224v43.259h-43.224z"/></defs><clipPath id="aB"><use xlink:href="#aA" overflow="visible"/></clipPath><path clip-path="url(#aB)" fill="#231815" d="M-1516.622-1016.184v-35.991l43.225 43.262h-35.954c-3.999.001-7.271-3.271-7.271-7.271"/></g></g><path fill="#FFF" d="M-1590.798-990.445c3.853-.67 9.632-1.173 15.579-1.173 8.126 0 13.655 1.34 17.426 4.523 3.097 2.596 4.858 6.533 4.858 11.309 0 7.287-4.944 12.229-10.22 14.155v.253c4.02 1.506 6.451 5.443 7.873 10.889 1.761 7.036 3.267 13.571 4.441 15.749h-10.639c-.838-1.675-2.178-6.284-3.769-13.319-1.591-7.373-4.272-9.716-10.135-9.884h-5.195v23.203h-10.219v-55.705zm10.219 24.962h6.116c6.952 0 11.308-3.685 11.308-9.297 0-6.198-4.356-9.048-11.058-9.048-3.267 0-5.361.251-6.366.503v17.842zM-1543.139-990.445c3.686-.67 8.795-1.173 15.747-1.173 7.54 0 13.068 1.592 16.672 4.607 3.35 2.764 5.528 7.203 5.528 12.482 0 5.361-1.675 9.8-4.86 12.815-4.104 4.104-10.554 6.033-17.841 6.033-1.928 0-3.686-.084-5.027-.337v21.279h-10.219v-55.706zm10.219 26.302c1.258.335 2.933.419 5.027.419 7.706 0 12.396-3.769 12.396-10.386 0-6.284-4.356-9.634-11.477-9.634-2.848 0-4.858.251-5.947.503v19.098z"/></g><g><path fill="#7757BC" d="M-1473.397-750.888v123.969c0 4.034-3.272 7.269-7.272 7.269h-138.144a7.245 7.245 0 0 1-7.271-7.269v-159.959c0-4 3.235-7.271 7.271-7.271h102.19l43.226 43.261z"/><g opacity=".3"><defs><path id="aC" d="M-1516.623-793.087h43.224v43.259h-43.224z"/></defs><clipPath id="aD"><use xlink:href="#aC" overflow="visible"/></clipPath><g clip-path="url(#aD)"><defs><path id="aE" d="M-1516.623-793.087h43.224v43.259h-43.224z"/></defs><clipPath id="aF"><use xlink:href="#aE" overflow="visible"/></clipPath><path clip-path="url(#aF)" fill="#231815" d="M-1516.622-757.104v-35.991l43.225 43.262h-35.954c-3.999 0-7.271-3.271-7.271-7.271"/></g></g><path fill="#FFF" d="M-1578.823-695.429l-4.718 15.539h-10.332l17.574-54.833h12.773l17.816 54.833h-10.74l-4.961-15.539h-17.412zm15.702-7.565l-4.312-13.506c-1.057-3.335-1.953-7.078-2.766-10.25h-.162c-.813 3.172-1.628 6.997-2.604 10.25l-4.232 13.506h14.076zM-1532.455-696.893c.244 7.16 5.858 10.252 12.203 10.252 4.638 0 7.975-.651 10.983-1.79l1.464 6.915c-3.415 1.384-8.134 2.441-13.829 2.441-12.854 0-20.42-7.893-20.42-20.015 0-10.981 6.671-21.313 19.362-21.313 12.854 0 17.084 10.577 17.084 19.281 0 1.872-.162 3.336-.325 4.23h-26.522zm17.41-6.996c.083-3.661-1.546-9.681-8.215-9.681-6.183 0-8.786 5.614-9.194 9.681h17.409z"/></g><g><path fill="#009497" d="M-1257.375-750.886v123.969c0 4.034-3.272 7.269-7.272 7.269h-138.144a7.245 7.245 0 0 1-7.271-7.269v-159.959c0-4 3.235-7.271 7.271-7.271h102.19l43.226 43.261z"/><g opacity=".3"><defs><path id="aG" d="M-1300.602-794.151h43.224v43.258h-43.224z"/></defs><clipPath id="aH"><use xlink:href="#aG" overflow="visible"/></clipPath><g clip-path="url(#aH)"><defs><path id="aI" d="M-1300.602-794.151h43.224v43.259h-43.224z"/></defs><clipPath id="aJ"><use xlink:href="#aI" overflow="visible"/></clipPath><path clip-path="url(#aJ)" fill="#231815" d="M-1300.6-758.157v-35.991l43.225 43.262h-35.954c-3.999 0-7.271-3.272-7.271-7.271"/></g></g><path fill="#FFF" d="M-1333.719-749.998l28.662 35.668v50.317h19.107v-60.508zM-1381.488-664.013h19.108v-50.317l28.661-35.668-47.769 25.477zM-1333.719-666.561l19.745-21.423-19.745-62.014-20.381 62.014z"/></g><g><path fill="#D32F2F" d="M-1473.397-492.861v123.969c0 4.034-3.272 7.269-7.272 7.269h-138.144a7.244 7.244 0 0 1-7.271-7.269v-159.959c0-4 3.235-7.271 7.271-7.271h102.19l43.226 43.261z"/><g opacity=".2"><defs><path id="aK" d="M-1516.623-536.125h43.224v43.258h-43.224z"/></defs><clipPath id="aL"><use xlink:href="#aK" overflow="visible"/></clipPath><g clip-path="url(#aL)"><defs><path id="aM" d="M-1516.623-536.125h43.224v43.259h-43.224z"/></defs><clipPath id="aN"><use xlink:href="#aM" overflow="visible"/></clipPath><path clip-path="url(#aN)" fill="#231815" d="M-1516.622-500.132v-35.991l43.225 43.262h-35.954c-3.999.001-7.271-3.271-7.271-7.271"/></g></g><path fill="#FFF" d="M-1531.297-428.029h-36.889v-36.888h36.889v36.888zm6.98-43.868h-50.849v50.848h50.849v-50.848z"/><path fill="#FFF" d="M-1556.35-453.082h13.218v13.218h-13.218zM-1554.041-495.761h8.599v25.521h-8.599zM-1554.041-422.836h8.599v25.651h-8.599zM-1526.765-450.773h26.313v8.599h-26.313zM-1599.029-450.773h25.732v8.599h-25.732z"/></g><g><path fill="#03A9F4" d="M-784.009-492.862v123.968c0 4.034-3.272 7.27-7.272 7.27h-138.144a7.244 7.244 0 0 1-7.271-7.27v-159.959c0-4 3.235-7.271 7.271-7.271h102.19l43.226 43.262z"/><g opacity=".2"><defs><path id="aO" d="M-827.235-536.123h43.224v43.262h-43.224z"/></defs><clipPath id="aP"><use xlink:href="#aO" overflow="visible"/></clipPath><g clip-path="url(#aP)"><defs><path id="aQ" d="M-827.235-536.123h43.224v43.26h-43.224z"/></defs><clipPath id="aR"><use xlink:href="#aQ" overflow="visible"/></clipPath><path clip-path="url(#aR)" fill="#231815" d="M-827.234-500.133v-35.991l43.225 43.262h-35.954c-3.999 0-7.271-3.271-7.271-7.271"/></g></g><path fill="#FFF" d="M-860.352-399.672l-43.189-24.161v-47.129l43.189-20.134 43.189 20.134v47.129l-43.189 24.161zm-35.337-28.766l35.336 19.769 35.336-19.769v-37.521l-35.336-16.473-35.336 16.473v37.521z"/><path fill="#FFF" d="M-860.371-442.44l-41.162-23.027 3.834-6.855 37.364 20.904 37.357-20.485 3.776 6.886z"/><path fill="#FFF" d="M-860.352-400.244a3.927 3.927 0 0 1-3.926-3.926v-42.759a3.928 3.928 0 0 1 3.926-3.926 3.928 3.928 0 0 1 3.926 3.926v42.759a3.928 3.928 0 0 1-3.926 3.926"/></g><g><path fill="#546E7A" d="M-1016.741-492.862v123.968c0 4.034-3.272 7.27-7.272 7.27h-138.144a7.244 7.244 0 0 1-7.271-7.27v-159.959c0-4 3.235-7.271 7.271-7.271h102.19l43.226 43.262z"/><g opacity=".3"><defs><path id="aS" d="M-1059.968-536.12h43.223v43.259h-43.223z"/></defs><clipPath id="aT"><use xlink:href="#aS" overflow="visible"/></clipPath><g clip-path="url(#aT)"><defs><path id="aU" d="M-1059.968-536.12h43.224v43.259h-43.224z"/></defs><clipPath id="aV"><use xlink:href="#aU" overflow="visible"/></clipPath><path clip-path="url(#aV)" fill="#231815" d="M-1059.967-500.133v-35.991l43.225 43.262h-35.954c-3.999.001-7.271-3.271-7.271-7.271"/></g></g><path fill="#FFF" d="M-1043.775-445.56c-.576-6.509-1.955-11.534-4.362-15.81-2.513-4.467-5.724-7.591-9.79-9.597-3.891-1.902-8.236-3.088-14.117-3.839-5.427-.698-11.15-.89-18.305-.576-2.774.122-6.02.297-9.144.803-3.263.506-5.619 1.099-7.678 1.937-4.362 1.797-7.818 5.2-10.575 10.435-1.605 3.036-2.548 6.649-2.897 11.028-.506 6.457-.192 11.325.994 15.792.663 2.46 1.623 4.38 2.932 5.863 3.159 3.56 7.346 5.898 13.559 7.591 2.164.593 4.415.907 6.352 1.134 5.427.663 9.877.401 14.065-.838 4.659-1.379 8.899-3.403 12.634-6.038 1.902-1.344 3.699-2.984 5.34-4.554.541-.523.645-.663-.035-1.553-1.955-2.565-4.625-4.712-8.149-6.614-2.373-1.256-4.729-1.815-7.294-1.693-3.525.157-6.805.21-10.051.122-2.303-.052-4.519-.105-6.561-.785-2.739-.907-5.34-2.303-7.835-3.665-1.605-.855-2.862-1.954-3.909-2.932-.419-.384-.96-.995-.925-1.78.035-.803.646-1.378 1.169-1.78a43.605 43.605 0 0 1 2.844-2.007l1.693-1.117c2.129-1.379 4.31-2.792 6.544-4.118l.576-.332c1.867-1.117 3.804-2.268 5.915-2.914 3.071-.942 6.265-1.064 8.708-1.064.611 0 1.204 0 1.815.017 4.171.087 7.922.785 11.43 2.129 3.001 1.152 5.549 2.774 7.573 4.816 3.961 3.978 6.194 9.231 6.805 16.106.436 4.712.227 9.388-.611 13.855-.349 1.85-.994 3.682-1.64 5.409-.942 2.565-2.932 4.275-4.729 5.689-1.344 1.064-2.652 1.815-3.909 2.268-2.565.907-4.886 1.536-7.12 1.954l-.576.105c-3.63.68-7.381 1.379-11.133 1.64-3.63.227-7.504.331-12.511.331-1.256 0-2.495 0-3.752-.017-6.753-.052-12.128-.925-16.891-2.757-3.263-1.239-5.898-3.211-7.87-5.863-2.286-3.089-3.804-6.84-4.502-11.168-1.012-6.317-1.606-11.185-1.955-15.792-.541-7.05.122-13.646 1.989-19.579.646-2.094 1.623-4.188 2.88-6.212 1.466-2.338 3.56-4.345 6.264-5.951 2.949-1.762 6.3-2.897 10.854-3.664 1.309-.227 2.635-.384 3.961-.541.803-.105 1.605-.192 2.408-.314 1.605-.209 3.211-.454 4.816-.681 2.879-.419 5.759-.838 8.638-1.204 4.485-.559 8.9-.628 12.25-.628 1.92 0 3.839.017 5.776.052l.907.017c2.862.035 5.759.174 8.568.297 1.379.07 2.775.139 4.153.192h.349c0-.07 0-.157-.018-.279l-.663-5.357-.838-6.91-.139-.14c-.297 0-.576.052-.855.087l-3.577.628c-2.548.436-5.165.907-7.783 1.256-6.352.838-11.64 1.518-17.188 1.989l-3.455.279c-6.544.506-13.315 1.047-19.823 2.391-2.286.471-4.938 1.047-7.486 1.85-2.566.803-5.061 1.832-7.172 2.74-2.583 1.117-4.816 2.705-6.649 4.729-3.438 3.804-5.811 8.533-7.486 14.885-1.187 4.554-1.762 9.563-1.849 16.211-.07 7.242.82 14.553 2.739 22.319 1.588 6.404 3.508 11.36 6.038 15.653 1.815 3.054 3.909 5.305 6.387 6.875 3.245 2.077 6.125 3.316 9.056 3.926l2.007.436c2.583.558 5.252 1.152 7.87 1.396 3.7.332 7.486.489 11.151.628l3.839.157.017-.262h.838c1.047 0 2.094.017 3.141.035 2.269.017 4.537.052 6.805-.07 6.282-.349 12.913-.89 19.125-3.176 2.059-.768 4.223-1.64 5.986-2.879 2.251-1.605 4.345-3.56 6.369-5.444l.489-.471c4.188-3.909 6.596-8.83 7.12-14.588.627-6.87.644-13.763.069-20.499m-48.406 17.974c.035-.384.087-.768.174-1.134.506-2.094 1.012-4.206 1.571-6.282.174-.663.471-1.78 1.728-1.78.262 0 .541.052 1.012.157 3.752.925 7.521 1.85 11.29 2.81.314.07.594.209.838.332l.838.384-.122 1.483-4.397 1.571a2329.04 2329.04 0 0 1-10.296 3.577c-.419.14-.838.192-1.221.244l-.454.052-1.152.192.191-1.606z"/><path fill="#FFF" d="M-1083.963-456.937c-.367.942-.751 1.885-1.117 2.827a272.765 272.765 0 0 0-1.605 4.066c-.07.175-.087.192-.611.279a.638.638 0 0 1-.192.035l-1.606-.332a116.446 116.446 0 0 1-4.258-.942c-.907-.209-1.797-.506-2.635-.803.663-.262 1.326-.524 1.99-.803a215.246 215.246 0 0 0 4.17-1.71c1.169-.506 2.339-1.03 3.507-1.57.769-.349 1.537-.698 2.357-1.047"/></g><g><path fill="#009497" d="M-1257.375-492.862v123.969c0 4.034-3.272 7.269-7.272 7.269h-138.144a7.244 7.244 0 0 1-7.271-7.269v-159.959c0-4 3.235-7.271 7.271-7.271h102.19l43.226 43.261z"/><g opacity=".2"><defs><path id="aW" d="M-1300.601-534.375h43.224v43.259h-43.224z"/></defs><clipPath id="aX"><use xlink:href="#aW" overflow="visible"/></clipPath><g clip-path="url(#aX)"><defs><path id="aY" d="M-1300.601-534.375h43.224v43.259h-43.224z"/></defs><clipPath id="aZ"><use xlink:href="#aY" overflow="visible"/></clipPath><path clip-path="url(#aZ)" fill="#231815" d="M-1300.6-498.388v-35.991l43.225 43.262h-35.954c-3.999.001-7.271-3.271-7.271-7.271"/></g></g><path fill="none" stroke="#FFF" stroke-width="4" stroke-miterlimit="10" d="M-1372.583-484.248h77.727v77.727h-77.727z"/><path fill="#FFF" d="M-1338.396-484.248h43.541v43.541h-43.541z"/></g><g><path fill="#62BB37" d="M-796.707-199.014v123.968c0 4.043-3.249 7.269-7.226 7.269h-137.328c-4.02 0-7.224-3.227-7.224-7.269v-159.959c0-4 3.226-7.271 7.224-7.271h101.566l42.988 43.262z"/><g opacity=".2"><defs><path id="ba" d="M-839.745-242.274h42.945v43.259h-42.945z"/></defs><clipPath id="bb"><use xlink:href="#ba" overflow="visible"/></clipPath><g clip-path="url(#bb)"><defs><path id="bc" d="M-839.745-242.274h42.945v43.259h-42.945z"/></defs><clipPath id="bd"><use xlink:href="#bc" overflow="visible"/></clipPath><path clip-path="url(#bd)" fill="#231815" d="M-839.741-242.275v35.991c0 4 3.249 7.272 7.226 7.272h35.717l-42.943-43.263z"/></g></g><path fill="#FFF" d="M-896.144-131.168c0 2.394 1.555 3.998 3.923 3.998h3.923v13.958c0 3.183 2.75 5.985 5.883 5.985 3.134 0 5.884-2.776 5.884-5.985v-13.958h7.87v13.958c0 3.183 2.752 5.985 5.884 5.985s5.884-2.776 5.884-5.985v-13.958h3.922c2.368 0 3.921-1.604 3.921-3.998v-39.887h-47.094v39.887zm-9.831-39.887c-3.158 0-5.884 2.776-5.884 5.985v27.917c0 3.183 2.752 5.985 5.884 5.985 3.133 0 5.884-2.776 5.884-5.985v-27.917c0-3.183-2.752-5.985-5.884-5.985m66.757 0c-3.132 0-5.883 2.776-5.883 5.985v27.917c0 3.183 2.75 5.985 5.883 5.985 3.134 0 5.884-2.776 5.884-5.985v-27.917c.026-3.183-2.726-5.985-5.884-5.985m-19.612-23.127l5.12-5.17c.79-.79.79-2.012 0-2.776-.789-.79-1.935-.79-2.75 0l-5.884 5.985c-2.75-1.988-6.291-2.776-10.214-2.776s-7.437.789-10.62 2.394l-5.502-6.012c-.764-.382-2.37-.382-3.134 0-.382.79-.382 2.394 0 3.185l5.12 5.17c-5.502 4.38-9.423 11.156-9.423 19.127h47.094c0-7.947-3.948-15.129-9.807-19.127m-21.598 11.18h-3.923v-4h3.923v4zm19.612 0h-3.923v-4h3.923v4z"/></g><g><path fill="#29D3B2" d="M-1029.352-199.013v123.968c0 4.034-3.272 7.269-7.272 7.269h-138.144a7.245 7.245 0 0 1-7.271-7.269v-159.959c0-4 3.235-7.271 7.271-7.271h102.19l43.226 43.262z"/><g opacity=".2"><defs><path id="be" d="M-1072.584-242.276h43.224v43.258h-43.224z"/></defs><clipPath id="bf"><use xlink:href="#be" overflow="visible"/></clipPath><g clip-path="url(#bf)"><defs><path id="bg" d="M-1072.584-242.276h43.224v43.259h-43.224z"/></defs><clipPath id="bh"><use xlink:href="#bg" overflow="visible"/></clipPath><path clip-path="url(#bh)" fill="#231815" d="M-1072.577-206.284v-35.991l43.225 43.262h-35.954c-4 .001-7.271-3.271-7.271-7.271"/></g></g><path fill="#FFF" d="M-1158.558-149.801l33.471 18.577v-9.192l-23.057-12.863 23.057-12.864v-9.191l-33.471 18.576zM-1117.166-128.1h8.181l14.865-50.358h-8.182zM-1086.303-175.328v9.192l23.595 12.858-23.595 12.857v9.192l33.085-18.146.384-.211v-7.387z"/></g><g><path fill="#29D3B2" d="M-1257.375-199.012v123.968c0 4.034-3.272 7.269-7.272 7.269h-138.144a7.244 7.244 0 0 1-7.271-7.269v-159.959c0-4 3.235-7.271 7.271-7.271h102.19l43.226 43.262z"/><path fill="#FFF" d="M-1354.071-131.228h-6.407v-4.153h-.117c-.911 1.778-2.235 3.055-3.975 3.827a13.498 13.498 0 0 1-5.518 1.155c-2.413 0-4.519-.424-6.32-1.274-1.799-.852-3.291-2.008-4.478-3.473-1.188-1.461-2.076-3.193-2.67-5.19-.593-1.998-.89-4.143-.89-6.439 0-2.768.375-5.162 1.127-7.179.751-2.017 1.749-3.677 2.995-4.982 1.246-1.305 2.672-2.265 4.273-2.879a13.628 13.628 0 0 1 4.893-.92c.95 0 1.92.091 2.907.267.99.18 1.939.466 2.848.86.911.396 1.752.9 2.522 1.515a8.352 8.352 0 0 1 1.93 2.165h.117v-15.665h6.764v42.365zm-23.611-15.011c0 1.305.167 2.59.504 3.857.334 1.267.848 2.392 1.543 3.38a7.764 7.764 0 0 0 2.64 2.375c1.068.593 2.332.89 3.795.89 1.504 0 2.799-.318 3.888-.949a8.053 8.053 0 0 0 2.668-2.492 11.282 11.282 0 0 0 1.544-3.471c.335-1.286.504-2.602.504-3.945 0-3.403-.765-6.053-2.286-7.952-1.523-1.899-3.588-2.848-6.198-2.848-1.584 0-2.918.326-4.005.979a8.26 8.26 0 0 0-2.672 2.551c-.691 1.049-1.185 2.235-1.481 3.56a18.595 18.595 0 0 0-.444 4.065M-1346.536-173.591h6.764v15.665h.118a9.346 9.346 0 0 1 1.721-2.019 10.763 10.763 0 0 1 2.225-1.513 11.697 11.697 0 0 1 2.551-.949c.892-.216 1.77-.326 2.641-.326 2.411 0 4.518.426 6.32 1.276 1.799.851 3.291 2.017 4.478 3.5 1.188 1.485 2.076 3.214 2.67 5.193.593 1.975.89 4.092.89 6.347a22.38 22.38 0 0 1-.801 5.994c-.534 1.937-1.345 3.649-2.433 5.13a12.127 12.127 0 0 1-4.124 3.56c-1.661.89-3.619 1.335-5.874 1.335a23.81 23.81 0 0 1-3.115-.206 11.924 11.924 0 0 1-2.996-.801c-.95-.396-1.81-.911-2.581-1.544-.772-.632-1.414-1.462-1.929-2.492h-.117v4.213h-6.41v-42.363zm23.613 27.054c0-1.384-.178-2.727-.534-4.034-.356-1.305-.888-2.462-1.602-3.471a8.262 8.262 0 0 0-2.67-2.431c-1.068-.614-2.293-.921-3.678-.921-2.848 0-4.994.989-6.437 2.968-1.445 1.977-2.166 4.607-2.166 7.889 0 1.544.187 2.977.564 4.303.375 1.326.939 2.461 1.691 3.411a8.434 8.434 0 0 0 2.699 2.255c1.047.553 2.265.829 3.649.829 1.543 0 2.85-.316 3.916-.948a8.306 8.306 0 0 0 2.642-2.464c.689-1.009 1.185-2.155 1.481-3.439.297-1.286.445-2.601.445-3.947M-1289.756-151.639c-.278-1.898-1.04-3.331-2.286-4.301-1.244-.97-2.816-1.454-4.717-1.454-.869 0-1.799.148-2.787.445-.989.297-1.899.85-2.729 1.661-.831.811-1.524 1.939-2.077 3.382-.555 1.445-.831 3.333-.831 5.668 0 1.265.148 2.53.445 3.797.297 1.265.77 2.392 1.423 3.38a7.702 7.702 0 0 0 2.523 2.403c1.028.614 2.274.92 3.736.92 1.979 0 3.61-.612 4.896-1.837 1.285-1.227 2.085-2.947 2.403-5.162h6.764c-.634 3.994-2.146 7.05-4.541 9.166-2.393 2.115-5.566 3.173-9.522 3.173-2.412 0-4.537-.407-6.376-1.215-1.841-.811-3.392-1.919-4.657-3.324-1.267-1.403-2.225-3.073-2.877-5.013-.653-1.937-.979-4.033-.979-6.287 0-2.295.316-4.452.949-6.469.632-2.017 1.581-3.768 2.848-5.251 1.265-1.483 2.837-2.651 4.717-3.5 1.877-.85 4.083-1.276 6.615-1.276 1.78 0 3.469.227 5.071.682s3.028 1.138 4.273 2.047a10.936 10.936 0 0 1 3.056 3.441c.791 1.385 1.265 3.026 1.424 4.924h-6.764z"/><g opacity=".2"><defs><path id="bi" d="M-1300.607-242.277h43.224v43.258h-43.224z"/></defs><clipPath id="bj"><use xlink:href="#bi" overflow="visible"/></clipPath><g clip-path="url(#bj)"><defs><path id="bk" d="M-1300.607-242.277h43.224v43.259h-43.224z"/></defs><clipPath id="bl"><use xlink:href="#bk" overflow="visible"/></clipPath><path clip-path="url(#bl)" fill="#231815" d="M-1300.6-206.283v-35.991l43.225 43.262h-35.954c-3.999.001-7.271-3.271-7.271-7.271"/></g></g></g><g><path fill="#29D3B2" d="M-1473.397-199.014v123.968c0 4.034-3.272 7.27-7.272 7.27h-138.144a7.244 7.244 0 0 1-7.271-7.27v-159.959c0-4 3.235-7.271 7.271-7.271h102.19l43.226 43.262z"/><g opacity=".2"><defs><path id="bm" d="M-1516.629-242.271h43.224v43.259h-43.224z"/></defs><clipPath id="bn"><use xlink:href="#bm" overflow="visible"/></clipPath><g clip-path="url(#bn)"><defs><path id="bo" d="M-1516.629-242.271h43.224v43.259h-43.224z"/></defs><clipPath id="bp"><use xlink:href="#bo" overflow="visible"/></clipPath><path clip-path="url(#bp)" fill="#231815" d="M-1516.622-206.284v-35.991l43.225 43.262h-35.954c-3.999 0-7.271-3.272-7.271-7.271"/></g></g><path fill="#FFF" d="M-1571.813-152.546c.3 17.876 14.351 25.238 27.571 25.238 10.994 0 17.45-2.448 22.903-5.284l2.253 9.465c-4.652 2.968-9.887 6.034-26.102 6.034-26.175 0-39.243-16.08-39.243-36.657 0-21.931 16.408-39.206 37.591-39.206 23.736 0 31.79 20.879 31.79 34.251 0 2.703-.3 4.806-.45 6.16h-56.313zm43.993-9.465c.152-8.413-5.198-21.483-20.073-21.483-13.37 0-22.718 12.318-23.77 21.483h43.843z"/></g><g><path fill="#ACACAC" d="M-322.205 56.012V179.98c0 4.034-3.272 7.27-7.272 7.27h-138.144a7.244 7.244 0 0 1-7.271-7.27V20.021c0-4 3.235-7.271 7.271-7.271h102.19l43.226 43.262z"/><g opacity=".2"><defs><path id="bq" d="M-365.434 12.751h43.223v43.262h-43.223z"/></defs><clipPath id="br"><use xlink:href="#bq" overflow="visible"/></clipPath><g clip-path="url(#br)"><defs><path id="bs" d="M-365.434 12.751h43.224v43.26h-43.224z"/></defs><clipPath id="bt"><use xlink:href="#bs" overflow="visible"/></clipPath><path clip-path="url(#bt)" fill="#231815" d="M-365.43 48.741v-35.99l43.225 43.262h-35.954c-3.999 0-7.271-3.272-7.271-7.272"/></g></g><path fill="#F6F4F4" d="M-436.965 71.976h76.834v11.21h-76.834zM-436.965 98.031h76.834v11.21h-76.834zM-436.965 124.085h53.784v11.208h-53.784z"/></g><g><path fill="#03A9F4" d="M-556.701 56.015v123.963c0 4.033-3.26 7.272-7.23 7.272h-137.283c-4.011 0-7.229-3.239-7.229-7.272V20.021c0-3.989 3.218-7.271 7.229-7.271h101.547l42.966 43.265z"/><g opacity=".2"><defs><path id="bu" d="M-599.859 12.943h42.962v43.266h-42.962z"/></defs><clipPath id="bv"><use xlink:href="#bu" overflow="visible"/></clipPath><g clip-path="url(#bv)"><defs><path id="bw" d="M-599.859 12.943h42.962v43.266h-42.962z"/></defs><clipPath id="bx"><use xlink:href="#bw" overflow="visible"/></clipPath><path clip-path="url(#bx)" fill="#231815" d="M-599.859 12.943v35.994c0 3.989 3.239 7.271 7.227 7.271h35.738l-42.965-43.265z"/></g></g><path fill="#FFF" d="M-587.206 101.803c-.117 5.446-2.368 10.437-5.954 14.023-3.595 3.584-8.46 5.785-13.854 5.785h-9.58a29.516 29.516 0 0 0 5.149-7.943h4.431c6.42 0 11.717-5.287 11.866-11.981.138-6.514-5.162-11.653-11.866-11.854h-18.759c-2.644 0-5.108.899-7.118 2.422a11.983 11.983 0 0 0-2.855 3.066 12.269 12.269 0 0 0-2.01 6.483l-7.942-.117a17.61 17.61 0 0 1 .159-2.104c.708-5.603 3.712-10.531 8.017-13.758 3.3-2.474 7.371-3.944 11.749-3.944h18.759c10.819.231 20.04 8.902 19.808 19.922"/><path fill="#FFF" d="M-677.937 101.687c.117-5.446 2.368-10.437 5.954-14.023 3.595-3.584 8.46-5.785 13.854-5.785h9.58a29.516 29.516 0 0 0-5.149 7.943h-4.431c-6.42 0-11.717 5.287-11.866 11.981-.138 6.514 5.162 11.653 11.866 11.854h18.759c2.644 0 5.108-.899 7.118-2.422a11.95 11.95 0 0 0 2.855-3.066 12.269 12.269 0 0 0 2.01-6.483l7.942.117c-.01.708-.064 1.417-.158 2.104-.708 5.603-3.712 10.531-8.017 13.758-3.3 2.474-7.371 3.944-11.749 3.944h-18.759c-10.821-.232-20.041-8.903-19.809-19.922"/></g><g><path fill="#7757BC" d="M-1017.196 56.012V179.98c0 4.043-3.249 7.269-7.226 7.269h-137.328c-4.021 0-7.224-3.227-7.224-7.269V20.021c0-4 3.226-7.271 7.224-7.271h101.566l42.988 43.262z"/><g opacity=".25"><defs><path id="by" d="M-1060.233 12.751h42.945V56.01h-42.945z"/></defs><clipPath id="bz"><use xlink:href="#by" overflow="visible"/></clipPath><g clip-path="url(#bz)"><defs><path id="bA" d="M-1060.233 12.751h42.945V56.01h-42.945z"/></defs><clipPath id="bB"><use xlink:href="#bA" overflow="visible"/></clipPath><path clip-path="url(#bB)" fill="#231815" d="M-1060.23 12.751v35.991c0 4 3.249 7.272 7.226 7.272h35.717l-42.943-43.263z"/></g></g><path fill="#FFF" d="M-1068.387 96.867V81.372c0-2.659-1.977-4.431-4.953-4.431h-59.281c-2.953 0-4.953 1.771-4.953 4.431v44.237c0 2.659 1.975 4.43 4.953 4.43h59.304c2.953 0 4.953-1.771 4.953-4.43v-15.473l19.767 17.7V79.168l-19.79 17.699z"/></g><g><path fill="#FF5722" d="M-1473.397 56.013v123.968c0 4.034-3.272 7.269-7.272 7.269h-138.144a7.244 7.244 0 0 1-7.271-7.269V20.022c0-4 3.235-7.271 7.271-7.271h102.19l43.226 43.262z"/><g opacity=".2"><defs><path id="bC" d="M-1516.626 12.749h43.223v43.258h-43.223z"/></defs><clipPath id="bD"><use xlink:href="#bC" overflow="visible"/></clipPath><g clip-path="url(#bD)"><defs><path id="bE" d="M-1516.626 12.749h43.224v43.259h-43.224z"/></defs><clipPath id="bF"><use xlink:href="#bE" overflow="visible"/></clipPath><path clip-path="url(#bF)" fill="#231815" d="M-1516.622 48.742V12.751l43.225 43.262h-35.954c-3.999.001-7.271-3.271-7.271-7.271"/></g></g><path fill="#FFF" d="M-1577.269 104.569l21.402 23.612 29.274-40.617 33.689 54.149h-110.184zM-1557.921 77.602c0 7.367-5.972 13.339-13.339 13.339-7.366 0-13.339-5.971-13.339-13.339 0-7.367 5.973-13.339 13.339-13.339 7.368 0 13.339 5.972 13.339 13.339"/></g><g><path fill="#FDCA07" d="M-796.252 56.612V180.58c0 4.034-3.272 7.27-7.272 7.27h-138.144a7.244 7.244 0 0 1-7.271-7.27V20.621c0-4 3.235-7.271 7.271-7.271h102.19l43.226 43.262z"/><g opacity=".15"><defs><path id="bG" d="M-839.481 13.347h43.223v43.259h-43.223z"/></defs><clipPath id="bH"><use xlink:href="#bG" overflow="visible"/></clipPath><g clip-path="url(#bH)"><defs><path id="bI" d="M-839.482 13.347h43.224v43.259h-43.224z"/></defs><clipPath id="bJ"><use xlink:href="#bI" overflow="visible"/></clipPath><path clip-path="url(#bJ)" fill="#231815" d="M-839.477 49.341V13.35l43.225 43.262h-35.954c-3.999 0-7.271-3.271-7.271-7.271"/></g></g><path fill="#FFF" d="M-883.295 12.151h10.699V22.85h-10.699zM-883.295 33.549h10.699v10.699h-10.699zM-883.295 54.071h10.699V64.77h-10.699zM-883.295 75.209h10.699v23.592h-10.699zM-872.595 22.851h10.699V33.55h-10.699zM-872.595 44.248h10.699v10.699h-10.699zM-872.595 64.694h10.699v10.699h-10.699z"/><path fill="#FFF" d="M-877.945 88.103h16.049v10.699h-16.049zM-863.512 108.05l3.772 29.52c.449 3.085-1.557 5.989-5.689 5.989h-14.555c-4.317 0-6.111-2.799-5.689-5.989l3.024-29.693"/><path fill="#FDCA07" d="M-879.43 131.796h13.449v5.49h-13.449z"/></g><g><path fill="#FFED18" d="M-73.999 44.064h-78.749l-17.226-17.45h-61.065a8.735 8.735 0 0 0-8.735 8.736v129.311c0 4.799 3.926 8.725 8.725 8.725h157.05c4.799 0 8.725-3.926 8.725-8.725V52.789c0-4.799-3.926-8.725-8.725-8.725"/><path fill="#FDCA07" d="M-65.274 164.66c0 4.799-3.926 8.725-8.725 8.725h-157.05c-4.799 0-8.725-3.926-8.725-8.725V70.945c0-4.799 3.926-8.725 8.725-8.725h157.05c4.799 0 8.725 3.926 8.725 8.725v93.715z"/></g><g font-family="'MicrosoftYaHei'" font-size="40"><text transform="translate(-1803.27 -1523.81)">M</text><text transform="translate(-1764.19 -1523.81)">A</text><text transform="translate(-1736.59 -1523.81)">C</text></g><text transform="translate(-1788.39 -1774.516)" font-family="'MicrosoftYaHei'" font-size="40">WIN</text><text transform="translate(-1912.19 -1245.953)" font-family="'MicrosoftYaHei'" font-size="40"></text><text transform="translate(-1992.19 -955.434)" font-family="'MicrosoftYaHei'" font-size="40"></text><text transform="translate(-1912.19 -697.409)" font-family="'MicrosoftYaHei'" font-size="40"></text><text transform="translate(-1792.19 -163.355)" font-family="'MicrosoftYaHei'" font-size="40"></text><text transform="translate(-1792.19 133.675)" font-family="'MicrosoftYaHei'" font-size="40"></text><text transform="translate(-1912.19 -471.875)" font-family="'MicrosoftYaHei'" font-size="40"></text><g><path fill="#FF40B6" d="M-1257.545 55.849v124.433c0 4.058-3.261 7.297-7.253 7.297h-137.843c-4.036 0-7.251-3.239-7.251-7.297V19.723c0-4.015 3.238-7.299 7.251-7.299h101.947l43.149 43.425z"/><g opacity=".2"><defs><path id="bK" d="M-1300.744 12.421h43.106v43.421h-43.106z"/></defs><clipPath id="bL"><use xlink:href="#bK" overflow="visible"/></clipPath><g clip-path="url(#bL)"><defs><path id="bM" d="M-1300.744 12.421h43.106v43.421h-43.106z"/></defs><clipPath id="bN"><use xlink:href="#bM" overflow="visible"/></clipPath><path clip-path="url(#bN)" fill="#231815" d="M-1300.741 12.425v36.126c0 4.015 3.261 7.299 7.253 7.299h35.851l-43.104-43.425z"/></g></g><path fill="#FFF" d="M-1358.998 65.116a2.274 2.274 0 0 0-2.281 2.281v58.5a13.782 13.782 0 0 0-6.887-1.825c-7.595 0-13.731 6.134-13.731 13.706 0 7.572 6.136 13.708 13.731 13.708s13.728-6.136 13.728-13.708c0-.546-.023-1.117-.091-1.618a2.12 2.12 0 0 0 .091-.662V87.375l48.099-8.483v33.297a13.803 13.803 0 0 0-6.887-1.825c-7.595 0-13.73 6.136-13.73 13.708s6.135 13.706 13.73 13.706c7.595 0 13.729-6.134 13.729-13.706 0-.548-.023-1.117-.091-1.62.068-.205.091-.433.091-.66V57.795c0-1.118 0-2.508-1.892-2.235-.388.045-57.609 9.556-57.609 9.556"/></g><g><path fill="#AFD5BC" d="M71.833 46.923S66.103 34.371 58.5 31.539H8.833S2.213 32.623 0 39.231v38.308h73l-1.167-30.616z"/><path fill="#AFD5BC" d="M175 144.213c0 6.627-5.373 12-12 12H12c-6.627 0-12-5.373-12-12v-85.5c0-6.627 5.373-12 12-12h151c6.627 0 12 5.373 12 12v85.5z"/><path fill="#8AC39C" d="M175 161.56c0 6.627-5.373 12-12 12H12c-6.627 0-12-5.373-12-12v-85.5c0-6.627 5.373-12 12-12h151c6.627 0 12 5.373 12 12v85.5z"/><path fill="#5BAB6E" d="M110.101 107.79c-2.988 0-5.603 1.121-7.469 2.988L76.103 95.46c.379-.742.379-1.865.379-2.613 0-6.348-4.861-11.207-11.207-11.207-6.348 0-11.207 4.859-11.207 11.207 0 6.352 4.859 11.205 11.207 11.205 2.986 0 5.604-1.123 7.469-2.986l26.523 15.314c-.371.75-.371 1.871-.371 2.617 0 .744 0 1.865.371 2.613l-26.523 15.695c-1.865-1.871-4.482-2.992-7.469-2.992-5.98 0-10.834 4.859-10.834 10.834s4.854 10.834 10.834 10.834c5.975 0 10.828-4.859 10.828-10.834 0-.75 0-1.494-.365-2.615l26.518-15.689c1.865 1.867 4.48 2.988 7.469 2.988 6.353 0 11.207-4.854 11.207-11.207 0-6.352-4.483-10.834-10.831-10.834"/></g></svg>