<svg xmlns="http://www.w3.org/2000/svg" xmlns:xlink="http://www.w3.org/1999/xlink" width="175" height="200"><path fill="#FFF" d="M-959.455 49.585v142.084c0 4.624-3.75 8.332-8.334 8.332h-158.332a8.304 8.304 0 0 1-8.334-8.332V8.335c0-4.584 3.708-8.334 8.334-8.334h117.124l49.542 49.584zM-737.467 49.584v142.084c0 4.624-3.75 8.332-8.334 8.332h-158.332a8.304 8.304 0 0 1-8.334-8.332V8.334c0-4.584 3.708-8.334 8.334-8.334h117.124l49.542 49.584zM-516.977 49.584v142.084c0 4.624-3.75 8.332-8.334 8.332h-158.332a8.304 8.304 0 0 1-8.334-8.332V8.334c0-4.584 3.708-8.334 8.334-8.334h117.124l49.542 49.584zM-291.989 49.584v142.084c0 4.624-3.75 8.332-8.334 8.332h-158.332a8.304 8.304 0 0 1-8.334-8.332V8.334c0-4.584 3.708-8.334 8.334-8.334h117.124l49.542 49.584zM-67 49.584v142.084c0 4.624-3.75 8.332-8.334 8.332h-158.331a8.304 8.304 0 0 1-8.334-8.332V8.334C-242 3.75-238.292 0-233.666 0h117.124L-67 49.584zM-1194.122 49.585v142.084c0 4.624-3.75 8.332-8.334 8.332h-158.332a8.304 8.304 0 0 1-8.334-8.332V8.335c0-4.584 3.708-8.334 8.334-8.334h117.124l49.542 49.584z"/><path fill="none" d="M-1243.664-.001h49.542v49.58h-49.542z"/><path fill="none" d="M-1243.664 0h49.542v49.58h-49.542z"/><path fill="#448AFF" d="M-1330.163 66.625h13.228l13.436 56.874h.208l15.002-56.874h13.334l14.584 56.874h.208l13.854-56.874h13.228l-20.52 74.376h-13.232l-14.892-56.876h-.212l-15.206 56.876h-13.44z"/><path fill="none" d="M-1008.997-.001h49.542v49.58h-49.542z"/><path fill="#62BB37" d="M-1079.248 66.628h15.524l16.874 26.25 17.602-26.25h14.584l-24.582 35.832 26.354 38.542h-15.836l-18.538-28.438-18.856 28.438h-14.896l26.354-38.542z"/><defs><path id="a" d="M-787.009.002h49.542v49.58h-49.542z"/></defs><clipPath id="b"><use xlink:href="#a" overflow="visible"/></clipPath><path clip-path="url(#b)" fill="none" d="M-787.009.002h49.542v49.58h-49.542z"/><path fill="#F57C00" d="M-854.026 66.625h32.812c5.274 0 9.582.766 12.914 2.292 3.334 1.53 5.9 3.438 7.708 5.728 1.806 2.292 3.038 4.794 3.698 7.5.66 2.71.988 5.208.988 7.5 0 2.294-.328 4.776-.988 7.45-.66 2.672-1.892 5.156-3.698 7.446-1.808 2.29-4.374 4.186-7.708 5.676-3.332 1.498-7.64 2.242-12.914 2.242h-19.792v28.54h-13.02V66.625zm13.02 35.21h19.06c1.46 0 2.954-.212 4.48-.626a12.867 12.867 0 0 0 4.218-2.032c1.286-.94 2.328-2.188 3.126-3.75.798-1.564 1.196-3.524 1.196-5.884 0-2.43-.346-4.444-1.042-6.042-.692-1.596-1.632-2.866-2.812-3.802-1.18-.94-2.534-1.578-4.06-1.928-1.53-.346-3.162-.52-4.896-.52h-19.27v24.584z"/><path fill="none" d="M-341.531 0h49.542v49.584h-49.542z"/><path fill="#448AFF" d="M-413.644 64.729h14.3l19.69 62.15h.22l20.13-62.15h13.97l-26.84 78.54h-15.288z"/><g fill="#718BC8"><path d="M-154.5 35.999c-27.614 0-50 22.386-50 50s22.386 50 50 50 50-22.386 50-50-22.386-50-50-50zm-.001 64.584c-8.054 0-14.582-6.53-14.582-14.584 0-8.054 6.528-14.584 14.582-14.584s14.584 6.53 14.584 14.584c0 8.054-6.53 14.584-14.584 14.584zM-188.108 167.467c0 .92.13 1.808.39 2.668a6.63 6.63 0 0 0 1.174 2.254 5.659 5.659 0 0 0 1.978 1.54c.798.382 1.748.574 2.852.574 1.534 0 2.768-.328 3.704-.988.934-.66 1.632-1.648 2.094-2.966h4.966c-.276 1.286-.752 2.436-1.426 3.448a9.96 9.96 0 0 1-2.438 2.554 10.548 10.548 0 0 1-3.196 1.564 12.906 12.906 0 0 1-3.704.528c-1.87 0-3.528-.306-4.968-.92-1.442-.612-2.66-1.472-3.656-2.576-.996-1.102-1.748-2.422-2.254-3.956-.506-1.534-.76-3.218-.76-5.058 0-1.688.27-3.29.804-4.81.538-1.516 1.304-2.85 2.302-4.002.996-1.148 2.2-2.06 3.61-2.736 1.41-.674 3.006-1.012 4.784-1.012 1.87 0 3.55.392 5.036 1.172 1.488.784 2.724 1.818 3.704 3.106.982 1.288 1.696 2.768 2.138 4.44.446 1.672.56 3.396.346 5.176h-17.48zm12.236-3.452a8.468 8.468 0 0 0-.53-2.392 6.354 6.354 0 0 0-1.194-2 5.977 5.977 0 0 0-1.84-1.382c-.722-.352-1.526-.526-2.416-.526-.92 0-1.756.16-2.506.482a5.74 5.74 0 0 0-1.932 1.334 6.627 6.627 0 0 0-1.29 2 6.978 6.978 0 0 0-.528 2.484h12.236zM-157.931 165.487l-8.234-11.269h6.348l4.968 7.312 5.198-7.312h6.07l-8.094 10.994 9.106 12.788h-6.3l-6.026-8.786-5.842 8.786h-6.164zM-133.232 167.467c0 .92.13 1.808.39 2.668a6.63 6.63 0 0 0 1.174 2.254 5.659 5.659 0 0 0 1.978 1.54c.798.382 1.748.574 2.852.574 1.534 0 2.768-.328 3.704-.988.934-.66 1.632-1.648 2.094-2.966h4.966c-.276 1.286-.752 2.436-1.426 3.448a9.96 9.96 0 0 1-2.438 2.554 10.548 10.548 0 0 1-3.196 1.564 12.906 12.906 0 0 1-3.704.528c-1.87 0-3.528-.306-4.968-.92-1.442-.612-2.66-1.472-3.656-2.576-.996-1.102-1.748-2.422-2.254-3.956-.506-1.534-.76-3.218-.76-5.058 0-1.688.27-3.29.804-4.81.538-1.516 1.304-2.85 2.302-4.002.996-1.148 2.2-2.06 3.61-2.736 1.41-.674 3.006-1.012 4.784-1.012 1.87 0 3.55.392 5.036 1.172 1.488.784 2.724 1.818 3.704 3.106.982 1.288 1.696 2.768 2.138 4.44.446 1.672.56 3.396.346 5.176h-17.48zm12.236-3.452a8.468 8.468 0 0 0-.53-2.392 6.354 6.354 0 0 0-1.194-2 5.977 5.977 0 0 0-1.84-1.382c-.722-.352-1.526-.526-2.416-.526-.92 0-1.756.16-2.506.482a5.74 5.74 0 0 0-1.932 1.334 6.627 6.627 0 0 0-1.29 2 6.978 6.978 0 0 0-.528 2.484h12.236z"/></g><path fill="none" d="M-571.565 13.295h42.958v42.997h-42.958z"/><path fill="none" d="M-571.565 13.295h42.958v42.997h-42.958z"/><path fill="#29D3B2" d="M-634.923 62.391h60.891v11.378h-23.915v63.84h-13.168v-63.84h-23.808z"/><path fill="#FFF" d="M-1194.122 316.585v142.084c0 4.624-3.75 8.332-8.334 8.332h-158.331a8.304 8.304 0 0 1-8.334-8.332V275.335c0-4.584 3.708-8.334 8.334-8.334h117.124l49.541 49.584zM-726.651 604.229v142.084c0 4.624-3.75 8.332-8.334 8.332h-158.332a8.304 8.304 0 0 1-8.334-8.332V562.979c0-4.584 3.708-8.334 8.334-8.334h117.124l49.542 49.584zM-504.734 603.864v142.084c0 4.624-3.75 8.332-8.334 8.332H-671.4a8.304 8.304 0 0 1-8.334-8.332V562.614c0-4.584 3.708-8.334 8.334-8.334h117.124l49.542 49.584zM-978.3 1379.174v142.084c0 4.624-3.75 8.332-8.334 8.332h-158.332a8.304 8.304 0 0 1-8.334-8.332v-183.334c0-4.584 3.708-8.334 8.334-8.334h117.124l49.542 49.584z"/><path fill="none" d="M-1243.664 267h49.54v49.58h-49.54z"/><path fill="none" d="M-1243.664 267h49.542v49.58h-49.542z"/><g fill="#F57C00"><path d="M-1235.261 339.894l-33.73 33.73 3.75 4.19 28.87-28.868zM-1296.611 363.73c-23.634 23.634-31.372 45.44-31.372 45.44s21.806-7.738 45.44-31.372l4.072-4.074-14.068-14.066-4.072 4.072zM-1273.688 368.924l-14.068-14.068 38.406-38.405 14.068 14.068zM-1327.983 413.377h92.708v6.274h-92.708z"/></g><path fill="#FFF" d="M-959.455 316.611v142.084c0 4.624-3.75 8.332-8.334 8.332h-158.332a8.304 8.304 0 0 1-8.334-8.332V275.361c0-4.584 3.708-8.334 8.334-8.334h117.124l49.542 49.584z"/><path fill="#FFF" d="M-959.455 316.611v142.084c0 4.624-3.75 8.332-8.334 8.332h-158.332a8.304 8.304 0 0 1-8.334-8.332V275.361c0-4.584 3.708-8.334 8.334-8.334h117.124l49.542 49.584z"/><path fill="none" d="M-1008.997 267.025h49.542v49.58h-49.542z"/><path fill="none" d="M-1008.997 267.025h49.542v49.58h-49.542z"/><g fill="#62BB37"><path d="M-1094.956 359.395h22.914v41.894h-22.914zM-1058.412 319.737h22.914v81.552h-22.914zM-1021.868 343.701h22.914v57.588h-22.914zM-1094.956 412.527h96.002v6.2h-96.002z"/></g><path fill="#FFF" d="M-726.078 316.615v142.08c0 4.624-3.75 8.332-8.334 8.332h-158.327a8.304 8.304 0 0 1-8.334-8.332V275.367c0-4.584 3.708-8.334 8.334-8.334h117.12l49.541 49.582z"/><path fill="none" d="M-775.618 266.908h49.54v49.579h-49.54z"/><g fill="#448AFF"><path d="M-858.939 372.705v-41.731c0-4.466 3.654-8.12 8.12-8.12h74.488c4.466 0 8.12 3.654 8.12 8.12v41.731M-858.939 380.088h90.727v8.12h-90.727zM-835.26 413.441h43.367v8.12h-43.367z"/><path d="M-817.636 382.954h8.12v34.549h-8.12z"/></g><path fill="none" d="M-559.115 279.781h43.225v43.259h-43.225z"/><path fill="none" d="M-559.115 279.781h43.225v43.259h-43.225z"/><path fill="#FFF" d="M-504.734 316.611v142.084c0 4.624-3.75 8.332-8.334 8.332H-671.4a8.304 8.304 0 0 1-8.334-8.332V275.361c0-4.584 3.708-8.334 8.334-8.334h117.124l49.542 49.584z"/><g fill="#718BC8"><path d="M-592.234 296.519c-27.614 0-50 22.386-50 50s22.386 50 50 50 50-22.386 50-50-22.386-50-50-50zm-.001 64.584c-8.054 0-14.582-6.53-14.582-14.584 0-8.054 6.528-14.584 14.582-14.584 8.054 0 14.584 6.53 14.584 14.584 0 8.054-6.53 14.584-14.584 14.584zM-615.302 438.732h-4.702v-3.046h-.086c-.668 1.306-1.64 2.242-2.916 2.806a9.85 9.85 0 0 1-4.048.85c-1.77 0-3.316-.312-4.634-.936-1.322-.624-2.418-1.472-3.288-2.546-.872-1.072-1.524-2.342-1.958-3.808-.436-1.466-.654-3.04-.654-4.724 0-2.028.276-3.786.828-5.264.55-1.482 1.284-2.7 2.198-3.658.914-.958 1.958-1.66 3.134-2.11a9.96 9.96 0 0 1 3.59-.676c.698 0 1.406.066 2.134.196a9.66 9.66 0 0 1 2.09.63 8.33 8.33 0 0 1 1.848 1.112 6.16 6.16 0 0 1 1.416 1.588h.086v-11.49h4.962v31.076zm-17.324-11.012c0 .958.124 1.902.37 2.83a7.78 7.78 0 0 0 1.132 2.482 5.727 5.727 0 0 0 1.938 1.74c.782.434 1.71.652 2.784.652 1.104 0 2.054-.23 2.852-.696a5.892 5.892 0 0 0 1.958-1.828 8.278 8.278 0 0 0 1.132-2.546c.246-.942.37-1.908.37-2.894 0-2.496-.558-4.44-1.676-5.834-1.116-1.392-2.632-2.088-4.548-2.088-1.162 0-2.14.24-2.938.718a5.983 5.983 0 0 0-1.958 1.872 7.755 7.755 0 0 0-1.088 2.612 13.58 13.58 0 0 0-.328 2.98M-607.728 416.231h4.702v3.132h.128c.378-.55.784-1.058 1.22-1.522.434-.464.92-.856 1.458-1.176a7.466 7.466 0 0 1 1.85-.762c.698-.188 1.494-.282 2.394-.282 1.364 0 2.634.306 3.808.914 1.176.608 2.01 1.554 2.504 2.828.84-1.158 1.812-2.074 2.916-2.74 1.102-.668 2.482-1.002 4.136-1.002 2.378 0 4.228.58 5.55 1.74 1.318 1.162 1.978 3.106 1.978 5.834v15.538h-4.962v-13.146c0-.898-.03-1.718-.086-2.458-.06-.74-.226-1.378-.502-1.916a2.836 2.836 0 0 0-1.24-1.24c-.55-.29-1.306-.434-2.264-.434-1.68 0-2.9.522-3.654 1.566-.756 1.046-1.132 2.524-1.132 4.44v13.188h-4.962v-14.45c0-1.568-.282-2.75-.85-3.548-.566-.796-1.602-1.196-3.112-1.196a4.54 4.54 0 0 0-1.85.392 4.595 4.595 0 0 0-1.566 1.13c-.45.494-.812 1.104-1.088 1.828-.278.728-.414 1.554-.414 2.482v13.362h-4.962v-22.502zM-546.881 437.557c0 3.396-.95 5.928-2.85 7.596-1.9 1.67-4.636 2.502-8.204 2.502-1.134 0-2.272-.116-3.418-.346a10.209 10.209 0 0 1-3.134-1.176 7.541 7.541 0 0 1-2.37-2.178c-.64-.9-1.018-2-1.134-3.308h4.962c.146.698.392 1.262.742 1.7.346.434.76.776 1.24 1.02a4.658 4.658 0 0 0 1.586.48c.582.072 1.192.108 1.83.108 2.002 0 3.468-.492 4.396-1.48.928-.984 1.392-2.408 1.392-4.266v-3.436h-.086c-.696 1.246-1.646 2.22-2.852 2.916a7.647 7.647 0 0 1-3.896 1.044c-1.798 0-3.328-.312-4.59-.936a8.733 8.733 0 0 1-3.134-2.568c-.828-1.088-1.43-2.344-1.808-3.764-.376-1.422-.566-2.946-.566-4.57 0-1.508.234-2.946.698-4.31s1.132-2.56 2.002-3.592a9.628 9.628 0 0 1 3.2-2.46c1.262-.608 2.69-.912 4.286-.912 1.422 0 2.728.298 3.918.892 1.19.596 2.102 1.53 2.742 2.808h.086v-3.09h4.962v21.326zm-11.012-2.742c1.104 0 2.038-.224 2.808-.674a5.532 5.532 0 0 0 1.872-1.784 7.844 7.844 0 0 0 1.044-2.524c.218-.942.326-1.894.326-2.852s-.116-1.886-.346-2.786c-.234-.9-.588-1.698-1.068-2.394a5.142 5.142 0 0 0-1.872-1.654c-.768-.404-1.69-.608-2.764-.608-1.104 0-2.032.23-2.786.694a5.575 5.575 0 0 0-1.826 1.808 7.74 7.74 0 0 0-1.002 2.524 13.25 13.25 0 0 0-.306 2.808c0 .93.118 1.834.35 2.72.23.886.588 1.676 1.066 2.374a5.669 5.669 0 0 0 1.828 1.696c.74.436 1.632.652 2.676.652"/></g><path fill="#FFF" d="M-291.989 604.47v142.084c0 4.624-3.75 8.332-8.334 8.332h-158.332a8.304 8.304 0 0 1-8.334-8.332V563.22c0-4.584 3.708-8.334 8.334-8.334h117.124l49.542 49.584z"/><path fill="#D32F2F" d="M-385.493 626.869c.801 0 .801 0 0 0 .801-3.203 1.603-4.804 1.603-7.206v-1.601c.799-4.002.799-7.205 0-8.005v-.801l-.801-.801s0 .801-.801.801c-1.602 4.804-1.602 10.407-.001 17.613m-24.015 55.235c-1.603.799-3.203 1.6-4.002 2.4-5.605 4.804-9.608 10.409-10.407 12.811 4.802-.802 9.606-5.605 14.409-15.211.8 0 .8 0 0 0 .8 0 0 0 0 0m73.648-12.009c-.799-.799-4.002-3.201-15.21-3.201h-1.601v.801c5.603 2.4 11.208 4.002 15.21 4.002H-335.06v-.801c.001.001-.8.001-.8-.801m3.203 6.405c-1.603.801-4.002 1.603-7.206 1.603-6.404 0-16.012-1.603-24.016-5.605-13.608 1.6-24.014 3.203-32.021 6.404-.799 0-.799 0-1.601.801-9.605 16.811-17.612 24.815-24.016 24.815-1.6 0-2.399 0-3.201-.799l-4.002-2.402v-.801c-.801-1.6-.801-2.402-.801-4.002.801-4.002 5.605-11.208 15.21-16.811 1.6-.801 4.002-2.402 7.205-4.002 2.4-4.002 4.802-8.806 8.005-14.409 4.002-8.007 6.404-16.012 8.804-23.215-3.201-9.607-4.802-15.21-1.599-26.418.799-3.203 3.201-6.404 6.402-6.404h1.603c1.601 0 3.201.801 4.802 1.601 5.605 5.605 3.203 18.411 0 28.818v.801c3.203 8.806 8.007 16.012 12.808 20.813 2.402 1.603 4.003 3.203 7.206 4.804 4.002 0 7.205-.799 10.407-.799 9.607 0 16.012 1.6 18.411 5.603.801 1.601.801 3.201.801 4.804-.801.797-1.601 3.199-3.201 4.8m-52.035-31.22c-1.601 5.603-4.804 12.007-8.005 19.213-1.601 3.203-3.203 5.603-4.804 8.806h1.6c10.407-4.002 20.014-6.404 26.418-7.205-1.601-.799-2.402-1.601-3.203-2.402-4.002-4.803-8.803-11.207-12.006-18.412"/><path fill="none" d="M-344.366 554.883h52.371v52.416h-52.371z"/><path fill="none" d="M-344.366 554.883h52.371v52.418h-52.371z"/><path fill="#FFF" d="M-1194.122 604.639v142.084c0 4.624-3.75 8.332-8.334 8.332h-158.332a8.304 8.304 0 0 1-8.334-8.332V563.389c0-4.584 3.708-8.334 8.334-8.334h117.124l49.542 49.584z"/><g fill="#5465FC"><path d="M-1325.231 621.101c4.52-.822 10.789-1.438 19.313-1.438 9.248 0 16.028 1.952 20.447 5.65 4.109 3.39 6.78 8.835 6.78 15.309 0 6.575-2.054 12.019-5.96 15.717-5.034 5.034-12.944 7.399-21.881 7.399-2.365 0-4.52-.103-6.166-.413v26.097h-12.533v-68.321zm12.533 32.259c1.541.411 3.597.514 6.166.514 9.451 0 15.204-4.623 15.204-12.738 0-7.707-5.342-11.816-14.076-11.816-3.493 0-5.958.308-7.294.616v23.424zM-1271.095 677.81c2.878 1.746 8.323 3.598 12.843 3.598 5.547 0 8.013-2.262 8.013-5.549 0-3.39-2.055-5.136-8.218-7.294-9.759-3.39-13.868-8.732-13.766-14.589 0-8.834 7.294-15.717 18.902-15.717 5.547 0 10.376 1.438 13.254 2.979l-2.465 8.937c-2.157-1.233-6.166-2.876-10.583-2.876-4.52 0-6.985 2.157-6.985 5.239 0 3.187 2.363 4.725 8.732 6.988 9.04 3.287 13.254 7.91 13.357 15.306 0 9.042-7.088 15.617-20.342 15.617-6.061 0-11.508-1.44-15.203-3.495l2.461-9.144z"/></g><path fill="#FFF" d="M-978.564 604.606v142.116c0 4.625-3.73 8.334-8.29 8.334h-157.493c-4.601 0-8.29-3.709-8.29-8.334V563.347c0-4.585 3.688-8.336 8.29-8.336h116.503l49.28 49.595z"/><path fill="none" d="M-1029.288 555.011h52.115v52.136h-52.115z"/><g fill="#F57C00"><path d="M-1087.657 670.581l-5.855 19.283h-12.823l21.809-68.045h15.851l22.108 68.045h-13.325l-6.158-19.283h-21.607zm19.485-9.388l-5.35-16.76c-1.312-4.139-2.423-8.785-3.432-12.721h-.202c-1.01 3.937-2.019 8.684-3.232 12.721l-5.249 16.76h17.465zM-1024.866 626.968c0 3.735-2.726 6.663-7.066 6.663-4.141 0-6.867-2.927-6.867-6.663 0-3.836 2.829-6.766 6.965-6.766 4.243 0 6.867 2.93 6.968 6.766m-13.226 13.731h12.52v49.166h-12.52v-49.166z"/></g><path fill="none" d="M-557.479 555.06h52.619v52.641h-52.619z"/><path fill="none" d="M-557.479 555.06h52.619v52.641h-52.619z"/><g fill="#C11187"><path d="M-628.521 621.201h12.537v68.704h-12.537zM-556.357 617.532v58.41c0 5.094.206 10.6.41 13.964h-11.214l-.51-7.848h-.204c-2.956 5.502-8.969 8.969-16.206 8.969-11.826 0-21.205-10.093-21.205-25.382-.102-16.616 10.297-26.503 22.224-26.503 6.829 0 11.724 2.854 13.964 6.523h.204v-28.134h12.537zm-12.536 43.425c0-1.019-.102-2.244-.306-3.264-1.121-4.892-5.096-8.867-10.804-8.867-8.052 0-12.539 7.135-12.539 16.412 0 9.071 4.487 15.697 12.437 15.697 5.096 0 9.581-3.466 10.806-8.867.304-1.121.406-2.344.406-3.669v-7.442z"/></g><path fill="none" d="M-778.759 554.081h52.684v52.705h-52.684z"/><path fill="none" d="M-778.759 554.081h52.684v52.705h-52.684z"/><path fill="#FFF" d="M-291.989 862.665v142.084c0 4.624-3.75 8.332-8.334 8.332h-158.332a8.304 8.304 0 0 1-8.334-8.332V821.415c0-4.584 3.708-8.334 8.334-8.334h117.124l49.542 49.584z"/><path fill="none" d="M-344.597 811.693h53.012v53.057h-53.012z"/><path fill="none" d="M-344.597 811.693h53.012v53.059h-53.012z"/><path fill="#FFF" d="M-978.271 862.539v142.084c0 4.624-3.75 8.332-8.334 8.332h-158.332a8.304 8.304 0 0 1-8.334-8.332V821.289c0-4.584 3.708-8.334 8.334-8.334h117.124l49.542 49.584z"/><path fill="none" d="M-1029.966 813.081h52.827v52.869h-52.827z"/><path fill="none" d="M-1029.966 813.082h52.827v52.869h-52.827z"/><path fill="#A0F" d="M-1022.664 879.023h-86.212l-15.078 33.375 58.184 67.039 58.182-67.039-15.076-33.375zm-3.967 7.386l8.831 22.02h-15.872l7.041-22.02zm-7.526-.352l-6.443 20.664-16.104-20.664h22.547zm-15.006 22.372h-33.216l16.609-21.129 16.607 21.129zm-25.675-22.372l-16.102 20.664-6.445-20.664h22.547zm-30.073.352l7.04 22.02h-15.872l8.832-22.02zm-7.073 29.052h17.196l17.545 40.028-34.741-40.028zm24.874 0h42.678l-21.338 48.681-21.34-48.681zm32.809 40.03l17.546-40.028h17.196l-34.742 40.028z"/><path fill="#FFF" d="M-726.198 862.665v142.084c0 4.624-3.75 8.332-8.334 8.332h-158.332a8.304 8.304 0 0 1-8.334-8.332V821.415c0-4.584 3.708-8.334 8.334-8.334h117.124l49.542 49.584z"/><path fill="none" d="M-778.5 813.085h52.669v53.055H-778.5z"/><path fill="none" d="M-778.5 813.085h52.669v53.055H-778.5z"/><path fill="#D32F2F" d="M-761.082 893.096c.616.159 1.247.265 1.845.482 1.838.668 2.44 2.202 2.397 4.135-.06 2.684-.244 5.342-.995 7.959-1.391 4.839-4.381 8.049-8.717 9.954-3.054 1.342-6.269 1.83-9.505 2.209-2.232.259-4.46.569-6.688.873-.298.041-.597.158-.875.289-1.19.552-1.5 1.635-.619 2.6.91.995 1.922 1.905 2.981 2.72 3.993 3.067 8.1 5.978 12.021 9.143 4.432 3.576 8.317 7.756 11.27 12.828 2.9 4.982 4.37 10.412 4.176 16.357-.051 1.569-.768 2.474-2.245 2.549-2.296.113-4.595.13-6.891.152-2.853.026-5.704.015-8.556.021-2.906.004-5.815.002-8.723.013-2.076.007-4.154.034-6.23.037a20.16 20.16 0 0 1-1.823-.077c-2.592-.227-3.552-1.233-3.814-3.983-.372-3.897-.965-7.726-2.453-11.328-2.5-6.059-6.559-10.617-11.805-14.048-4.531-2.962-9.457-4.82-14.81-5.289-5.277-.464-10.189.589-14.134 4.867-2.384 2.585-3.698 5.774-4.618 9.171-.417 1.537-.781 3.09-1.239 4.612-.522 1.729-1.926 2.084-3.347 2.134-3.101.105-6.202.105-9.303.133-2.853.026-5.704.03-8.556.045-2.63.015-5.263.056-7.891.032-.687-.007-1.376-.163-2.046-.328-.995-.242-1.397-.828-1.342-1.894.349-6.48 2.915-11.758 7.833-15.764 4.054-3.3 8.664-5.355 13.502-6.756 4.59-1.331 9.25-2.369 13.872-3.57 1.297-.336 2.598-.698 3.844-1.207 1.993-.815 2.318-2.151.745-3.617-1.509-1.411-3.197-2.637-4.918-3.754-4.629-3.005-9.402-5.774-13.614-9.438-4.321-3.76-7.938-8.1-9.909-13.795-1.036-2.996-1.468-6.11-1.462-9.312 0-1.228.593-2.181 1.896-2.489a23.27 23.27 0 0 1 4.687-.61c3.544-.096 7.088-.056 10.632-.062 2.853-.004 5.706.011 8.556.009 2.106 0 4.21-.021 6.316-.017.967.002 1.935.049 2.904.071 1.631.037 2.337.578 2.65 2.277.37 2.01.621 4.045.942 6.067 1.147 7.249 3.863 13.579 9.318 18.273 3.752 3.23 8.126 4.732 12.971 4.942 2.534.109 5.047.073 7.495-.798 3.773-1.342 5.605-4.357 5.252-8.529a260.381 260.381 0 0 1-.407-5.793c-.079-1.314.332-2.108 1.562-2.348 1.543-.302 3.133-.405 4.7-.428 3.129-.045 6.258.032 9.387.047 2.851.011 5.704-.011 8.554.013 1.742.013 3.482.079 5.224.122.001.03.003.064.003.098"/><path fill="#FFF" d="M-504.691 862.665v142.084c0 4.624-3.754 8.332-8.342 8.332h-158.488a8.308 8.308 0 0 1-8.342-8.332V821.415a8.335 8.335 0 0 1 8.342-8.334h117.239l49.591 49.584z"/><path fill="none" d="M-556.182 813.089h52.274v52.316h-52.274z"/><path fill="none" d="M-556.182 813.089h52.274v52.316h-52.274z"/><path fill="#FFF" d="M-1194.855 863.148v142.084c0 4.624-3.75 8.332-8.334 8.332h-158.332a8.304 8.304 0 0 1-8.334-8.332V821.898c0-4.584 3.708-8.334 8.334-8.334h117.124l49.542 49.584z"/><path fill="none" d="M-1246.613 812.955h52.689v52.731h-52.689z"/><g fill="#A0F"><path d="M-1334.531 880.326c4.697-.817 11.742-1.429 18.991-1.429 9.906 0 16.645 1.634 21.242 5.514 3.775 3.165 5.922 7.964 5.922 13.786 0 8.883-6.026 14.907-12.458 17.255v.308c4.901 1.836 7.864 6.635 9.597 13.273 2.146 8.576 3.982 16.543 5.414 19.197h-12.969c-1.021-2.042-2.655-7.66-4.595-16.236-1.94-8.987-5.207-11.844-12.354-12.048h-6.332v28.284h-12.457v-67.904zm12.457 30.429h7.455c8.474 0 13.784-4.492 13.784-11.333 0-7.556-5.31-11.029-13.48-11.029-3.982 0-6.535.306-7.76.613v21.749zM-1276.436 880.326c4.493-.817 10.721-1.429 19.195-1.429 9.191 0 15.93 1.94 20.323 5.616 4.084 3.369 6.739 8.781 6.739 15.215 0 6.535-2.042 11.946-5.924 15.622-5.003 5.003-12.865 7.354-21.748 7.354-2.351 0-4.493-.102-6.128-.411v25.938h-12.457v-67.905zm12.457 32.062c1.534.408 3.576.511 6.128.511 9.393 0 15.111-4.595 15.111-12.661 0-7.66-5.31-11.744-13.99-11.744-3.472 0-5.922.306-7.249.613v23.281z"/></g><path fill="#FFF" d="M-1194.305 1120.794v142.084c0 4.624-3.75 8.332-8.334 8.332h-158.332a8.304 8.304 0 0 1-8.334-8.332v-183.334c0-4.584 3.708-8.334 8.334-8.334h117.124l49.542 49.584z"/><path fill="none" d="M-1246.083 1071.011h52.901v52.944h-52.901z"/><path fill="none" d="M-1246.083 1071.011h52.901v52.944h-52.901z"/><g fill="#7757BC"><path d="M-1317.398 1185.248l-5.775 19.018h-12.646l21.509-67.11h15.633l21.805 67.11h-13.145l-6.072-19.018h-21.309zm19.217-9.258l-5.277-16.53c-1.294-4.081-2.39-8.662-3.385-12.545h-.199c-.995 3.883-1.993 8.564-3.187 12.545l-5.179 16.53h17.227zM-1260.649 1183.456c.299 8.763 7.169 12.547 14.935 12.547 5.677 0 9.76-.797 13.442-2.191l1.792 8.464c-4.18 1.694-9.955 2.988-16.926 2.988-15.731 0-24.992-9.66-24.992-24.497 0-13.44 8.165-26.085 23.698-26.085 15.731 0 20.908 12.944 20.908 23.597 0 2.292-.199 4.083-.397 5.177h-32.46zm21.308-8.562c.102-4.48-1.893-11.849-10.055-11.849-7.567 0-10.753 6.871-11.253 11.849h21.308z"/></g><path fill="#FFF" d="M-978.675 1120.301v142.084c0 4.624-3.75 8.332-8.334 8.332h-158.332a8.304 8.304 0 0 1-8.334-8.332v-183.334c0-4.584 3.708-8.334 8.334-8.334h117.124l49.542 49.584z"/><path fill="none" d="M-1030.752 1070.107h52.689v52.731h-52.689z"/><path fill="none" d="M-1030.752 1070.107h52.689v52.731h-52.689z"/><g fill="#009497"><path d="M-1066.175 1118.31l34.938 43.478v61.335h23.291v-73.757zM-1124.405 1223.123h23.292v-61.335l34.938-43.478-58.23 31.056zM-1066.175 1220.018l24.068-26.115-24.068-75.593-24.845 75.593z"/></g><path fill="#FFF" d="M-1194.122 1378.624v142.084a8.323 8.323 0 0 1-8.318 8.332h-158.032a8.296 8.296 0 0 1-8.318-8.332v-183.334c0-4.584 3.701-8.334 8.318-8.334h116.902l49.448 49.584z"/><path fill="none" d="M-1241.984 1328.276h52.607v52.649h-52.607z"/><path fill="none" d="M-1241.984 1328.277h52.607v52.649h-52.607z"/><g fill="#D32F2F"><path d="M-1259.843 1456.916h-44.897v-44.895h44.897v44.895zm8.495-53.39h-61.888v61.886h61.888v-61.886z"/><path d="M-1290.334 1426.424h16.088v16.088h-16.088zM-1287.524 1374.48h10.466v31.061h-10.466zM-1287.524 1463.236h10.466v31.22h-10.466zM-1254.327 1429.234h32.025v10.466h-32.025zM-1342.278 1429.234h31.318v10.466h-31.318z"/></g><path fill="#FFF" d="M-505.401 1378.717v142.084c0 4.624-3.75 8.332-8.334 8.332h-158.332a8.304 8.304 0 0 1-8.334-8.332v-183.334c0-4.584 3.708-8.334 8.334-8.334h117.124l49.542 49.584z"/><path fill="none" d="M-552.301 1327.047h52.608v52.652h-52.608z"/><path fill="none" d="M-552.301 1327.047h52.608v52.654h-52.608z"/><path fill="#03A9F4" d="M-592.901 1493.122l-52.565-29.407v-57.361l52.565-24.505 52.565 24.505v57.361l-52.565 29.407zm-43.008-35.012l43.008 24.061 43.008-24.061v-45.667l-43.008-20.049-43.008 20.049v45.667z"/><path fill="#03A9F4" d="M-592.631 1441.068l-50.097-28.026 4.666-8.343 45.476 25.442 45.467-24.932 4.595 8.38z"/><path fill="#03A9F4" d="M-592.608 1492.426a4.78 4.78 0 0 1-4.779-4.779v-52.042a4.78 4.78 0 0 1 9.558 0v52.042a4.78 4.78 0 0 1-4.779 4.779"/><path fill="#FFF" d="M-738.616 1378.479v142.084c0 4.624-3.75 8.332-8.334 8.332h-158.332a8.304 8.304 0 0 1-8.334-8.332v-183.334c0-4.584 3.708-8.334 8.334-8.334h117.124l49.542 49.584z"/><path fill="none" d="M-789.595 1329.137h52.607v52.65h-52.607z"/><path fill="none" d="M-789.595 1329.137h52.607v52.65h-52.607z"/><path fill="#546E7A" d="M-769.887 1439.358c-.701-7.922-2.379-14.038-5.31-19.242-3.059-5.437-6.966-9.239-11.915-11.681-4.736-2.315-10.024-3.759-17.182-4.672-6.605-.85-13.571-1.083-22.279-.701-3.377.149-7.327.361-11.129.977-3.971.616-6.839 1.338-9.345 2.358-5.31 2.188-9.515 6.329-12.871 12.7-1.954 3.695-3.101 8.092-3.525 13.423-.616 7.858-.234 13.784 1.21 19.221.807 2.995 1.976 5.331 3.568 7.136 3.844 4.333 8.941 7.179 16.502 9.239 2.633.722 5.373 1.104 7.731 1.38 6.605.807 12.021.489 17.118-1.019 5.67-1.678 10.831-4.141 15.377-7.349 2.315-1.635 4.502-3.632 6.499-5.543.658-.637.786-.807-.043-1.89-2.379-3.122-5.628-5.734-9.919-8.049-2.888-1.529-5.756-2.209-8.878-2.06-4.29.191-8.283.255-12.233.149-2.804-.064-5.5-.127-7.986-.956-3.334-1.104-6.499-2.803-9.536-4.46-1.954-1.041-3.483-2.379-4.757-3.568-.51-.467-1.168-1.211-1.126-2.166.042-.977.786-1.678 1.423-2.166a53.465 53.465 0 0 1 3.462-2.443l2.06-1.359c2.591-1.678 5.246-3.398 7.964-5.012l.701-.404c2.273-1.359 4.63-2.761 7.2-3.547 3.738-1.147 7.625-1.296 10.598-1.296.744 0 1.466 0 2.209.021 5.076.106 9.642.956 13.911 2.591 3.653 1.402 6.754 3.377 9.218 5.862 4.821 4.842 7.539 11.235 8.283 19.603.531 5.734.276 11.426-.744 16.863-.425 2.251-1.21 4.481-1.996 6.584-1.147 3.122-3.568 5.203-5.755 6.924-1.635 1.296-3.228 2.209-4.757 2.761-3.122 1.104-5.947 1.869-8.665 2.379l-.701.127c-4.418.828-8.984 1.678-13.55 1.996-4.418.276-9.133.403-15.228.403-1.529 0-3.037 0-4.567-.021-8.219-.064-14.76-1.126-20.559-3.356-3.971-1.508-7.178-3.908-9.579-7.136-2.782-3.759-4.63-8.326-5.479-13.593-1.232-7.688-1.954-13.614-2.379-19.221-.659-8.58.149-16.608 2.421-23.829.786-2.548 1.976-5.097 3.505-7.561 1.784-2.846 4.333-5.288 7.624-7.242 3.59-2.145 7.667-3.526 13.211-4.46 1.593-.276 3.207-.467 4.821-.658.977-.127 1.954-.234 2.931-.382 1.954-.255 3.908-.552 5.862-.828 3.504-.51 7.009-1.019 10.513-1.465 5.458-.68 10.832-.765 14.909-.765 2.336 0 4.672.021 7.03.064l1.104.021c3.483.042 7.009.212 10.428.361 1.678.085 3.377.17 5.055.234h.425c0-.085 0-.191-.021-.34l-.807-6.52-1.019-8.411-.17-.17c-.361 0-.701.064-1.041.106-1.445.255-2.91.51-4.354.765-3.101.531-6.286 1.104-9.472 1.529-7.731 1.019-14.166 1.848-20.92 2.421l-4.205.34c-7.964.616-16.205 1.274-24.127 2.91-2.782.573-6.01 1.274-9.111 2.251-3.122.977-6.159 2.23-8.729 3.335-3.143 1.359-5.862 3.292-8.092 5.755-4.184 4.63-7.072 10.386-9.111 18.116-1.444 5.543-2.145 11.639-2.251 19.73-.085 8.814.998 17.713 3.334 27.164 1.933 7.794 4.269 13.826 7.348 19.051 2.209 3.717 4.758 6.456 7.774 8.368 3.95 2.527 7.455 4.035 11.023 4.779l2.442.531c3.144.68 6.393 1.402 9.578 1.699 4.503.403 9.111.595 13.572.765l4.672.191.021-.319h1.019c1.274 0 2.548.021 3.823.042 2.761.021 5.522.064 8.283-.085 7.646-.425 15.717-1.083 23.277-3.865 2.507-.934 5.14-1.996 7.285-3.504 2.74-1.954 5.288-4.333 7.752-6.626l.595-.573c5.097-4.758 8.028-10.747 8.665-17.755.766-8.37.787-16.759.087-24.957m-58.915 21.875c.042-.467.106-.934.212-1.38.616-2.549 1.232-5.119 1.912-7.646.212-.807.573-2.166 2.103-2.166.318 0 .658.064 1.232.191 4.567 1.126 9.154 2.251 13.741 3.419.383.085.722.255 1.019.404l1.02.467-.149 1.805-5.352 1.911c-4.184 1.465-8.347 2.91-12.531 4.354-.51.17-1.019.234-1.487.297-.191.021-.361.042-.552.064l-1.402.234.234-1.954z"/><path fill="#546E7A" d="M-818.799 1425.51c-.446 1.147-.914 2.294-1.36 3.441a334.82 334.82 0 0 0-1.954 4.948c-.085.212-.106.234-.744.34a.774.774 0 0 1-.233.042l-1.954-.404c-1.741-.361-3.462-.722-5.182-1.147-1.104-.255-2.188-.616-3.207-.977.807-.319 1.614-.637 2.421-.977 1.699-.68 3.377-1.359 5.076-2.082a190.229 190.229 0 0 0 4.269-1.911c.935-.424 1.869-.848 2.868-1.273"/><path fill="none" d="M-1028.178 1328.281h52.891v52.933h-52.891z"/><path fill="none" d="M-1028.178 1328.281h52.891v52.933h-52.891z"/><path fill="none" stroke="#009497" stroke-width="4" stroke-miterlimit="10" d="M-1116.258 1389.619h95.111v95.111h-95.111z"/><path fill="#009497" d="M-1074.425 1389.619h53.279v53.279h-53.279z"/><path fill="#FFED18" d="M194.12 1922.071h-78.749l-17.226-17.45H37.08a8.735 8.735 0 0 0-8.735 8.736v129.312c0 4.799 3.926 8.725 8.725 8.725h157.05c4.799 0 8.725-3.926 8.725-8.725v-111.872c0-4.8-3.927-8.726-8.725-8.726"/><path fill="#FDCA07" d="M202.845 2042.667c0 4.799-3.926 8.725-8.725 8.725H37.07c-4.799 0-8.725-3.926-8.725-8.725v-93.715c0-4.799 3.926-8.725 8.725-8.725h157.05c4.799 0 8.725 3.926 8.725 8.725v93.715z"/><g font-family="'MicrosoftYaHei'" font-size="40"><text transform="translate(-1535.151 354.197)">M</text><text transform="translate(-1496.07 354.197)">A</text><text transform="translate(-1468.47 354.197)">C</text></g><text transform="translate(-1520.27 103.49)" font-family="'MicrosoftYaHei'" font-size="40">WIN</text><text transform="translate(-1644.071 632.054)" font-family="'MicrosoftYaHei'" font-size="40">图形／印刷</text><text transform="translate(-1724.072 922.573)" font-family="'MicrosoftYaHei'" font-size="40">产品／思维导图</text><text transform="translate(-1644.071 1180.598)" font-family="'MicrosoftYaHei'" font-size="40">影视／广告</text><text transform="translate(-1524.071 1714.652)" font-family="'MicrosoftYaHei'" font-size="40">代码</text><text transform="translate(-1524.071 2011.682)" font-family="'MicrosoftYaHei'" font-size="40">通用</text><text transform="translate(-1644.071 1406.132)" font-family="'MicrosoftYaHei'" font-size="40">工业／建筑</text><path fill="#B5D1FD" d="M-1194.039 49.251l-42.456.386c-4.005 0-7.252-3.829-7.252-8.552V-.331"/><path fill="#C1E3B1" d="M-959.372 49.388l-42.456.386c-4.005 0-7.252-3.829-7.252-8.552V-.195M-959.372 316.296l-42.456.386c-4.005 0-7.252-3.829-7.252-8.552v-41.417"/><path fill="#FACA97" d="M-737.383 49.251l-42.456.386c-4.005 0-7.252-3.829-7.252-8.552V-.331M-1194.554 316.296l-42.456.386c-4.005 0-7.252-3.829-7.252-8.552v-41.417"/><path fill="#BBC2FC" d="M-1194.122 604.588l-42.456.386c-4.005 0-7.252-3.829-7.252-8.552v-41.417"/><path fill="#FACA9C" d="M-978.376 604.638l-42.456.386c-4.005 0-7.252-3.829-7.252-8.552v-41.417M-726.075 603.638l-42.456.386c-4.005 0-7.252-3.829-7.252-8.552v-41.417"/><path fill="#E5A1CE" d="M-504.734 604.638l-42.456.386c-4.005 0-7.252-3.829-7.252-8.552v-41.417"/><path fill="#DC9CFD" d="M-978.376 862.664l-42.456.386c-4.005 0-7.252-3.829-7.252-8.552v-41.417M-1194.122 862.664l-42.456.386c-4.005 0-7.252-3.829-7.252-8.552v-41.417"/><path fill="#C9BDEC" d="M-1194.122 1120.69l-42.456.386c-4.005 0-7.252-3.829-7.252-8.552v-41.417"/><path fill="#9BD4DC" d="M-978.1 1120.69l-42.456.386c-4.005 0-7.252-3.829-7.252-8.552v-41.417M-978.1 1378.623l-42.456.386c-4.005 0-7.252-3.829-7.252-8.552v-41.417"/><path fill="#BBC5CA" d="M-738.437 1378.623l-42.456.386c-4.005 0-7.252-3.829-7.252-8.552v-41.417"/><path fill="#9CDDF9" d="M-505.191 1378.716l-42.456.386c-4.005 0-7.252-3.829-7.252-8.552v-41.417"/><path fill="#E5A1CE" d="M-291.989 862.664l-42.456.386c-4.005 0-7.252-3.829-7.252-8.552v-41.417"/><path fill="#ECACAD" d="M-291.989 604.638l-42.456.386c-4.005 0-7.252-3.829-7.252-8.552v-41.417M-504.734 862.664l-42.456.386c-4.005 0-7.252-3.829-7.252-8.552v-41.417M-726.075 862.664l-42.456.386c-4.005 0-7.252-3.829-7.252-8.552v-41.417"/><path fill="#ABEDE0" d="M-516.977 49.251l-42.456.386c-4.005 0-7.252-3.829-7.252-8.552V-.331"/><path fill="#B5D1FD" d="M-291.905 49.251l-42.456.386c-4.005 0-7.252-3.829-7.252-8.552V-.331M-725.993 316.296l-42.456.386c-4.005 0-7.252-3.829-7.252-8.552v-41.417"/><path fill="#C6D1E8" d="M-67 49.39l-42.456.386c-4.005 0-7.252-3.829-7.252-8.552V-.193"/><path fill="#FFF" d="M175 49.584v142.084c0 4.624-3.75 8.332-8.334 8.332H8.334A8.304 8.304 0 0 1 0 191.668V8.334C0 3.75 3.708 0 8.334 0h117.124L175 49.584z"/><path fill="#C6D1E8" d="M175 49.39l-42.456.386c-4.005 0-7.252-3.829-7.252-8.552V-.193M-503.752 316.61l-42.456.386c-4.005 0-7.252-3.829-7.252-8.552v-41.417"/><path fill="#F57C00" d="M-767.154 642.123v-5.5h-23.791c7.5 5.298 14.101 13.349 19.571 24.041 7.678 15.011 10.454 29.8 10.566 30.422l-7.866 1.448c-.09-.484-8.178-42.534-33.412-53.021v4.978h-23.735v-4.978c-25.237 10.49-33.324 52.537-33.412 53.021l-7.868-1.448c.114-.622 2.888-15.411 10.568-30.422 5.47-10.691 12.071-18.743 19.571-24.041h-24.187v5.5h-18.999v-18.999h18.999v5.5h35.328v-7.867h23.735v7.867h34.932v-5.5h18.999v18.999h-18.999zm-39.8-16.499h-13.999v13.999h13.999v-13.999z"/><g fill="#C11187"><path d="M-391.199 945.445l-6.76-12.408c-2.686-4.816-4.444-8.15-6.204-11.76h-.278c-1.482 3.61-3.148 6.944-5.648 11.76l-6.206 12.408h-13.056l18.52-31.576-17.78-30.836h13.056l6.762 12.872c2.036 3.888 3.518 6.944 5.186 10.464h.184c1.668-3.89 2.964-6.668 4.908-10.464l6.666-12.872h13.056l-18.24 30.466 18.982 31.946h-13.148zM-329.997 879.699v53.06c0 4.628.186 9.63.37 12.686h-10.186l-.462-7.13h-.184c-2.688 4.998-8.15 8.148-14.724 8.148-10.742 0-19.262-9.168-19.262-23.056-.092-15.094 9.352-24.078 20.188-24.078 6.204 0 10.65 2.594 12.686 5.928h.184v-25.558h11.39zm-11.389 39.448c0-.926-.092-2.038-.276-2.964-1.02-4.444-4.632-8.056-9.818-8.056-7.314 0-11.388 6.482-11.388 14.908 0 8.242 4.074 14.26 11.296 14.26 4.63 0 8.706-3.148 9.816-8.054.278-1.02.37-2.132.37-3.336v-6.758z"/></g><g fill="#D32F2F"><path d="M-582.161 996.17s-.022-23.724 0-30.064c0-.318-.008-.636 0-.952.07-3.12 1.69-4.742 4.84-4.752 6.614-.02 13.226 0 19.84 0 5.562 0 8.37-2.794 8.372-8.35.002-22.692-.008-45.384.008-68.078.002-3.048-1.018-5.546-3.796-6.986-1.046-.542-2.326-.878-3.502-.88a23363.06 23363.06 0 0 0-72.018-.05c-3.896.002-6.908 3.018-7.108 6.962-.046.904-.01 1.812-.01 2.718v66.582c0 5.096 3.012 8.082 8.12 8.08 11.776-.006 35.328-.002 35.328-.002v9.812s-23.946-.008-36.04.008c-2.722.002-5.344-.46-7.734-1.76-5.898-3.212-9.34-8.042-9.346-14.932-.024-23.372.092-46.744-.07-70.114-.05-7.154 5.04-15.584 14.712-17.022a18.82 18.82 0 0 1 2.704-.2c23.916-.024 47.83-.042 71.746-.05 9-.004 16.8 7.706 16.812 16.718.034 23.462.034 46.924.006 70.388-.012 9.346-7.282 17.056-16.64 17.254-4.708.098-9.422.056-14.13.014-1.088-.01-2.122 1.36-2.122 1.36l-9.972 24.296z"/><path d="M-608.522 905.756v2.236c.002 11.594.006 23.186.006 34.778 0 1.808-.004 1.814-1.772 1.814-3.432.004-6.864.002-10.436.002-.036-.67-.09-1.194-.09-1.716-.004-16.03.014-32.062-.03-48.092-.004-1.318.376-1.672 1.672-1.656 5.432.068 10.868.076 16.302-.008 1.324-.02 1.76.446 2.066 1.66 2.618 10.354 5.304 20.69 7.972 31.032.12.466.272.922.734 1.436.158-.416.358-.824.47-1.252 2.75-10.552 5.506-21.1 8.212-31.664.244-.948.66-1.198 1.582-1.194 5.616.016 11.23.01 16.844-.068 1.212-.016 1.53.366 1.528 1.544-.034 16.168-.034 32.334.002 48.5.004 1.182-.31 1.582-1.52 1.548-3.214-.092-6.43-.056-9.644-.082-.398-.004-.792-.07-1.36-.124v-38.544l-.38-.072c-.148.432-.32.86-.442 1.3-3.336 12.034-6.678 24.068-9.978 36.114-.276 1.008-.706 1.394-1.766 1.36-2.398-.074-4.802-.08-7.2-.002-1.094.036-1.586-.296-1.884-1.388-3.3-12.09-6.654-24.168-9.996-36.246-.116-.42-.266-.832-.4-1.248a40.6 40.6 0 0 1-.492.032"/></g><path fill="#ECACAD" d="M-1194.122 1378.623l-42.456.386c-4.005 0-7.252-3.829-7.252-8.552v-41.417"/><path fill="#FFF" d="M-750.078 1672.263v142.935c0 4.661-3.746 8.382-8.332 8.382h-158.339c-4.636 0-8.329-3.72-8.329-8.382v-184.432c0-4.611 3.72-8.384 8.329-8.384h117.105l49.566 49.881z"/><path fill="#62BB37" d="M-864.728 1750.489c0 2.76 1.793 4.609 4.523 4.609h4.523v16.094c0 3.67 3.171 6.901 6.783 6.901 3.613 0 6.784-3.201 6.784-6.901v-16.094h9.074v16.094c0 3.67 3.173 6.901 6.785 6.901 3.611 0 6.785-3.201 6.785-6.901v-16.094h4.523c2.731 0 4.521-1.849 4.521-4.609v-45.99h-54.299v45.99zm-11.336-45.99c-3.641 0-6.784 3.201-6.784 6.901v32.188c0 3.67 3.173 6.901 6.784 6.901 3.612 0 6.785-3.201 6.785-6.901V1711.4c0-3.67-3.173-6.901-6.785-6.901m76.971 0c-3.611 0-6.783 3.201-6.783 6.901v32.188c0 3.67 3.171 6.901 6.783 6.901 3.613 0 6.785-3.201 6.785-6.901V1711.4c.029-3.67-3.143-6.901-6.785-6.901m-22.613-26.665l5.903-5.961c.911-.911.911-2.32 0-3.201-.91-.911-2.232-.911-3.171 0l-6.784 6.901c-3.171-2.292-7.253-3.201-11.776-3.201s-8.575.909-12.245 2.761l-6.344-6.931c-.881-.441-2.732-.441-3.614 0-.441.911-.441 2.76 0 3.672l5.903 5.961c-6.344 5.05-10.865 12.863-10.865 22.053h54.299c.002-9.163-4.55-17.444-11.306-22.054m-24.902 12.891h-4.523v-4.611h4.523v4.611zm22.613 0h-4.523v-4.611h4.523v4.611z"/><path fill="#FFF" d="M-1194.122 1672.697v142.083c0 4.625-3.75 8.333-8.333 8.333h-158.333a8.304 8.304 0 0 1-8.333-8.333v-183.333c0-4.583 3.708-8.333 8.333-8.333h117.125l49.541 49.583z"/><g fill="#29D3B2"><path d="M-1302.664 1683.269h1.562v7.812h-1.562c-5.836-.205-8.545 1.772-8.125 5.938v16.562c0 4.17-1.67 7.397-5 9.688 3.33 2.295 5 5.522 5 9.688v16.562c-.42 3.955 2.289 5.83 8.125 5.625h1.562v7.812h-1.562c-11.875.415-17.607-3.75-17.188-12.5v-16.875c.205-4.165-2.188-6.25-7.188-6.25h-.938v-7.812h.938c5 0 7.393-2.08 7.188-6.25v-16.562c-.419-9.375 5.313-13.853 17.188-13.438zM-1262.455 1683.269h1.562c11.875-.415 17.602 4.062 17.188 13.438v16.562c0 4.17 2.393 6.25 7.188 6.25h1.25v7.812h-1.25c-4.795 0-7.188 2.085-7.188 6.25v16.875c.414 8.54-5.312 12.705-17.188 12.5h-1.562v-7.812h1.562c5.83.205 8.539-1.67 8.125-5.625v-16.562c0-4.165 1.664-7.393 5-9.688-3.336-2.29-5-5.518-5-9.688v-16.562c.414-4.165-2.295-6.143-8.125-5.938h-1.562v-7.812z"/></g><path fill="#FFF" d="M-978.1 1672.565v142.083c0 4.625-3.75 8.333-8.333 8.333h-158.333a8.304 8.304 0 0 1-8.333-8.333v-183.333c0-4.583 3.708-8.333 8.333-8.333h117.125l49.541 49.583z"/><ellipse fill="#29D3B2" cx="-1065.6" cy="1687.044" rx="42.548" ry="12.063"/><path fill="#29D3B2" d="M-1065.6 1723.114c36.612 0 43.5-12.899 43.5-12.899v-17.676s-5.167 12.11-43.5 12.11-43.5-12.11-43.5-12.11v17.676s6.887 12.899 43.5 12.899z"/><path fill="#29D3B2" d="M-1065.6 1747.048c36.612 0 43.5-12.899 43.5-12.899v-17.676s-5.167 12.11-43.5 12.11-43.5-12.11-43.5-12.11v17.676s6.887 12.899 43.5 12.899z"/><path fill="#29D3B2" d="M-1065.6 1770.981c36.612 0 43.5-12.899 43.5-12.899v-17.676s-5.167 12.11-43.5 12.11-43.5-12.11-43.5-12.11v17.676c0 .001 6.887 12.899 43.5 12.899z"/><path fill="#FFF" d="M-516.978 1672.565v142.083c0 4.625-3.75 8.333-8.333 8.333h-158.333a8.304 8.304 0 0 1-8.333-8.333v-183.333c0-4.583 3.708-8.333 8.333-8.333h117.125l49.541 49.583z"/><path fill="#03A9F4" d="M-629.775 1725.823c.344 20.488 16.447 28.926 31.6 28.926 12.601 0 20-2.805 26.25-6.055l2.582 10.848c-5.332 3.402-11.332 6.916-29.916 6.916-29.999 0-44.979-18.43-44.979-42.014 0-25.137 18.807-44.938 43.084-44.938 27.205 0 36.438 23.932 36.438 39.256 0 3.1-.346 5.51-.518 7.061h-64.541zm50.421-10.848c.174-9.643-5.959-24.621-23.006-24.621-15.324 0-26.039 14.117-27.244 24.621h50.25z"/><path fill="#9CDDF9" d="M-516.977 1672.564l-42.456.386c-4.005 0-7.252-3.829-7.252-8.552v-41.417"/><path fill="#C1E3BE" d="M-750.078 1672.564l-42.456.386c-4.005 0-7.252-3.829-7.252-8.552v-41.417"/><path fill="#ABEDE0" d="M-978.017 1672.564l-42.456.386c-4.005 0-7.252-3.829-7.252-8.552v-41.417M-1194.122 1672.697l-42.456.386c-4.005 0-7.252-3.829-7.252-8.552v-41.417"/><path fill="#FFF" d="M-42.598 1927.591v142.084c0 4.624-3.75 8.332-8.334 8.332h-158.332a8.304 8.304 0 0 1-8.334-8.332v-183.334c0-4.584 3.708-8.334 8.334-8.334H-92.14l49.542 49.584z"/><path fill="#ACACAC" d="M-174.129 1945.888h88.062v12.848h-88.062zM-174.129 1975.75h88.062v12.848h-88.062zM-174.129 2005.612h61.644v12.846h-61.644z"/><path fill="#FFF" d="M-277.622 1927.86v141.33c0 4.598-3.717 8.29-8.242 8.29H-442.38c-4.573 0-8.242-3.693-8.242-8.29v-182.366c0-4.548 3.669-8.29 8.242-8.29h115.773l48.985 49.326z"/><path fill="#03A9F4" d="M-311.802 1980.086c-.135 6.281-2.731 12.037-6.867 16.172-4.146 4.134-9.756 6.671-15.977 6.671h-11.048a34.074 34.074 0 0 0 5.939-9.161h5.11c7.404 0 13.513-6.098 13.685-13.818.159-7.513-5.953-13.439-13.685-13.671h-21.634c-3.049 0-5.891 1.036-8.209 2.793a13.78 13.78 0 0 0-3.292 3.536 14.142 14.142 0 0 0-2.318 7.476l-9.159-.135c.014-.817.074-1.634.183-2.427.817-6.462 4.281-12.145 9.245-15.866 3.806-2.854 8.501-4.548 13.55-4.548h21.634c12.477.269 23.11 10.269 22.843 22.978"/><path fill="#03A9F4" d="M-416.44 1979.952c.135-6.281 2.731-12.036 6.866-16.172 4.146-4.134 9.756-6.671 15.977-6.671h11.048a34.074 34.074 0 0 0-5.939 9.161h-5.11c-7.404 0-13.513 6.098-13.685 13.818-.159 7.513 5.953 13.439 13.685 13.671h21.634c3.049 0 5.891-1.036 8.209-2.793a13.748 13.748 0 0 0 3.292-3.536 14.142 14.142 0 0 0 2.318-7.476l9.159.135a20.059 20.059 0 0 1-.183 2.427c-.817 6.462-4.281 12.145-9.245 15.866-3.806 2.854-8.501 4.548-13.55 4.548h-21.634c-12.476-.269-23.11-10.269-22.842-22.978"/><path fill="#FFF" d="M-736.959 1927.791v142.084c0 4.634-3.754 8.332-8.349 8.332h-158.657c-4.645 0-8.346-3.698-8.346-8.332v-183.334c0-4.584 3.727-8.334 8.346-8.334h117.341l49.665 49.584z"/><path fill="#7757BC" d="M-796.159 1973.395v-17.866c0-3.066-2.28-5.109-5.71-5.109h-68.351c-3.405 0-5.71 2.042-5.71 5.109v51.006c0 3.066 2.278 5.108 5.71 5.108h68.377c3.405 0 5.71-2.042 5.71-5.108v-17.84l22.791 20.408v-56.114l-22.817 20.406z"/><path fill="#FFF" d="M-1193.79 1927.592v142.084c0 4.624-3.75 8.332-8.334 8.332h-158.332a8.304 8.304 0 0 1-8.334-8.332v-183.334c0-4.584 3.708-8.334 8.334-8.334h117.124l49.542 49.584z"/><g fill="#FF5722"><path d="M-1312.842 1983.244l24.53 27.062 33.552-46.552 38.612 62.062h-126.286zM-1290.666 1952.336c0 8.444-6.844 15.288-15.288 15.288-8.442 0-15.288-6.844-15.288-15.288 0-8.444 6.846-15.288 15.288-15.288 8.444 0 15.288 6.844 15.288 15.288"/></g><path fill="#FFF" d="M-516.646 1928.278v142.084c0 4.624-3.75 8.332-8.334 8.332h-158.332a8.304 8.304 0 0 1-8.334-8.332v-183.334c0-4.584 3.708-8.334 8.334-8.334h117.124l49.542 49.584z"/><path fill="#FDCA07" d="M-616.408 1877.32h12.262v12.262h-12.262zM-616.408 1901.846h12.262v12.262h-12.262zM-616.408 1925.366h12.262v12.262h-12.262zM-616.408 1949.594h12.262v27.04h-12.262zM-604.145 1889.584h12.262v12.262h-12.262zM-604.145 1914.108h12.262v12.262h-12.262zM-604.145 1937.542h12.262v12.262h-12.262z"/><path fill="#FDCA07" d="M-610.277 1964.372h18.394v12.262h-18.394zM-589.411 2021.067l-4.324-33.834-21.932-.198-3.466 34.032c-.484 3.656 1.572 6.864 6.52 6.864h16.682c4.736 0 7.034-3.328 6.52-6.864zm-7.153-.325h-15.414v-6.292h15.414v6.292z"/><path fill="#FFF" d="M-977.769 1927.291v142.935c0 4.662-3.746 8.382-8.332 8.382h-158.339c-4.636 0-8.329-3.72-8.329-8.382v-184.432c0-4.611 3.72-8.384 8.329-8.384h117.105l49.566 49.881z"/><path fill="#FF40B6" d="M-1094.307 1937.936a2.611 2.611 0 0 0-2.62 2.62v67.198a15.834 15.834 0 0 0-7.911-2.097c-8.724 0-15.772 7.046-15.772 15.744s7.048 15.746 15.772 15.746 15.77-7.048 15.77-15.746c0-.627-.026-1.283-.105-1.859.079-.235.105-.497.105-.761v-55.277l55.251-9.744v38.247a15.854 15.854 0 0 0-7.911-2.096c-8.724 0-15.772 7.048-15.772 15.746s7.048 15.744 15.772 15.744 15.77-7.046 15.77-15.744c0-.63-.027-1.283-.105-1.861a2.43 2.43 0 0 0 .105-.758v-73.512c0-1.284 0-2.881-2.173-2.567-.447.052-66.176 10.977-66.176 10.977"/><path fill="#C0B7D5" d="M-736.959 1927.79l-42.456.386c-4.005 0-7.252-3.829-7.252-8.552v-41.417"/><path fill="#F1DEB0" d="M-516.646 1928.277l-42.456.386c-4.005 0-7.252-3.829-7.252-8.552v-41.417"/><path fill="#F0BBAD" d="M-1193.79 1927.59l-42.456.386c-4.005 0-7.252-3.829-7.252-8.552v-41.417"/><path fill="#F0BCD7" d="M-977.685 1928.08l-42.456.386c-4.005 0-7.252-3.829-7.252-8.552v-41.417"/><path fill="#D5D5D4" d="M-42.598 1927.276l-42.456.386c-4.005 0-7.252-3.829-7.252-8.552v-41.417"/><path fill="#9CDDF9" d="M-276.953 1928.277l-42.456.386c-4.005 0-7.252-3.829-7.252-8.552v-41.417"/><path fill="#718BC8" d="M86.903 49.24c-27.425 0-49.659 22.233-49.659 49.659 0 27.425 22.233 49.659 49.659 49.659s49.659-22.233 49.659-49.659S114.328 49.24 86.903 49.24zm-.001 64.143c-7.999 0-14.482-6.485-14.482-14.484s6.483-14.484 14.482-14.484 14.484 6.485 14.484 14.484c.001 7.999-6.485 14.484-14.484 14.484z"/></svg>