<svg xmlns="http://www.w3.org/2000/svg" width="77.498" height="61.982" viewBox="0 0 77.498 61.982">
  <g id="组_18392" data-name="组 18392" transform="translate(-1027.534 -242.911)">
    <path id="路径_60120" data-name="路径 60120" d="M1099.9,242.911h-67.232a5.133,5.133,0,0,0-5.133,5.133V299.76a5.133,5.133,0,0,0,5.133,5.133H1099.9a5.133,5.133,0,0,0,5.133-5.133V248.044A5.133,5.133,0,0,0,1099.9,242.911Zm-2.615,54.34h-62V262.177h62Z" fill="#ffa340"/>
    <path id="路径_60121" data-name="路径 60121" d="M1061.338,277.745c0-.516-.01-1.015-.033-1.495.234.425.476.86.732,1.3q2.93,4.383,9.187,13.568l.174.256h4.444V268.6h-4.613v13.94c0,.355,0,.72.018,1.093-.266-.457-.54-.894-.819-1.3-1.806-2.812-4.742-7.218-8.981-13.473l-.173-.257h-4.55v22.768h4.614Z" fill="#2196f3"/>
    <path id="矩形_14053" data-name="矩形 14053" d="M5.1,0H72.4a5.1,5.1,0,0,1,5.1,5.1v5.167a0,0,0,0,1,0,0H0a0,0,0,0,1,0,0V5.1A5.1,5.1,0,0,1,5.1,0Z" transform="translate(1027.534 242.911)" fill="#f44336"/>
  </g>
</svg>

