<svg xmlns="http://www.w3.org/2000/svg" width="77.538" height="77.689" viewBox="0 0 77.538 77.689">
  <g id="组_18279" data-name="组 18279" transform="translate(619.087 101.517)">
    <path id="路径_60023" data-name="路径 60023" d="M-556.525-32.149l-10.849-13.714a21.061,21.061,0,0,1-12.944,4.442A21.176,21.176,0,0,1-601.495-62.6a21.177,21.177,0,0,1,21.177-21.177v-17.593A38.769,38.769,0,0,0-619.087-62.6a38.769,38.769,0,0,0,38.769,38.769A38.77,38.77,0,0,0-541.549-62.6c0-.027,0-.054,0-.081A38.7,38.7,0,0,1-556.525-32.149Z" fill="#ffa340"/>
    <path id="路径_60024" data-name="路径 60024" d="M-541.553-62.748h0a38.77,38.77,0,0,0-38.769-38.769v.15A38.767,38.767,0,0,1-541.553-62.748Z" fill="#448aff"/>
    <path id="路径_60025" data-name="路径 60025" d="M-559.149-62.748h17.6a38.767,38.767,0,0,0-38.765-38.619v17.593A21.173,21.173,0,0,1-559.149-62.748Z" fill="#1677ff"/>
    <path id="路径_60026" data-name="路径 60026" d="M-541.551-62.678c0-.023,0-.046,0-.07h0C-541.553-62.724-541.551-62.7-541.551-62.678Z" fill="#3f51b5"/>
    <path id="路径_60027" data-name="路径 60027" d="M-559.149-62.748c0,.051.007.1.007.151a21.122,21.122,0,0,1-8.232,16.734l10.849,13.714a38.7,38.7,0,0,0,14.974-30.529c0-.023,0-.046,0-.07Z" fill="#f44336"/>
  </g>
</svg>
