<?xml version="1.0" standalone="no"?><!DOCTYPE svg PUBLIC "-//W3C//DTD SVG 1.1//EN" "http://www.w3.org/Graphics/SVG/1.1/DTD/svg11.dtd"><svg t="1772092076001" class="icon" viewBox="0 0 1024 1024" version="1.1" xmlns="http://www.w3.org/2000/svg" p-id="99259" xmlns:xlink="http://www.w3.org/1999/xlink" width="200" height="200"><path d="M470.784 181.333333a32 32 0 0 1 4.352 63.701334l-4.352 0.298666h-231.253333c-64.810667 0-118.272 53.290667-122.026667 121.045334l-0.170667 7.594666v361.386667c0 68.778667 51.157333 124.544 115.029334 128.426667l7.168 0.213333h489.728c64.810667 0 118.229333-53.290667 121.984-121.045333l0.213333-7.594667V534.613333a32 32 0 0 1 63.658667-4.352l0.298666 4.309334v200.789333c0 103.082667-78.336 187.690667-177.365333 192.426667l-8.789333 0.213333H239.530667c-100.181333 0-181.418667-81.664-186.026667-183.594667l-0.170667-9.045333v-361.386667c0-103.082667 78.378667-187.690667 177.408-192.426666l8.789334-0.213334h231.253333z m188.16 266.965334a32 32 0 0 1 0.256 41.770666l-3.328 3.370667-201.728 176.213333a32 32 0 0 1-39.893333 1.792l-3.754667-3.242666L276.053333 533.76a32 32 0 0 1 41.642667-48.384l3.584 3.114667 113.28 113.28 179.2-156.544a32 32 0 0 1 45.141333 3.072z" fill="#9E9E9E" p-id="99260"></path><path d="M782.805333 448.981333a172.202667 172.202667 0 0 1 158.506667-145.365333c10.709333-1.749333 27.136-8.362667 27.136-16.725333 0-8.405333-18.986667-16.597333-29.269333-18.176-89.898667-14.293333-142.378667-67.669333-160.426667-163.285334a17.066667 17.066667 0 0 0-16.213333-12.373333 16.768 16.768 0 0 0-16.170667 12.8c-15.786667 81.408-40.704 130.474667-126.933333 155.776-18.474667 5.034667-52.736 14.293333-52.736 26.88 0 9.984 30.72 17.706667 48.938666 22.357333l5.589334 1.365334c90.88 26.709333 98.474667 46.933333 119.552 138.154666 4.309333 13.525333 16.042667 26.666667 21.845333 26.666667 7.936-0.085333 15.573333-10.496 20.181333-28.074667z" fill="#6E09F9" p-id="99261"></path></svg>