<?xml version="1.0" standalone="no"?><!DOCTYPE svg PUBLIC "-//W3C//DTD SVG 1.1//EN" "http://www.w3.org/Graphics/SVG/1.1/DTD/svg11.dtd"><svg t="1749446000574" class="icon" viewBox="0 0 1024 1024" version="1.1" xmlns="http://www.w3.org/2000/svg" p-id="139150" xmlns:xlink="http://www.w3.org/1999/xlink" width="200" height="200"><path d="M810.285397 223.334173h-2.79046a87.607477 87.607477 0 0 0-57.431569 21.415161 11576.841435 11576.841435 0 0 0-167.427623 166.616443c-73.168467 73.817412-148.802923 150.133259-226.059739 222.490546A462.210562 462.210562 0 0 0 211.731643 967.348787a62.623123 62.623123 0 0 0 11.908127 47.210696 29.624306 29.624306 0 0 0 23.069969 9.442139h2.401094c104.609818-5.645815 213.405326-17.456601 292.284503-92.539454 146.27204-139.52302 290.499906-286.087085 429.990478-428.043645l26.606715-27.028529a69.112566 69.112566 0 0 0 16.77521-48.346349 232.743865 232.743865 0 0 0-204.482342-204.709472z m-28.488654 356.205514s-170.899475 177.551154-247.085533 257.079275a371.293468 371.293468 0 0 1-213.729798 103.18214l-28.748232 2.3362 2.595778-28.845573a334.920142 334.920142 0 0 1 94.875653-203.833398c62.331098-59.735321 124.110593-121.93663 183.813466-182.093764q39.163787-39.423365 78.716941-79.07386l17.35926-17.294365 128.523414 131.508558z m141.340064-140.204411c-5.613368 5.613368-10.026189 10.415556-15.152849 15.964029-7.495306 8.079356-16.41829 17.716179-31.895611 33.1935l-17.034788 17.067234-131.378768-129.788855 72.389734-75.731797 12.135258 1.525019a151.98275 151.98275 0 0 1 117.361572 115.05782l3.244722 13.173569z" fill="#9E9E9E" p-id="139151"></path><path d="M209.914599 419.347792c4.996871 15.672004 19.468328 35.075438 30.662617 35.075438 13.85496 0 23.491783-16.223607 28.845573-36.503115a194.229022 194.229022 0 0 1 178.102757-163.696194c12.394836-2.011727 36.373327-10.188425 36.373327-24.919461s-27.223212-24.69233-38.482396-26.444479c-101.137966-16.223607-160.191895-76.250953-180.633639-184.00815a24.497646 24.497646 0 0 0-18.235335-18.137992A26.931188 26.931188 0 0 0 240.64211 0 24.69233 24.69233 0 0 0 216.598725 18.98162C197.811788 115.706765 168.609296 167.038257 73.830984 194.813072c-34.199363 9.279903-64.894428 19.273645-64.894428 36.373327s39.196234 25.665746 66.97105 32.771686c101.916699 29.948778 109.736477 50.260734 134.006993 155.389707z" fill="#6E09F9" p-id="139152"></path></svg>