<?xml version="1.0" standalone="no"?><!DOCTYPE svg PUBLIC "-//W3C//DTD SVG 1.1//EN" "http://www.w3.org/Graphics/SVG/1.1/DTD/svg11.dtd"><svg t="1749445985448" class="icon" viewBox="0 0 1024 1024" version="1.1" xmlns="http://www.w3.org/2000/svg" p-id="139005" xmlns:xlink="http://www.w3.org/1999/xlink" width="200" height="200"><path d="M55.913738 378.319572a190.688475 190.688475 0 0 0 0 269.673822l252.447415 252.447415v-399.223011a190.647164 190.647164 0 0 1 98.277271-166.811105H99.867927L55.913738 378.319572z" fill="#FFD800" p-id="139006"></path><path d="M645.701293 55.892461a190.688475 190.688475 0 0 0-269.673822 0L123.662676 308.339876h399.14039a190.647164 190.647164 0 0 1 166.811105 98.27727V99.84665l-43.912878-43.912879z" fill="#F44336" p-id="139007"></path><path d="M968.045783 645.721326a190.688475 190.688475 0 0 0 0-269.673822l-252.447415-252.364795v399.14039a190.647164 190.647164 0 0 1-98.277271 166.811105h306.770497l43.912878-43.912878z" fill="#1677ff" p-id="139008"></path><path d="M378.299539 968.148436a190.688475 190.688475 0 0 0 269.673822 0l252.364794-252.447415h-399.14039a190.647164 190.647164 0 0 1-166.811105-98.27727v306.770496l43.912879 43.912879z" fill="#13BF79" p-id="139009"></path></svg>