<?xml version="1.0" standalone="no"?><!DOCTYPE svg PUBLIC "-//W3C//DTD SVG 1.1//EN" "http://www.w3.org/Graphics/SVG/1.1/DTD/svg11.dtd"><svg t="1749446004222" class="icon" viewBox="0 0 1024 1024" version="1.1" xmlns="http://www.w3.org/2000/svg" p-id="139293" xmlns:xlink="http://www.w3.org/1999/xlink" width="200" height="200"><path d="M986.420668 669.599411c2.506178-38.267414 4.112703-76.888262 5.590706-114.127501L993.874942 511.067573l-1.95996-13.526936V454.646433c0-28.21057-0.192783-56.517532 0-84.728102A227.805174 227.805174 0 0 0 844.789469 142.016766c-65.803243-28.917441-128.746873-62.172498-189.569891-94.367249L621.000606 29.52792A222.150208 222.150208 0 0 0 510.760895 0a220.736466 220.736466 0 0 0-103.62083 25.865044c-29.849225 15.037069-59.184362 29.624312-88.583761 44.211555l-6.426098 3.213049c-52.276307 26.025697-106.416183 52.951047-159.142316 80.326224a198.148732 198.148732 0 0 0-121.26047 176.878348 9779.171661 9779.171661 0 0 0-0.835392 320.501637 197.281208 197.281208 0 0 0 103.363786 172.444339c30.909531 18.892728 60.630235 37.239238 90.383068 55.617879l4.948096 3.052396c61.594149 38.0425 125.308911 77.37022 188.573845 114.898632a170.998468 170.998468 0 0 0 92.343028 26.732568 169.327682 169.327682 0 0 0 88.005412-24.25852c92.632203-53.722179 190.437414-114.480936 307.745833-191.369198a173.504646 173.504646 0 0 0 80.165572-138.514542z m-115.862546 71.875906c-68.534335 46.396427-135.71919 89.322762-206.823964 134.723144l-105.837834 67.827464-5.044487-39.327719c-1.028176-7.775579-1.767177-15.679679-2.538309-23.58378-5.397922-56.903098-11.438454-69.241206-43.568944-67.120594-30.877401 1.927829-35.343539 17.318334-36.596628 77.37022l-1.478003 55.778531-37.303498-23.872954q-33.062274-21.141862-65.642591-41.769637l-10.988628-6.940186c-69.273336-43.729597-134.658883-85.017276-200.333605-130.771094a127.493784 127.493784 0 0 1-46.910515-89.258501c-3.020266-73.675213-2.570439-146.418643-2.120613-223.435427v-6.940186c0-27.118134 0.321305-54.782485 0.321305-83.2501V301.03056l74.799781 36.178932c28.917441 13.816111 56.067705 26.89322 82.254054 40.6772a59.923364 59.923364 0 0 0 10.924367 6.715273 34.540277 34.540277 0 0 0 43.858119-17.02916 39.006415 39.006415 0 0 0 5.847749-29.817095 55.360834 55.360834 0 0 0-30.1384-26.796828c-19.953034-9.639147-39.809677-19.66386-63.457717-31.520011L145.308702 237.187277 269.782221 177.681609c73.096865-35.022234 142.177418-68.341552 212.928756-99.475996a107.090923 107.090923 0 0 1 29.849226-4.434008 110.239711 110.239711 0 0 1 52.758264 13.462675c62.076107 28.917441 124.312866 60.148277 190.212501 93.178421l115.669763 57.513577-79.587223 39.681155c-24.387042 12.241717-46.685602 23.423127-68.759249 34.893712a69.723163 69.723163 0 0 0-10.249626 4.56253 34.572407 34.572407 0 0 0-11.952542 47.424603 57.256533 57.256533 0 0 0 4.787443 9.060798 32.13049 32.13049 0 0 0 26.21848 13.141371 30.459704 30.459704 0 0 0 17.671769-5.430053l162.965845-78.398396 0.192783 127.140349c0.224913 82.60749 0.514088 160.65245-1.574394 239.629194a102.014306 102.014306 0 0 1-40.355895 71.715254z" fill="#9E9E9E" p-id="139294"></path><path d="M529.492971 700.573203a198.180862 198.180862 0 0 1 182.404791-167.303461c12.338108-2.024221 31.230836-9.639147 31.230837-19.278294s-21.848733-19.085511-33.672754-20.916949c-103.460178-16.41868-163.865499-77.884308-184.653926-187.899105a18.796337 18.796337 0 0 0-14.041024-13.687589 19.599599 19.599599 0 0 0-4.59466-0.578349 19.278294 19.278294 0 0 0-18.603554 14.715764c-18.185857 93.724639-46.878385 150.210041-146.129468 179.320265-21.270384 5.783488-60.694496 16.41868-60.694495 30.941662 0 11.470585 35.343539 20.370731 56.356879 25.704392l6.426098 1.606524c104.552614 30.716748 113.324238 54.011354 137.582758 158.981664 4.980226 15.583288 18.442901 30.684618 25.158174 30.684618 9.125059-0.064261 17.928813-12.081064 23.230344-32.291142z" fill="#6E09F9" p-id="139295"></path></svg>