<?xml version="1.0" standalone="no"?><!DOCTYPE svg PUBLIC "-//W3C//DTD SVG 1.1//EN" "http://www.w3.org/Graphics/SVG/1.1/DTD/svg11.dtd"><svg t="1749446017501" class="icon" viewBox="0 0 1024 1024" version="1.1" xmlns="http://www.w3.org/2000/svg" p-id="139723" xmlns:xlink="http://www.w3.org/1999/xlink" width="200" height="200"><path d="M341.333333 349.866667h597.333334v-85.333334c0-46.933333-38.4-85.333333-85.333334-85.333333H170.666667c-46.933333 0-85.333333 38.4-85.333334 85.333333v85.333334h256z" fill="#1677ff" p-id="139724"></path><path d="M853.333333 349.866667v170.666666h-170.666666v-170.666666h-85.333334v170.666666h-170.666666v-170.666666H341.333333v170.666666H170.666667v-170.666666H85.333333v426.666666c0 46.933333 38.4 85.333333 85.333334 85.333334h682.666666c46.933333 0 85.333333-38.4 85.333334-85.333334v-426.666666h-85.333334zM170.666667 712.533333v-106.666666h170.666666v170.666666H170.666667v-64z m256-106.666666h170.666666v170.666666h-170.666666v-170.666666z m426.666666 106.666666v64h-170.666666v-170.666666h170.666666v106.666666z" fill="#9ACAF9" p-id="139725"></path></svg>