<?xml version="1.0" standalone="no"?><!DOCTYPE svg PUBLIC "-//W3C//DTD SVG 1.1//EN" "http://www.w3.org/Graphics/SVG/1.1/DTD/svg11.dtd"><svg t="1749446011761" class="icon" viewBox="0 0 1024 1024" version="1.1" xmlns="http://www.w3.org/2000/svg" p-id="139580" xmlns:xlink="http://www.w3.org/1999/xlink" width="200" height="200"><path d="M448 853.333333l25.6-238.933333H281.6c-17.066667 0-34.133333-12.8-34.133333-34.133333 0-8.533333 0-12.8 4.266666-17.066667L516.266667 170.666667c8.533333-17.066667 29.866667-21.333333 46.933333-8.533334 8.533333 8.533333 17.066667 17.066667 12.8 29.866667l-25.6 238.933333h196.266667c17.066667 0 34.133333 12.8 34.133333 34.133334 0 8.533333 0 12.8-4.266667 17.066666L512 874.666667c-8.533333 17.066667-29.866667 17.066667-46.933333 8.533333-8.533333-8.533333-17.066667-17.066667-17.066667-29.866667z" fill="#3656FF" p-id="139581"></path><path d="M810.666667 712.533333l-55.466667-25.6 55.466667-25.6 25.6-55.466666 25.6 55.466666 55.466666 25.6-55.466666 25.6-25.6 55.466667zM192 320l-85.333333-38.4 85.333333-38.4 38.4-85.333333 38.4 85.333333 85.333333 38.4-85.333333 38.4-38.4 85.333333zM712.533333 243.2l-55.466666-25.6 55.466666-25.6 25.6-55.466667 25.6 55.466667 55.466667 25.6-55.466667 25.6-25.6 55.466667z" fill="#8095FF" p-id="139582"></path></svg>