<svg width="100" height="100" viewBox="0 0 100 100" fill="none" xmlns="http://www.w3.org/2000/svg">
<rect width="100" height="100" transform="matrix(1 0 0 -1 0 100)" fill="white"/>
<path fill-rule="evenodd" clip-rule="evenodd" d="M45.8332 65.4137H80.3866L81.3181 65.4435L82.22 65.5627L83.0923 65.7416L83.9351 65.9801L84.7631 66.3081L85.5615 66.6807L86.3155 67.0981L87.0252 67.5901L87.7054 68.1416L88.3411 68.723L88.9178 69.364L89.45 70.0497L89.938 70.7652L90.3667 71.5255L90.7364 72.3155L91.0469 73.1503L91.2982 74L91.4756 74.8795L91.5791 75.7888L91.6235 76.728L91.5791 77.6671L91.4756 78.5764L91.2982 79.4559L91.0469 80.3205L90.7364 81.1404L90.3667 81.9453L89.938 82.7056L89.45 83.4211L88.9178 84.1068L88.3411 84.7478L87.7054 85.3292L87.0252 85.8658L86.3155 86.3578L85.5615 86.7901L84.7631 87.1627L83.9351 87.4758L83.0923 87.7292L82.22 87.9081L81.3181 88.0124L80.3866 88.0571V92.1267L76.0693 88.0571H45.8332L44.9017 88.0124L43.9998 87.9081L43.1275 87.7292L42.2847 87.4758L41.4567 87.1627L40.6583 86.7901L39.919 86.3578L39.1946 85.8807L38.5144 85.3292L37.8935 84.7478L37.302 84.1068L36.7698 83.4211L36.2818 82.7056L35.8531 81.9453L35.4834 81.1404L35.1729 80.3205L34.9216 79.4559L34.7442 78.5764L34.6407 77.6671L34.5963 76.728L34.6407 75.7888L34.7442 74.8795L34.9216 74L35.1729 73.1503L35.4834 72.3155L35.8531 71.5255L36.2818 70.7652L36.7698 70.0497L37.302 69.364L37.8935 68.723L38.5144 68.1416L39.1946 67.5901L39.919 67.0981L40.6583 66.6807L41.4567 66.3081L42.2847 65.9801L43.1275 65.7416L43.9998 65.5627L44.9017 65.4435L45.8332 65.4137Z" fill="#9797FF"/>
<path fill-rule="evenodd" clip-rule="evenodd" d="M64.3298 55.9627H21.3931L20.225 56.0075L19.1161 56.1267L18.022 56.3354L16.9722 56.6037L15.952 56.9615L14.9614 57.3789L14.0299 57.8559L13.1428 58.3926L12.3001 59.0037L11.5164 59.6745L10.7919 60.3752L10.1266 61.1354L9.52041 61.9404L8.98813 62.7901L8.52979 63.6696L8.14537 64.6087L7.83487 65.5478L7.61309 66.5317L7.48002 67.5453L7.43567 68.5888L7.48002 69.6472L7.61309 70.646L7.83487 71.6298L8.14537 72.5839L8.52979 73.5081L8.98813 74.4025L9.52041 75.2373L10.1266 76.0571L10.7919 76.8174L11.5164 77.518L12.3001 78.1739L13.1428 78.7851L14.0299 79.3367L14.9614 79.8137L15.952 80.2311L16.9722 80.5739L18.022 80.8571L19.1161 81.0509L20.225 81.1851L21.3931 81.2298V85.7615L26.7602 81.2298H64.3298L65.4831 81.1851L66.6067 81.0509L67.6861 80.8571L68.7358 80.5739L69.7708 80.2311L70.7466 79.8137L71.6781 79.3367L72.5652 78.7851L73.408 78.1739L74.1916 77.518L74.9161 76.8174L75.5815 76.0571L76.1877 75.2373L76.7199 74.4025L77.1783 73.5081L77.5627 72.5839L77.8732 71.6298L78.095 70.646L78.228 69.6472L78.2872 68.5888L78.228 67.5453L78.095 66.5317L77.8732 65.5478L77.5627 64.6087L77.1783 63.6696L76.7199 62.7901L76.1877 61.9404L75.5815 61.1354L74.9161 60.3752L74.1916 59.6745L73.408 59.0037L72.5652 58.3926L71.6781 57.8559L70.7466 57.3789L69.7708 56.9615L68.7358 56.6037L67.6861 56.3354L66.6067 56.1267L65.4831 56.0075L64.3298 55.9627Z" fill="#5558DF"/>
<path fill-rule="evenodd" clip-rule="evenodd" d="M32.0089 69.1553L31.9645 69.6621L31.8463 70.1242L31.6393 70.5565L31.3731 70.9441L31.0479 71.2721L30.6634 71.5404L30.2347 71.7491L29.7763 71.8683L29.2736 71.913L28.7857 71.8683L28.3273 71.7491L27.8986 71.5404L27.5141 71.2721L27.1889 70.9441L26.9227 70.5565L26.7157 70.1242L26.5975 69.6621L26.5531 69.1553L26.5975 68.6634L26.7157 68.2012L26.9227 67.7689L27.1889 67.3814L27.5141 67.0534L27.8986 66.7851L28.3273 66.5764L28.7857 66.4571L29.2736 66.3975L29.7763 66.4571L30.2347 66.5764L30.6634 66.7851L31.0479 67.0534L31.3731 67.3814L31.6393 67.7689L31.8463 68.2012L31.9645 68.6634L32.0089 69.1553Z" fill="white"/>
<path fill-rule="evenodd" clip-rule="evenodd" d="M45.5967 69.1553L45.5523 69.6621L45.4193 70.1242L45.2123 70.5565L44.9461 70.9441L44.6209 71.2721L44.2364 71.5404L43.8077 71.7491L43.3641 71.8683L42.8614 71.913L42.3587 71.8683L41.9003 71.7491L41.4716 71.5404L41.0871 71.2721L40.7619 70.9441L40.4957 70.5565L40.2887 70.1242L40.1705 69.6621L40.1261 69.1553L40.1705 68.6634L40.2887 68.2012L40.4957 67.7689L40.7619 67.3814L41.0871 67.0534L41.4716 66.7851L41.9003 66.5764L42.3587 66.4571L42.8614 66.3975L43.3641 66.4571L43.8077 66.5764L44.2364 66.7851L44.6209 67.0534L44.9461 67.3814L45.2123 67.7689L45.4193 68.2012L45.5523 68.6634L45.5967 69.1553Z" fill="white"/>
<path fill-rule="evenodd" clip-rule="evenodd" d="M59.1697 69.1553L59.1253 69.6621L58.9923 70.1242L58.8001 70.5565L58.5191 70.9441L58.1938 71.2721L57.8094 71.5404L57.3954 71.7491L56.9371 71.8683L56.4344 71.913L55.9317 71.8683L55.4733 71.7491L55.0594 71.5404L54.6749 71.2721L54.3497 70.9441L54.0687 70.5565L53.8765 70.1242L53.7435 69.6621L53.6991 69.1553L53.7435 68.6634L53.8765 68.2012L54.0687 67.7689L54.3497 67.3814L54.6749 67.0534L55.0594 66.7851L55.4733 66.5764L55.9317 66.4571L56.4344 66.3975L56.9371 66.4571L57.3954 66.5764L57.8094 66.7851L58.1938 67.0534L58.5191 67.3814L58.8001 67.7689L58.9923 68.2012L59.1253 68.6634L59.1697 69.1553Z" fill="white"/>
<path d="M44.2748 44.6042C43.7127 41.6904 42.2799 39.0111 40.162 36.9135C38.0441 34.8159 35.3388 33.3967 32.3969 32.8401C32.2792 32.7907 32.1788 32.7082 32.1082 32.6027C32.0376 32.4972 32 32.3734 32 32.2469C32 32.1203 32.0376 31.9966 32.1082 31.8911C32.1788 31.7856 32.2792 31.7031 32.3969 31.6537C35.3383 31.0969 38.0431 29.678 40.1609 27.581C42.2787 25.484 43.7119 22.8055 44.2748 19.8924C44.325 19.7766 44.4084 19.678 44.5146 19.6087C44.6208 19.5395 44.7452 19.5025 44.8723 19.5025C44.9995 19.5025 45.1239 19.5395 45.2301 19.6087C45.3363 19.678 45.4196 19.7766 45.4698 19.8924C46.4004 22.6633 47.7905 25.2614 49.5829 27.5801C51.8226 29.3311 54.3354 30.7089 57.0226 31.6592C57.138 31.7092 57.2362 31.7914 57.3052 31.8958C57.3741 32.0001 57.4108 32.1222 57.4108 32.2469C57.4108 32.3716 57.3741 32.4937 57.3052 32.598C57.2362 32.7024 57.138 32.7846 57.0226 32.8346C54.3358 33.7869 51.8231 35.1655 49.5829 36.9165C47.7909 39.2364 46.4009 41.8353 45.4698 44.6069C45.42 44.7235 45.3367 44.8229 45.2302 44.8928C45.1237 44.9627 44.9987 45 44.8709 45C44.7432 45 44.6182 44.9627 44.5117 44.8928C44.4052 44.8229 44.3218 44.7235 44.272 44.6069L44.2748 44.6042ZM58.6289 24.0046C58.2713 22.1477 57.3587 20.4401 56.0093 19.1031C54.6599 17.7662 52.9361 16.8617 51.0614 16.5068C50.986 16.4756 50.9216 16.4231 50.8763 16.3557C50.831 16.2884 50.8069 16.2093 50.8069 16.1284C50.8069 16.0474 50.831 15.9683 50.8763 15.901C50.9216 15.8336 50.986 15.7811 51.0614 15.7499C52.9361 15.395 54.6599 14.4905 56.0093 13.1536C57.3587 11.8166 58.2713 10.109 58.6289 8.25213C58.6604 8.17745 58.7135 8.11367 58.7815 8.0688C58.8495 8.02394 58.9294 8 59.0111 8C59.0928 8 59.1727 8.02394 59.2407 8.0688C59.3086 8.11367 59.3617 8.17745 59.3932 8.25213C59.7537 10.0748 60.6416 11.7542 61.9487 13.0859C63.2558 14.4177 64.9257 15.3442 66.7551 15.7526C66.828 15.785 66.89 15.8375 66.9334 15.9039C66.9769 15.9704 67 16.0478 67 16.127C67 16.2061 66.9769 16.2836 66.9334 16.35C66.89 16.4164 66.828 16.469 66.7551 16.5013C65.0437 17.107 63.4433 17.9846 62.0167 19.0997C60.8745 20.5774 59.9888 22.2332 59.396 23.9991C59.3639 24.0736 59.3105 24.1371 59.2423 24.1817C59.1741 24.2263 59.0942 24.2501 59.0125 24.2501C58.9307 24.2501 58.8508 24.2263 58.7826 24.1817C58.7144 24.1371 58.661 24.0736 58.6289 23.9991V24.0046Z" fill="#FF9500"/>
</svg>
