<!-- Generated by IcoMoon.io -->
<svg version="1.1" xmlns="http://www.w3.org/2000/svg" width="26" height="24" viewBox="0 0 26 24">
<title>task-disussionnildata</title>
<path fill="#dfdfdf" d="M22.451 19.799c2.177-1.511 3.603-4.028 3.603-6.878 0-4.622-3.747-8.37-8.37-8.37-0.713 0-1.405 0.089-2.066 0.257 1.475 1.353 2.4 3.295 2.4 5.455 0 4.031-3.223 7.307-7.232 7.397 1.509 2.192 4.036 3.63 6.899 3.63 0.544 0 1.076-0.054 1.591-0.153 1.713 2.135 3.87 2.771 4.779 2.771 0.6 0 0.896-0.219 0.679-0.416-1.316-1.189-2.337-2.765-2.281-3.694z"></path>
<path fill="#ccc" d="M10.1 0.091c-5.489 0-9.939 4.45-9.939 9.939 0 3.385 1.694 6.373 4.278 8.168 0.066 1.103-1.147 2.975-2.709 4.386-0.258 0.234 0.094 0.494 0.806 0.494 1.079 0 3.64-0.756 5.675-3.291 0.611 0.118 1.243 0.182 1.889 0.182 5.489 0 9.939-4.45 9.939-9.939s-4.45-9.939-9.939-9.939zM13.5 6.63c0.578 0 1.046 0.468 1.046 1.046s-0.469 1.046-1.046 1.046-1.046-0.469-1.046-1.046c-0-0.578 0.468-1.046 1.046-1.046zM6.7 6.63c0.578 0 1.046 0.468 1.046 1.046s-0.469 1.046-1.046 1.046c-0.578 0-1.046-0.469-1.046-1.046s0.469-1.046 1.046-1.046zM10.101 16.094c-2.259 0-4.18-1.529-4.892-3.664l9.806-0.065c-0.694 2.168-2.632 3.729-4.913 3.729z"></path>
</svg>
