<?xml version="1.0" encoding="UTF-8"?>
<svg width="500px" height="556px" viewBox="0 0 500 556" version="1.1" xmlns="http://www.w3.org/2000/svg" xmlns:xlink="http://www.w3.org/1999/xlink">
    <!-- Generator: Sketch 49 (51002) - http://www.bohemiancoding.com/sketch -->
    <title>ic-file-table</title>
    <desc>Created with Sketch.</desc>
    <defs></defs>
    <g id="Page-1" stroke="none" stroke-width="1" fill="none" fill-rule="evenodd">
        <g id="ic-file-table" transform="translate(-3.000000, -14.000000)" fill-rule="nonzero">
            <path d="M361.411765,14.6076336 L27.1058824,14.6076336 C12.0470588,14.6076336 3.01176471,26.2937405 3.01176471,37.9798473 L3.01176471,546.325496 C3.01176471,560.93313 15.0588235,569.69771 27.1058824,569.69771 L478.870588,569.69771 C493.929412,569.69771 502.964706,558.011603 502.964706,546.325496 L502.964706,151.919389 L361.411765,14.6076336 Z M198.776471,423.621374 C198.776471,426.542901 195.764706,429.464427 192.752941,429.464427 L135.529412,429.464427 C132.517647,429.464427 129.505882,426.542901 129.505882,423.621374 L129.505882,391.48458 C129.505882,388.563053 132.517647,385.641527 135.529412,385.641527 L192.752941,385.641527 C195.764706,385.641527 198.776471,388.563053 198.776471,391.48458 L198.776471,423.621374 Z M198.776471,356.42626 C198.776471,359.347786 195.764706,362.269313 192.752941,362.269313 L135.529412,362.269313 C132.517647,362.269313 129.505882,359.347786 129.505882,356.42626 L129.505882,324.289466 C129.505882,321.367939 132.517647,318.446412 135.529412,318.446412 L192.752941,318.446412 C195.764706,318.446412 198.776471,321.367939 198.776471,324.289466 L198.776471,356.42626 Z M198.776471,289.231145 C198.776471,292.152672 195.764706,295.074198 192.752941,295.074198 L135.529412,295.074198 C132.517647,295.074198 129.505882,292.152672 129.505882,289.231145 L129.505882,257.094351 C129.505882,254.172824 132.517647,251.251298 135.529412,251.251298 L192.752941,251.251298 C195.764706,251.251298 198.776471,254.172824 198.776471,257.094351 L198.776471,289.231145 Z M289.129412,423.621374 C289.129412,426.542901 286.117647,429.464427 283.105882,429.464427 L225.882353,429.464427 C222.870588,429.464427 219.858824,426.542901 219.858824,423.621374 L219.858824,391.48458 C219.858824,388.563053 222.870588,385.641527 225.882353,385.641527 L283.105882,385.641527 C286.117647,385.641527 289.129412,388.563053 289.129412,391.48458 L289.129412,423.621374 Z M289.129412,356.42626 C289.129412,359.347786 286.117647,362.269313 283.105882,362.269313 L225.882353,362.269313 C222.870588,362.269313 219.858824,359.347786 219.858824,356.42626 L219.858824,324.289466 C219.858824,321.367939 222.870588,318.446412 225.882353,318.446412 L283.105882,318.446412 C286.117647,318.446412 289.129412,321.367939 289.129412,324.289466 L289.129412,356.42626 Z M289.129412,289.231145 C289.129412,292.152672 286.117647,295.074198 283.105882,295.074198 L225.882353,295.074198 C222.870588,295.074198 219.858824,292.152672 219.858824,289.231145 L219.858824,257.094351 C219.858824,254.172824 222.870588,251.251298 225.882353,251.251298 L283.105882,251.251298 C286.117647,251.251298 289.129412,254.172824 289.129412,257.094351 L289.129412,289.231145 Z M379.482353,423.621374 C379.482353,426.542901 376.470588,429.464427 373.458824,429.464427 L316.235294,429.464427 C313.223529,429.464427 310.211765,426.542901 310.211765,423.621374 L310.211765,391.48458 C310.211765,388.563053 313.223529,385.641527 316.235294,385.641527 L373.458824,385.641527 C376.470588,385.641527 379.482353,388.563053 379.482353,391.48458 L379.482353,423.621374 Z M379.482353,356.42626 C379.482353,359.347786 376.470588,362.269313 373.458824,362.269313 L316.235294,362.269313 C313.223529,362.269313 310.211765,359.347786 310.211765,356.42626 L310.211765,324.289466 C310.211765,321.367939 313.223529,318.446412 316.235294,318.446412 L373.458824,318.446412 C376.470588,318.446412 379.482353,321.367939 379.482353,324.289466 L379.482353,356.42626 Z M379.482353,289.231145 C379.482353,292.152672 376.470588,295.074198 373.458824,295.074198 L316.235294,295.074198 C313.223529,295.074198 310.211765,292.152672 310.211765,289.231145 L310.211765,257.094351 C310.211765,254.172824 313.223529,251.251298 316.235294,251.251298 L373.458824,251.251298 C376.470588,251.251298 379.482353,254.172824 379.482353,257.094351 L379.482353,289.231145 Z" id="Shape" fill="#F7A943"></path>
            <path d="M361.411765,14.6076336 L361.411765,128.547176 C361.411765,140.233282 370.447059,151.919389 385.505882,151.919389 L502.964706,151.919389 C502.964706,151.919389 361.411765,14.6076336 361.411765,14.6076336 Z" id="Shape" fill="#FFFFFF" opacity="0.3"></path>
        </g>
    </g>
</svg>