<?xml version="1.0" standalone="no"?><!DOCTYPE svg PUBLIC "-//W3C//DTD SVG 1.1//EN" "http://www.w3.org/Graphics/SVG/1.1/DTD/svg11.dtd"><svg t="1750061939733" class="icon" viewBox="0 0 1024 1024" version="1.1" xmlns="http://www.w3.org/2000/svg" p-id="43466" xmlns:xlink="http://www.w3.org/1999/xlink" width="200" height="200"><path d="M512 512m-512 0a512 512 0 1 0 1024 0 512 512 0 1 0-1024 0Z" fill="#79919D" p-id="43467"></path><path d="M512 625.777778c62.179556 0 113.777778-51.598222 113.777778-113.777778s-51.598222-113.777778-113.777778-113.777778-113.777778 51.598222-113.777778 113.777778 51.598222 113.777778 113.777778 113.777778z m217.713778-85.731556l61.610666 46.762667c5.461333 3.982222 6.826667 11.946667 2.730667 18.659555l-58.88 98.816c-4.096 6.712889-10.922667 8.021333-17.806222 5.347556l-72.533333-28.046222c-15.075556 10.695111-31.516444 21.390222-49.322667 28.046222l-10.922667 74.808889c-1.422222 6.656-6.826667 12.003556-13.710222 12.003555h-117.76c-6.826667 0-12.344889-5.347556-13.653333-12.003555l-10.979556-74.808889a179.939556 179.939556 0 0 1-49.322667-28.046222l-72.533333 28.046222c-6.826667 2.673778-13.653333 1.365333-17.806222-5.347556l-58.88-98.816c-4.096-6.656-2.730667-14.677333 2.730667-18.659555l61.610666-46.762667C292.977778 530.716444 292.977778 521.329778 292.977778 512c0-9.329778 0-18.716444 1.365333-28.046222L232.675556 437.191111c-5.461333-3.982222-6.826667-11.946667-2.730667-18.659555L288.824889 319.715556c4.096-6.712889 10.922667-8.021333 17.806222-5.347556l72.533333 28.046222c15.075556-10.695111 31.516444-21.390222 49.322667-28.046222l10.922667-74.808889c1.422222-6.656 6.826667-12.003556 13.710222-12.003555h117.76c6.826667 0 12.344889 5.347556 13.653333 12.003555l10.979556 74.808889c17.806222 6.656 34.247111 16.042667 49.322667 28.046222l72.533333-28.046222c6.826667-2.673778 13.653333-1.365333 17.806222 5.347556l58.88 98.816c4.096 6.656 2.730667 14.677333-2.730667 18.659555l-61.610666 46.762667c1.365333 9.329778 1.365333 18.716444 1.365333 28.046222 0 9.329778 0 18.716444-1.365333 28.046222z" fill="#FFFFFF" p-id="43468"></path></svg>