<?xml version="1.0" encoding="utf-8"?>
<!-- Generator: Adobe Illustrator 24.0.0, SVG Export Plug-In . SVG Version: 6.00 Build 0)  -->
<svg version="1.1" id="layer5" xmlns="http://www.w3.org/2000/svg" xmlns:xlink="http://www.w3.org/1999/xlink" x="0px" y="0px"
	 viewBox="0 0 1920 1080" style="enable-background:new 0 0 1920 1080;" xml:space="preserve">
<style type="text/css">
</style>
<g>
	<path class="horizontal-line-st0" d="M1787.7,249.1h-37.5c-0.9-3-3.6-5.2-7-5.2c-4,0-7.3,3.3-7.3,7.3s3.2,7.3,7.3,7.3c3.4,0,6.2-2.3,7-5.3h35.8
		l30,30h103.8v-4.1h-102.1L1787.7,249.1z M1743.2,256.4c-2.9,0-5.3-2.4-5.3-5.3c0-2.9,2.4-5.3,5.3-5.3s5.3,2.4,5.3,5.3
		C1748.5,254,1746.1,256.4,1743.2,256.4z"/>
	<path class="horizontal-line-st0" d="M1644.9,242.9h-167.5l-27.6-27.6h-18.5h-18h-222.4l-27.5,27.6h-31.6c-0.5-1.8-2.1-3.2-4.1-3.2
		c-2.3,0-4.2,1.9-4.2,4.2c0,2.3,1.9,4.2,4.2,4.2c2,0,3.6-1.4,4.1-3.2h32.4l27.6-27.5h221.5h18h17.6l27.6,27.6h166.3l-12.9,12.9h-54
		c-0.8-1.7-2.5-2.8-4.4-2.8c-2.7,0-4.9,2.2-4.9,4.9c0,2.7,2.2,4.9,4.9,4.9c2,0,3.7-1.2,4.5-2.9h55.6l17-17h64.2
		c0.5,1.8,2.1,3.2,4.1,3.2c2.3,0,4.2-1.9,4.2-4.2c0-2.4-1.9-4.2-4.2-4.2c-1.9,0-3.5,1.3-4,3.1h-62.2l14.3-14.3h254.8v-4.1h-256.5
		L1644.9,242.9z"/>
	<path class="horizontal-line-st0" d="M1694,175.1h-41.2c-0.9-3-3.7-5.3-7.1-5.3c-4,0-7.3,3.3-7.3,7.4c0,4,3.3,7.3,7.4,7.3c3.3,0,6.1-2.2,7-5.3h39.5
		l30.3,30.3h197.2v-4.1h-195.5L1694,175.1z M1645.8,182.4c-2.9,0-5.3-2.4-5.3-5.3c0-2.9,2.4-5.3,5.3-5.3c2.9,0,5.3,2.4,5.3,5.3
		C1651.1,180,1648.7,182.4,1645.8,182.4z"/>
	<path class="horizontal-line-st0" d="M1919.8,100.5h-363.4l-31.8,30.7h-43.1c-0.8-1.7-2.5-2.9-4.5-2.9c-2.7,0-4.9,2.2-4.9,4.9
		c0,2.7,2.2,4.9,4.9,4.9c2,0.1,3.7-1.2,4.5-2.9h45.2l31.8-30.6h361.3V100.5z"/>
	<path class="horizontal-line-st0" d="M1919.8,80.7h-307.7l-10.2-10.2h77.6c0.8,1.7,2.5,2.9,4.5,2.9c2.7,0,4.9-2.2,4.9-4.9s-2.2-4.9-4.9-4.9
		c-1.9,0-3.6,1.2-4.4,2.8h-81.8L1587.4,56h-40.8c-0.5-1.8-2.1-3.1-4.1-3.2c-2.3,0-4.2,1.9-4.2,4.2c0,2.3,1.9,4.2,4.2,4.2
		c1.9,0,3.5-1.3,4-3.1h40.1l8.3,8.3h-194.6l-32.5,32.5h-4.6h-37h-178.7l-24.7,32.5h-30.4c-0.8-3.4-3.8-5.9-7.4-5.9
		c-4.2,0-7.6,3.4-7.6,7.6s3.4,7.6,7.6,7.6c3.4,0,6.2-2.2,7.2-5.2h31.8l24.8-32.5h177.4h37h6.3l32.5-32.5h197l10.2,10.2h-131.6
		l-38.1,36h-46.8c-0.8-1.7-2.5-2.9-4.5-2.9c-2.7,0-4.9,2.2-4.9,4.9c0,2.7,2.2,4.9,4.9,4.9c1.9,0,3.6-1.2,4.4-2.8h48.7l38.1-36h133.9
		l7.7,7.7h298.7v-2h-297.9l-5.7-5.7h303.6V80.7z M1085,138.7c-3.1,0-5.6-2.5-5.6-5.6c0-3.1,2.5-5.6,5.6-5.6s5.6,2.5,5.6,5.6
		C1090.6,136.2,1088.1,138.7,1085,138.7z"/>
	<path class="horizontal-line-st0" d="M1626.1,32.4L1615,21.3h-46.7c-0.5-1.8-2.1-3.2-4.1-3.2c-2.3,0-4.2,1.9-4.2,4.2c0,2.3,1.9,4.2,4.2,4.2
		c2,0,3.6-1.4,4.1-3.2h45.8l10.6,10.5l-13.2,13.2h-37.1c-0.8-1.6-2.5-2.8-4.4-2.8c-2.7,0-4.9,2.2-4.9,4.9c0,2.7,2.2,4.9,4.9,4.9
		c1.9,0,3.7-1.2,4.4-2.9h38.8l14.5-14.4l14.9,14.9h171.1l-9.8,9.8h-28c-0.5-1.8-2.1-3.1-4-3.1c-2.3,0-4.2,1.9-4.2,4.2
		s1.9,4.2,4.2,4.2c2,0,3.6-1.4,4.1-3.2h28.7l11.9-11.9h103.3v-2.1h-101.2l11.5-11.5h89.7v-2h-90.6l-13.5,13.5h-172.4L1629,35.3
		l16.6-16.6h86.2l-7.5,7.5h-31.1c-0.4-1.8-2-3.2-4.1-3.2c-2.3,0-4.2,1.9-4.2,4.2c0,2.3,1.9,4.2,4.2,4.2c2,0,3.6-1.4,4.1-3.2h32
		l9.5-9.5h185.1v-4.1h-181l12.1-12.1h168.9v-2H1750l-14.1,14.1h-92L1626.1,32.4z"/>
	<path class="horizontal-line-st0" d="M1219.6,76.9h5l35-35h277.6c0.8,1.6,2.5,2.8,4.4,2.8c2.7,0.1,4.9-2.1,4.9-4.9c0-2.7-2.2-4.9-4.9-4.9
		c-2,0-3.7,1.2-4.5,2.9h-279.2l-35,35h-56.8v0.1H936l-35,35h-50.6c-0.8-1.7-2.5-2.8-4.4-2.8c-2.7,0-4.9,2.2-4.9,4.9s2.2,4.9,4.9,4.9
		c2,0,3.7-1.2,4.5-2.9h52.1l35.1-35L1219.6,76.9L1219.6,76.9z"/>
	<path class="horizontal-line-st0" d="M1596,116.6c-0.5-1.8-2.1-3.2-4.1-3.2c-2.3,0-4.2,1.9-4.2,4.2s1.9,4.2,4.2,4.2c1.9,0,3.5-1.3,4-3.1h37.2l26,26
		h260.7v-2.1H1660l-26-26H1596z"/>
	<path class="horizontal-line-st0" d="M1656.5,187.9h-32.4c-0.5-1.8-2.1-3.1-4-3.1c-2.3,0-4.2,1.9-4.2,4.2s1.9,4.2,4.2,4.2c2,0,3.6-1.4,4.1-3.2h31.5
		l27.5,27.6h236.6v-2.1h-235.7L1656.5,187.9z"/>
	<path class="horizontal-line-st0" d="M1318.9,33c1.8,0,3.4-1.2,3.9-2.8h46.8L1398,1.8h276.4v-2h-277.3l-28.3,28.3H1323c-0.3-2-2.1-3.5-4.1-3.5
		c-2.3,0-4.2,1.9-4.2,4.2C1314.7,31.1,1316.6,33,1318.9,33z"/>
	<path class="horizontal-line-st0" d="M1281.7,168.2h44.2l29.8,29.7h236.2c0.5,1.8,2.1,3.2,4.1,3.2c2.3,0,4.2-1.9,4.2-4.2c0-2.3-1.8-4.2-4.2-4.2
		c-2,0-3.6,1.4-4.1,3.2h-235.4l-29.7-29.8h-45.1h-4.3h-235.2l-29.8-29.7h-43.3c-0.4-2-2.1-3.4-4.1-3.4c-2.3,0-4.2,1.9-4.2,4.2
		c0,2.3,1.9,4.2,4.2,4.2c1.9,0,3.5-1.3,4-3h42.6l29.7,29.8h236.1H1281.7z"/>
	<path class="horizontal-line-st0" d="M1920,161.8v-2h-56.6l-5.8,5.8h-294.4l9.2-9.2h347.4v-4.1h-349.1l-13.3,13.3h-192.7l-28.2-30.6h-33.3
		c-0.4-1.9-2.1-3.2-4.1-3.2c-2.3,0-4.2,1.9-4.2,4.2s1.9,4.2,4.2,4.2c1.9,0,3.5-1.3,4-3.1h32.3l28.2,30.5h191.8l-18.1,18.1h-50.1
		c-0.8-2.3-3-4-5.6-4c-3.3,0-6,2.7-6,6c0,3.3,2.7,6,6,6c2.6,0,4.7-1.6,5.6-3.9h51.8l22.2-22.2h294.4l-17.6,17.6h-28
		c-0.5-1.8-2-3.1-4-3.1c-2.3,0-4.2,1.9-4.2,4.2s1.9,4.2,4.2,4.2c2,0,3.6-1.4,4.1-3.2h28.8l19.6-19.7h61.3v-2h-59.3l3.8-3.8H1920z
		 M1481.6,191.6c-2.2,0-3.9-1.7-3.9-3.9c0-2.2,1.7-3.9,3.9-3.9c2.1,0,3.9,1.8,3.9,3.9C1485.5,189.9,1483.8,191.6,1481.6,191.6z"/>
</g>
<g>
	<path class="horizontal-line-st0" d="M319.3,855.6c2.9,0,5.2-2.3,5.1-5.2c0-2.9-2.3-5.2-5.2-5.1c-1.4,0-2.7,0.5-3.6,1.5c-1,1-1.5,2.3-1.5,3.7
		C314.1,853.4,316.4,855.7,319.3,855.6z"/>
	<polygon class="horizontal-line-st0" points="208,851.7 314.1,851.7 314.1,850.5 314.1,849.3 209,849.3 183.2,822.9 0,822.9 0,825.3 182.2,825.3 	
		"/>
	<path class="horizontal-line-st0" d="M560,1010.5c-1.9-0.5-3.9,0-5.3,1.4c-2,2-2,5.3,0,7.3l-7.9,13.1H391l-15.6,16.8H224.2l-27.6,27.6H0v2.4h197.6
		l27.6-27.6h151.3l15.6-16.8h156.2l8.6-14.3c2.7,0.9,5.6-0.6,6.5-3.4C564.3,1014.3,562.8,1011.4,560,1010.5z"/>
	<path class="horizontal-line-st0" d="M435.1,902.8c1.6-1.5,1.6-4.1,0-5.6c-1.5-1.6-4.1-1.6-5.6,0s-1.6,4.1,0,5.6
		C431.1,904.4,433.6,904.4,435.1,902.8z"/>
	<path class="horizontal-line-st0" d="M810.3,1025.6c-1.5,1.6-1.5,4.1,0,5.6c1.5,1.6,4.1,1.6,5.6,0s1.6-4.1,0-5.6
		C814.4,1024,811.8,1024,810.3,1025.6z"/>
	<path class="horizontal-line-st0" d="M1695.8,1049.1h-151.2l-15.6-16.8h-155.9l-7.9-13.1c2-2,2-5.3,0-7.3s-5.3-2-7.3,0s-2,5.3,0,7.3
		c1.4,1.4,3.4,1.9,5.2,1.3l8.6,14.3h156.2l15.6,16.8h151.3l27.6,27.6H1920v-2.4h-196.6L1695.8,1049.1z"/>
	<path class="horizontal-line-st0" d="M1920.1,872.8v-2.4h-93.2l-0.4,0.4l-18.7,18.8h-80.6l34-36.6H1920v-4.8h-160.9l-38.5,41.3l-14.1-13.2h-242.2
		l-0.4,0.4l-39.8,40.5l-37.6-36h-78.8l30.9-34.9h89c0.3,0.5,0.6,1,1,1.5c2.1,2.2,5.6,2.2,7.8,0.1c2.2-2.1,2.2-5.6,0.1-7.8
		s-5.6-2.2-7.8-0.1c-0.4,0.4-0.8,1-1.1,1.5h-91.2l-35.1,39.7h-50l-10.7,9.8l-21.5-20.7h-79l-25.6,26.5l-23.3-21.7h-58.9l-32.8-32.4
		h-79.3l-32.8,32.4h-58.9l-23.3,21.7l-25.6-26.5h-79L679.1,891l-10.7-9.8h-50l-35.1-39.7h-91.2c-1.3-2.7-4.6-3.9-7.4-2.6
		c-2.7,1.3-3.9,4.6-2.6,7.4c1.3,2.7,4.6,3.9,7.4,2.6c1.1-0.5,2-1.4,2.6-2.6h89l30.9,34.9h-78.7l-37.6,36L456,876.7l-0.4-0.4H213.4
		l-14.1,13.2l-38.4-41.4H0v4.8h158.8l34,36.6h-80.7l-18.7-18.8l-0.3-0.4H0v2.4h92.2l16.7,16.8H0v2.4h111.2l41.2,41.5l-22,20.6
		l-18.7-18.9H70l-20.4,23.2H0v4.8h51.8l20.4-23.2h37.5l17.2,17.4l-25.1,23.4H0v2.4h102.7l25.8-24.1l15.6,15.8
		c-0.9,2.9,0.6,5.9,3.5,6.9c2.9,0.9,5.9-0.6,6.9-3.5c0.9-2.9-0.6-5.9-3.5-6.9c-1.1-0.4-2.4-0.3-3.5,0.1l-15.4-15.6l22-20.6
		l36.5,36.8l-59.2,59.2H0v4.8h133.3l60.6-60.6l31.5,31.8l-50.5,50.5H0v2.4h176l51.2-51.2l9.9,10l0.4,0.4h254.3l15.4-20.1
		c2.7,1.2,6,0,7.2-2.7s0-6-2.7-7.2s-6,0-7.2,2.7c-0.9,1.9-0.6,4.2,0.8,5.8l-14.6,19.1H238.4l-9.6-9.6l50.4-50.4h43.9l26.7,26.1
		l0.4,0.3h165.5l10.8-12h165.2l73.2,82.9h127.3l27.2-28.8h81l27.2,28.8h127.3l73.2-82.8h165.2l10.8,12h165.5l0.4-0.3l26.7-26.1h43.9
		l50.4,50.4l-9.6,9.6h-252.2l-14.6-19.1c2-2.3,1.7-5.8-0.6-7.7c-2.3-2-5.8-1.7-7.7,0.6c-2,2.3-1.7,5.8,0.6,7.7
		c1.6,1.4,3.9,1.7,5.8,0.8l15.4,20.1h254.3l0.4-0.4l9.9-10l51.2,51.2h176v-2.4h-175l-50.5-50.5l31.5-31.8l60.6,60.6H1920v-4.8
		h-131.2l-59.2-59.2l36.5-36.8l22,20.6l-15.4,15.6c-2.8-1-6,0.4-7,3.3c-1,2.8,0.4,6,3.3,7c2.8,1,6-0.4,7-3.3
		c0.4-1.1,0.4-2.4,0.1-3.5l15.6-15.8l25.8,24.1H1920v-2.4h-101.8l-25.1-23.5l17.2-17.4h37.5l20.4,23.2h51.8v-4.8h-49.6l-20.4-23.2
		h-41.7l-18.7,18.9l-22-20.6l41.2-41.5H1920v-2.4h-108.8l16.7-16.8H1920.1z M1430.1,841.4c1.4-1.4,3.7-1.4,5.1,0s1.4,3.7,0,5.1
		c-1.4,1.4-3.7,1.4-5.1,0S1428.7,842.8,1430.1,841.4z M489.9,846.5c-1.4,1.4-3.7,1.4-5.1,0c-1.4-1.4-1.4-3.7,0-5.1
		c1.4-1.4,3.7-1.4,5.1,0C490.9,842.7,490.5,844.8,489.9,846.5z M146.8,973.9c1.4-1.4,3.7-1.4,5.1,0c1.4,1.4,1.4,3.7,0,5.1
		c-1.4,1.4-3.7,1.4-5.1,0C145.4,977.6,145.4,975.3,146.8,973.9z M506.8,991.5c1.4-1.4,3.7-1.4,5.1,0c1.4,1.4,1.4,3.7,0,5.1
		c-1.4,1.4-3.7,1.4-5.1,0C506.1,995.5,507.1,993.4,506.8,991.5z M1413.2,996.6c-1.4,1.4-3.7,1.4-5.1,0s-1.4-3.7,0-5.1
		c1.4-1.4,3.7-1.4,5.1,0S1414.6,995.2,1413.2,996.6z M1773.2,979c-1.4,1.4-3.7,1.4-5.1,0s-1.4-3.7,0-5.1c1.4-1.4,3.7-1.4,5.1,0
		C1774.6,975.3,1774.6,977.6,1773.2,979z M1465.4,878.7h240.3l11.6,10.8h-54.8l-0.4,0.3l-35.4,34.5h-113.9l-18.2-19.9
		c2.4-3.8,1.3-8.8-2.5-11.2s-8.8-1.3-11.2,2.5c-2.4,3.8-1.3,8.8,2.5,11.2c2.2,1.4,5,1.7,7.5,0.7l19.8,21.6h111.1l-7.4,7.2h-170.1
		l-18.2-17.5L1465.4,878.7z M1718.4,891.9l-30.1,32.4h-58.1l33.3-32.4H1718.4z M1492.7,905c-2.8,2.8-7.3,2.8-10,0
		c-2.8-2.8-2.8-7.2,0-10s7.2-2.8,10,0S1495.5,902.2,1492.7,905z M1303.7,886h81l36.2,34.6l-16.5,16.9H1289l-16.6-16.1L1303.7,886z
		 M1253.3,886h43.9l-28.4,32.1l-24.6-23.7L1253.3,886z M1141.3,872.7h77l20.7,20l-33.1,30.5H1143l-26.6-24.7L1141.3,872.7z
		 M1089.4,879.9l21.9,20.3l-26.1,27l-47.9-47.4L1089.4,879.9z M921.3,845.1h77.4l30.3,30H891L921.3,845.1z M1033.9,879.9l49.6,49.1
		l-34.6,35.7l-9.6-10.4H880.7l-9.7,10.4L836.5,929l49.6-49.1H1033.9z M885.5,983.1h149l14.4-14.9l27.7,29.8l-7.1,6.7h-219l-7.1-6.7
		l27.7-29.8L885.5,983.1z M872.7,966.5l9-9.7h156.5l9.1,9.7l-13.8,14.3h-147L872.7,966.5z M830.5,879.9h52.2l-47.9,47.4l-26.1-27
		L830.5,879.9z M701.7,872.7h77l24.9,25.7L777,923.1h-62.9L681,892.7L701.7,872.7z M666.6,886l9.1,8.4l-24.5,23.7L622.8,886H666.6z
		 M535.3,886h81.1l31.3,35.4l-16.6,16.1H515.7l-16.5-16.9L535.3,886z M214.3,878.7h240.3l39.4,40.2l-18.2,17.5H305.6l-7.4-7.2h111.1
		l19.8-21.7c4.1,1.7,8.9-0.2,10.6-4.3s-0.2-8.9-4.3-10.6c-4.1-1.7-8.9,0.2-10.6,4.3c-1,2.5-0.8,5.3,0.6,7.5l-18.2,19.9h-114
		l-35.4-34.5l-0.4-0.3h-54.8L214.3,878.7z M427.3,905c-2.8-2.8-2.8-7.2,0-10s7.2-2.8,10,0s2.8,7.2,0,10S430.1,907.8,427.3,905z
		 M256.6,891.9l33.2,32.4h-58.1l-30.1-32.4H256.6z M114.6,891.9h80.5l0.8,0.8l-41.7,39L114.6,891.9z M192.4,970.2l-36.6-36.7
		l41.7-39l32.2,34.6h65.2l7.4,7.2h-76.1L192.4,970.2z M278.2,954.3l-51.1,51.1l-31.5-31.8l32.5-32.5h79.1l13.6,13.2H278.2z
		 M525.4,968.9L525.4,968.9l-10.8,11.9H351.2l-24.6-24h216c0.7,2.8,3.5,4.5,6.2,3.8c2.8-0.7,4.5-3.5,3.8-6.2
		c-0.7-2.8-3.5-4.5-6.2-3.8c-0.9,0.2-1.8,0.7-2.4,1.4c-0.7,0.7-1.1,1.5-1.4,2.5H324.1l-13.6-13.2h167.1l19.7-18.8l17.3,17.6H632
		l17.3-16.7l40.2,45.5H525.4z M652.8,920l24.8-23.9l34.7,31.9H779l28-26l26.2,27.1l-18.4,18.2l-101.4-0.2c-0.7-2.8-3.4-4.5-6.2-3.8
		c-0.9,0.2-1.8,0.7-2.5,1.4c-2,2-2,5.3,0,7.3s5.3,2,7.3,0c0.7-0.7,1.2-1.5,1.4-2.5h102.3l19.1-18.8l34.6,35.8l-27.8,30l-29.2-27.4
		l-0.3-0.3H696L652.8,920z M1152.9,1049.1h-123.1l-27.2-28.8h-85.2l-27.2,28.8H767.1l-69-78h113l28.9,27l-22,23.7
		c-3.6-2.7-8.7-1.9-11.3,1.7c-2.6,3.6-1.9,8.7,1.7,11.3c3.6,2.7,8.7,1.9,11.3-1.7c2.2-3,2.1-7.1-0.3-10l0.3,0.3l22-23.7l7.5,7
		l0.3,0.3h220.9l0.3-0.3l7.5-7l22,23.7l0.3-0.3c-2.9,3.5-2.4,8.6,1.1,11.4c3.5,2.9,8.6,2.4,11.4-1.1c2.9-3.5,2.4-8.6-1.1-11.4
		c-2.9-2.4-7-2.5-10-0.3l-22-23.7l28.9-27h113L1152.9,1049.1z M818.1,1023.4c2.8,2.8,2.8,7.2,0,10s-7.2,2.8-10,0s-2.8-7.2,0-10
		C810.9,1020.7,815.4,1020.7,818.1,1023.4z M1101.9,1023.4c2.7-2.7,7.2-2.7,10,0c2.8,2.8,2.8,7.2,0,10s-7.2,2.8-10,0
		S1099.1,1026.2,1101.9,1023.4z M1224.1,968.6H1108l-0.3,0.3l-29.2,27.4l-27.9-29.8l34.6-35.8l19.1,18.8h102.3
		c0.2,0.9,0.7,1.8,1.4,2.5c2,2,5.3,2,7.3,0s2-5.3,0-7.3s-5.3-2-7.3,0c-0.7,0.7-1.1,1.5-1.4,2.4h-101.3l-18.4-18.2l26.2-27.1l28,26
		h66.7l34.7-31.9l24.8,23.9L1224.1,968.6z M1596,954.4h-218.5c-0.7-2.8-3.4-4.5-6.2-3.8c-2.8,0.7-4.5,3.4-3.8,6.2s3.4,4.5,6.2,3.8
		c0.9-0.2,1.8-0.7,2.4-1.4c0.7-0.7,1.1-1.5,1.4-2.4h216l-24.7,23.9h-163.4l-10.8-11.9h-164.1l40.2-45.5L1288,940h117.4l17.3-17.6
		l19.7,18.8h167.2L1596,954.4z M1692.8,1005.4l-51.1-51.1h-42.5l13.6-13.2h79l32.5,32.5L1692.8,1005.4z M1727.7,970.2l-33.9-33.9
		h-76.1l7.4-7.2h65.2l32.2-34.6l41.7,39L1727.7,970.2z M1765.9,931.8l-41.7-39l0.8-0.8l80.4-0.1L1765.9,931.8z"/>
	<path class="horizontal-line-st0" d="M1600.7,855.7c1.4,0,2.7-0.5,3.6-1.5c1-1,1.5-2.3,1.5-3.7v1.2H1712l25.8-26.4H1920v-2.4h-183.2l-25.8,26.4
		h-105.1v1.2c0-2.9-2.3-5.2-5.2-5.2c-2.9,0-5.2,2.3-5.2,5.2S1597.8,855.7,1600.7,855.7z"/>
	<path class="horizontal-line-st0" d="M1233.4,1018.2c-2-1.1-4.6-0.8-6.2,0.9c-1.7,1.7-2,4.4-0.7,6.4l-49,51.2h-167l-24-26.4h-53l-24,26.4h-167
		l-49-51.2c1.6-2.4,0.9-5.6-1.5-7.1c-2.4-1.6-5.6-0.9-7.1,1.5c-1.6,2.4-0.9,5.6,1.5,7.1c1.6,1.1,3.7,1.1,5.4,0.1l49.7,52h169.1
		l24-26.4h50.9l24,26.4h169.1l49.7-52c2.5,1.4,5.6,0.6,7-1.9S1235.9,1019.6,1233.4,1018.2z"/>
	<path class="horizontal-line-st0" d="M1484.9,897.2c-1.6,1.5-1.6,4.1,0,5.6c1.5,1.6,4.1,1.6,5.6,0c1.6-1.5,1.6-4.1,0-5.6S1486.4,895.7,1484.9,897.2
		z"/>
	<circle class="horizontal-line-st0" cx="1106.9" cy="1028.4" r="4"/>
</g>
</svg>
