<?xml version="1.0" encoding="utf-8"?>
<!-- Generator: Adobe Illustrator 24.0.0, SVG Export Plug-In . SVG Version: 6.00 Build 0)  -->
<svg version="1.1" id="layer4" xmlns="http://www.w3.org/2000/svg" xmlns:xlink="http://www.w3.org/1999/xlink" x="0px" y="0px"
	 viewBox="0 0 1920 1080" style="enable-background:new 0 0 1920 1080;" xml:space="preserve">
<style type="text/css">
	.prismatic-st0{opacity:0.7;clip-path:url(#SVGID_2_);}
	.prismatic-st1{opacity:0.3;}
	.prismatic-st2{opacity:0.5;enable-background:new    ;}
	.prismatic-st3{opacity:0.8;enable-background:new    ;}
	.prismatic-st4{opacity:0.3;enable-background:new    ;}
	.prismatic-st5{opacity:0.4;enable-background:new    ;}
	.prismatic-st6{opacity:0.4;}
	.prismatic-st8{opacity:0.35;}
</style>
<g>
	<g>
		<defs>
			<rect id="SVGID_1_" x="-0.3" y="-0.5" width="1920" height="1080"/>
		</defs>
		<clipPath id="SVGID_2_">
			<use xlink:href="#SVGID_1_"  style="overflow:visible;"/>
		</clipPath>
		<g class="prismatic-st0">
			<g class="prismatic-st1">
				<path class="prismatic-st2" d="M-784,995.9l0.3,0.5l45.9,79.6h91.3l45.6,79.1h91.3l45.6,79.1h92.4l0.3-0.5l45.4-78.6h90.2l45.6,79.1h91.3
					l45.6,79.1h91.3l45.7,79h92.4l0.3-0.5l45.4-78.6h91.3l0.3-0.5l45.4-78.6h90.2l45.6,79.1H586l45.6,79.1H724l45.6-79.1H861
					l45.7-79.1h90.2l45.6,79.1h92.4l45.6-79.1h91.3l45.7-79.1h90.2l45.6,79.1h92.4l45.6-79.1h91.3l0.3-0.5l45.9-79.5l-46.2-80.1
					h-91.3l-45.6-79.1h-91.3l-45.6-79.1h-92.4l-0.3,0.5l-45.4,78.6h-90.2l-45.6-79.1h-91.3L998,757.6h-91.3l-45.7-79h-92.4l-0.3,0.5
					l-45.4,78.6h-91.3l-0.3,0.5L586,836.8h-90.2l-45.6-79.1h-91.3l-45.6-79.1h-92.4l-0.3,0.5l-45.4,78.6H83.9l-0.3,0.5l-45.4,78.6
					H-52l-45.6-79.1H-190l-0.3,0.5l-45.4,78.6H-327l-0.3,0.5l-45.4,78.6h-90.2l-45.6-79.1h-92.4l-0.3,0.5l-45.4,78.6h-91.3l-0.3,0.5
					L-784,995.9z M-464.5,916.9l-45.1,78.1h-90.2l-26.1-45.1l-19-32.9l45.1-78.1h90.2L-464.5,916.9z M-492.9,1021.7l-14.9-25.8
					l45.1-78.1h90.2L-347,962l19.6,33.9l-45.1,78.1h-90.2L-492.9,1021.7z M-348.4,1114l-22.6-39l5.9-10.2l39.2-67.9h90.2l45.1,78.1
					l-45.1,78.1h-90.2L-348.4,1114z M-81.6,1101.7L-97,1075l45.1-78.1h90.1l25.8,44.7l19.3,33.4l-45.1,78.1h-90.1L-81.6,1101.7z
					 M39.9,1154l45.1-78h90.1l45.1,78.1l-45.1,78.1H85L39.9,1154z M329,1180.5l-15.2-26.4l45.1-78.1H449l45.1,78.1l-20.9,36.1
					l-24.2,42h-90.2L329,1180.5z M587.7,1154l45.1-78.1H723l45,78.1l-45.1,78.1h-90.2L587.7,1154z M884.1,1193.1l-22.6-39l37.9-65.6
					l7.2-12.5h90.2l45,78.1l-22.6,39l-22.6,39h-90.1L884.1,1193.1z M1043.6,1153.1l-45.1-78.1l45.1-78.1h90.2l45.1,78.1l-45.1,78.1
					H1043.6z M1317.5,1153.1l-45.1-78.1l22.6-39l22.6-39h90.2l45.1,78.1l-22.5,39l-22.6,39H1317.5z M1180.5,1074l-45.1-78.1
					l36.5-63.3l8.5-14.8h90.2l45.1,78.1l-34.6,60l-10.4,18.1H1180.5z M905,916.9L859.9,995h-90.2l-45.1-78.1l45.1-78.1h90.2
					L905,916.9z M586,838.8l45.1,78.1l-35.5,61.4l-9.6,16.6h-90.2l-3.4-5.8l-41.7-72.3l22.3-38.5l22.8-39.5H586z M357.2,916.9
					L312.1,995h-90.2l-45.1-78.1l45.1-78.1h90.2L357.2,916.9z M64,883.5l19.3,33.4L38.2,995h-90.1L-97,916.9l45.1-78.1h90.1
					L64,883.5z M175.1,917.9l45.1,78.1l-45.1,78.1H85l-29.2-50.5L39.9,996L85,917.8L175.1,917.9z M358.8,917.9H449l44.5,77.1
					l0.5,0.9l-4.3,7.4L449,1074h-90.2l-29.8-51.7l-15.2-26.4L358.8,917.9z M722.9,917.9L768,996l-37.9,65.7l-7.1,12.4h-90.2
					l-22.6-39l-22.6-39l35.5-61.4l9.6-16.6L722.9,917.9z M906.6,917.9h90.2l45.1,78.1l-45.1,78.1h-90.2l-22.6-39l-22.6-39
					L906.6,917.9z M769.7,1153.1l-45.1-78.1l22.6-39l22.6-39H860l45,78l-37.9,65.6l-7.2,12.5H769.7z M586,1153.1h-90.1l-45.1-78.1
					l45.1-78.1H586l45.1,78.1L586,1153.1z M221.9,1153.1l-45.1-78.1l45.1-78.1h90.2l26.4,45.8l18.7,32.3l-45.1,78.1L221.9,1153.1z
					 M-188.9,1074l-45.1-78.1l45.1-78.1h90.2l45.1,78.1l-45.1,78.1H-188.9z M-325.8,838.8h90.2l26.4,45.8l18.7,32.3l-45.1,78.1
					h-90.2l-25.5-44.1l-19.6-33.9L-325.8,838.8z M-53.6,837.8l-45.1,78.1h-90.1l-26.4-45.8l-18.6-32.3l45.1-78.1h90.2L-53.6,837.8z
					 M85,759.7h90.1l26.4,45.8l18.7,32.3l-45.1,78.1H85l-25.8-44.7l-19.3-33.4L85,759.7z M357.2,758.7l-45.1,78.1h-90.2L195.5,791
					l-18.7-32.3l45.1-78.1h90.2L357.2,758.7z M494.1,837.8l-22.9,39.6L449,915.9h-90.2l-45.1-78.1l45.1-78.1H449L494.1,837.8z
					 M632.8,759.7H723l45.1,78.1L723,915.9h-90.2l-45.1-78.1L632.8,759.7z M905,758.7l-34.1,59.1l-11,19h-90.2l-45.1-78.1l45.1-78.1
					h90.2L905,758.7z M1041.9,837.8l-36.7,63.6l-8.3,14.5h-90.2l-45.1-78.1l34.1-59.1l11-19h90.2L1041.9,837.8z M1178.8,916.9
					l-36.5,63.3l-8.5,14.8h-90.2l-45.1-78.1l36.7-63.6l8.4-14.5h90.2L1178.8,916.9z M1452.7,916.9l-37.7,65.4l-7.3,12.7h-90.2
					l-45.1-78.1l45.1-78.1h90.2L1452.7,916.9z M1589.7,995.9l-37.9,65.7l-7.1,12.4h-90.2l-22.6-39l-22.6-39l37.7-65.4l7.3-12.7h90.2
					L1589.7,995.9z M1681.5,1153.1h-90.2l-22.6-39l-22.6-39l22.6-39l22.6-39h90.2l45.1,78.1L1681.5,1153.1z M1409.3,1154l22.6-39
					l22.6-39h90.2l22.5,39l22.6,39l-45.1,78.1h-90.3L1409.3,1154z M1270.7,1232.1h-90.2l-22.6-39l-22.6-39l45.1-78.1h90.2l45.1,78.1
					L1270.7,1232.1z M998.5,1233.1l22.6-39l22.6-39h90.2l22.6,39l22.6,39l-45.1,78.1h-90.2L998.5,1233.1z M859.9,1311.2h-90.2
					l-22.6-39l-22.6-39l45.1-78.1h90.2l22.6,39l22.6,39L859.9,1311.2z M587.7,1312.2l22.6-39l22.6-39H723l22.6,39l22.5,39
					l-45.1,78.1h-90.2L587.7,1312.2z M450.7,1233.1l25-43.2l20.1-34.8H586l45.1,78.1l-22.6,39l-22.6,39h-90.1L450.7,1233.1z
					 M312.1,1311.2h-90.2l-29.7-51.5l-15.4-26.6l45.1-78.1h90.2l29.8,51.7l15.3,26.4L312.1,1311.2z M39.9,1312.2l6-10.4l39.1-67.6
					h90.1l29.7,51.5l15.4,26.6l-45.1,78.1H85L39.9,1312.2z M-97,1233.1l45.1-78.1h90.1l45.1,78.1l-6,10.4l-39.1,67.7H-52L-97,1233.1
					z M-234,1154l45.1-78.1h90.2l29.7,51.3l15.4,26.8l-45.1,78.1h-90.1L-234,1154z M-507.9,1154l45.1-78.1h90.2l22.6,39l22.6,39
					l-45.1,78.1h-90.2L-507.9,1154z M-644.8,1075l45.1-78.1h90.2l26.8,46.3l18.3,31.7l-45.1,78.1h-90.1L-644.8,1075z M-781.8,995.9
					l45.1-78.1h90.1l26.1,45.1l19,32.9l-45.1,78.1h-90.1L-781.8,995.9z"/>
				<polygon class="prismatic-st3" points="1676.9,1145.1 1717.5,1075 1676.9,1004.8 1595.9,1004.8 1555.4,1075 1595.9,1145.1 				"/>
				<polygon class="prismatic-st4" points="855.3,1145.1 895.8,1075 855.3,1004.8 774.3,1004.8 733.8,1075 774.3,1145.1 				"/>
				<polygon class="prismatic-st4" points="1540,1066.1 1580.5,995.9 1540,925.8 1459,925.8 1418.5,995.9 1459,1066.1 				"/>
				<polygon class="prismatic-st4" points="1403.1,1145.1 1443.6,1075 1403.1,1004.8 1322.1,1004.8 1281.5,1075 1322.1,1145.1 				"/>
				<polygon class="prismatic-st2" points="1403.1,987 1443.6,916.9 1403.1,846.7 1322.1,846.7 1281.5,916.9 1322.1,987 				"/>
				<polygon class="prismatic-st3" points="1266.1,1066.1 1306.6,995.9 1266.1,925.8 1185.1,925.8 1144.6,995.9 1185.1,1066.1 				"/>
				<polygon class="prismatic-st4" points="1129.2,987 1169.7,916.9 1129.2,846.7 1048.2,846.7 1007.7,916.9 1048.2,987 				"/>
				<polygon class="prismatic-st3" points="992.2,1066.1 1032.7,995.9 992.2,925.8 911.2,925.8 870.7,995.9 911.2,1066.1 				"/>
				<polygon class="prismatic-st4" points="992.2,908 1032.7,837.8 992.2,767.6 911.2,767.6 870.7,837.8 911.2,908 				"/>
				<polygon class="prismatic-st4" points="855.3,828.9 895.8,758.7 855.3,688.6 774.3,688.6 733.8,758.7 774.3,828.9 				"/>
				<polygon class="prismatic-st3" points="718.4,908 758.9,837.8 718.4,767.6 637.3,767.6 596.8,837.8 637.3,908 				"/>
				<polygon class="prismatic-st4" points="718.4,1066.1 758.9,995.9 718.4,925.8 637.3,925.8 596.8,995.9 637.3,1066.1 				"/>
				<polygon class="prismatic-st4" points="581.4,987 621.9,916.9 581.4,846.7 500.4,846.7 459.9,916.9 500.4,987 				"/>
				<polygon class="prismatic-st2" points="581.4,1145.1 621.9,1075 581.4,1004.8 500.4,1004.8 459.9,1075 500.4,1145.1 				"/>
				<polygon class="prismatic-st4" points="170.6,1066.1 211.1,995.9 170.6,925.8 89.6,925.8 49,995.9 89.6,1066.1 				"/>
				<polygon class="prismatic-st4" points="170.6,908 211.1,837.8 170.6,767.6 89.6,767.6 49,837.8 89.6,908 				"/>
				<polygon class="prismatic-st3" points="307.5,1145.1 348,1075 307.5,1004.8 226.5,1004.8 186,1075 226.5,1145.1 				"/>
				<polygon class="prismatic-st3" points="444.5,908 485,837.8 444.5,767.6 363.5,767.6 323,837.8 363.5,908 				"/>
				<polygon class="prismatic-st4" points="307.5,828.9 348,758.7 307.5,688.6 226.5,688.6 186,758.7 226.5,828.9 				"/>
				<polygon class="prismatic-st5" points="444.5,1066.1 485,995.9 444.5,925.8 363.5,925.8 323,995.9 363.5,1066.1 				"/>
			</g>
			<g class="prismatic-st6">
				<path class="prismatic-st7" d="M56.7,1021.7l-5.2,9.1l5.2,9.1h10.4l4.7-8.2h91.1l8.6,14.8h17.1l45.5,78.9l-4.7,8.2l4.8,8.2l-45.5,78.8
					h-17.2l-9.1,15.7l9.1,15.7h18.1l9.1-15.7l-8.6-14.8l45.6-78.9h9.4l4.7-8.2h91l8.6,14.9h17.2l45.5,78.8l-4.8,8.2l4.8,8.3
					l-49.4,85.5h-9.5l-5.2,9.1l5.2,9.1h10.4l5.2-9.1l-4.7-8.2l49.4-85.5h9.4l4.7-8.2h98.7l4.7,8.2h9.5l45.5,78.9l-8.6,14.8l9.1,15.7
					h18.1l9.1-15.7l-9.1-15.7h-17.1l-45.6-78.9l4.7-8.1l-4.7-8.1l45.6-78.9h17.1l8.6-14.9h91l4.7,8.2h10.4l5.2-9.1l-4.7-8.1
					l45.6-78.9h17.1l8.6-14.8h91.1l4.7,8.2h9.5l49.4,85.5l-4.7,8.2l5.2,9.1h10.4l5.2-9.1l-5.2-9.1h-9.4l-49.4-85.5l4.7-8.1l-4.7-8.2
					l45.5-78.9h17.1l9-15.7l-9-15.7h-17.1l-45.5-78.8l4.8-8.3l-4.8-8.3l49.3-85.4h9.5l5.2-9.1l-5.2-9.1h-10.4l-5.2,9.1l4.7,8.2
					l-49.4,85.5h-9.3l-4.7,8.2h-98.8l-4.7-8.2h-9.6l-45.3-79l8.5-14.8l-9.1-15.7h-18.1l-9.1,15.7l9.1,15.7h17.1l45.6,78.9l-4.7,8.1
					l4.7,8.1l-49.4,85.5h-9.5l-4.7,8.2h-91.1l-8.6-14.8h-18.1l-9.1,15.7l8.6,14.9l-45.5,78.8h-9.5l-4.7,8.2h-98.7l-4.7-8.2h-9.5
					l-49.4-85.5l4.7-8.1l-4.7-8.2l45.5-78.9H427l9.1-15.7l-9.1-15.7h-18.1l-9.1,15.7l8.5,14.7l-45.6,79h-9.5l-4.7,8.2h-98.7
					l-4.7-8.2h-9.4l-49.3-85.4l4.8-8.3l-5.2-9.1h-10.5l-5.2,9.1l5.2,9.1h9.3l49.4,85.5l-4.8,8.2l4.8,8.2l-45.5,78.8h-17.1l-8.6,14.8
					H71.9l-4.7-8.2H56.7z M235.7,1124.4l-45.5-78.9l8.6-14.8l-8.6-14.9l45.5-78.8h9.5l4.7-8.2h98.7l4.7,8.2h9.5l49.4,85.5l-4.7,8.2
					l4.7,8.1l-45.5,78.9h-17.1l-8.6,14.8h-91.1l-4.7-8.2L235.7,1124.4z M413.6,1227.2l-45.6-78.9l8.5-14.8l-8.5-14.8l45.6-78.9h9.4
					l4.7-8.2h98.7l4.7,8.2h9.5l45.5,78.8l-8.6,14.9l8.6,14.9l-45.5,78.9h-9.5l-4.7,8.2h-98.8l-4.7-8.2L413.6,1227.2L413.6,1227.2z
					 M587.7,1117.8l-45.5-78.9l4.7-8.1l-4.7-8.2l45.5-78.9h17.1l8.6-14.9h91.1l4.7,8.2h9.5l45.5,78.8l-8.6,14.9l8.6,14.8l-45.5,78.8
					h-9.5l-4.7,8.2h-91.1l-8.6-14.8L587.7,1117.8z M765.7,1015l-45.5-78.9l4.7-8.1l-4.7-8.2l49.4-85.5h9.6l4.7-8.1h98.7l4.7,8.1h9.3
					l45.5,78.9l-8.6,14.9l8.6,14.9l-45.5,78.8h-9.5l-4.7,8.2h-91l-8.6-14.8L765.7,1015z"/>
				<path class="prismatic-st7" d="M1074.6,937l49.4,85.5l-4.7,8.2l4.7,8.2l-49.4,85.5h-9.5l-5.2,9.1l5.2,9.1h9.5l45.5,78.8l-8.6,14.9
					l9.1,15.7h18.1l8.5-14.8h91.1l4.7,8.2h10.4l5.2-9.1l-4.7-8.1l45.6-78.9h17.1l8.6-14.9h91l4.7,8.2h9.5l49.3,85.4l-4.8,8.2
					l5.2,9.1h10.4l5.2-9.1l-5.2-9h-9.4l-49.4-85.5l4.7-8.1l-4.7-8.1l49.4-85.5h9.4l4.7-8.2h91.1l8.6,14.8h18.1l9.1-15.7l-9.1-15.7
					h-18.1l-8.6,14.8h-91.1l-4.7-8.2h-9.5l-45.6-78.9l8.5-14.8l-8.5-14.8l45.6-79h9.6l5.2-9.1l-5.2-9.1h-10.4l-5.2,9.1l4.7,8.1
					l-45.6,79h-17.2l-8.6,14.8h-91l-4.7-8.2h-9.4l-45.5-78.8l8.6-14.9l-9-15.7h-18.1l-9,15.7l9,15.7h17l45.5,78.8l-4.7,8.2l4.7,8.2
					l-49.3,85.5h-9.5l-4.7,8.2h-98.7l-4.7-8.2h-9.5l-49.4-85.5l4.7-8.1l-5.2-9.1H1065l-5.2,9.1l5.2,9.1L1074.6,937z M1080.8,1133.5
					l-4.7-8.1l49.4-85.5h9.5l4.7-8.2h98.7l4.7,8.2h9.5l45.5,78.8l-8.6,14.9l8.6,14.9l-45.5,78.8h-9.5l-4.7,8.2h-91.1l-8.6-14.9
					h-17.1l-45.5-78.9L1080.8,1133.5z M1299.6,1117.8l-45.5-78.9l4.7-8.2l-4.7-8.2l49.4-85.5h9.4l4.7-8.2h91l8.6,14.9h17.2
					l45.5,78.8l-4.7,8.2l4.7,8.2l-49.4,85.5h-9.5l-4.7,8.2h-91.1l-8.6-14.8L1299.6,1117.8L1299.6,1117.8z"/>
			</g>
			<g class="prismatic-st8">
				<path class="prismatic-st7" d="M-336.2,1013.6h13l6.1-10.7h65.2l3.4,5.9h6.8l35.3,61.2l-3.4,5.9l3.8,6.5h7.5l3.4-5.9h70.7l3.4,5.9h6.8
					l35.4,61.3l-3.3,5.8l3.3,5.8l-32.6,56.5h-12.3l-6.5,11.2l6.5,11.2h13l6.5-11.2l-6.1-10.6l32.6-56.5h6.9l3.4-5.9H2.9l3.4,5.9H13
					l35.3,61.2L45,1223l3.8,6.5h7.5l3.8-6.5l-3.8-6.5h-6.8l-35.3-61.1l3.4-6l-3.4-5.9l32.5-56.4H59l6.1-10.6h65.2l3.4,5.9h7.5
					l3.8-6.5l-3.8-6.5h-7.5l-3.4,5.9H65.1l-6.1-10.7H46.7l-32.6-56.5l3.4-5.8l-3.4-5.9l32.6-56.5h12.2l6.5-11.2l-6.5-11.2H46
					l-6.5,11.2l6.1,10.7L13,995.8H6.2l-3.4,5.9h-65.2l-6.1-10.6h-12.3l-32.6-56.5l3.4-5.9l-3.8-6.5h-7.5l-3.4,5.9h-65.2l-6.1-10.6
					h-12.3l-32.6-56.5l3.4-5.8l-3.8-6.5h-7.5l-3.8,6.5l3.8,6.5h6.8l32.6,56.4l-6.2,10.7l6.2,10.7L-242,996h-6.8l-3.4,5.9h-65.2
					l-6.1-10.6h-13l-6.5,11.3L-336.2,1013.6z M-195.9,940l6.1-10.6h65.2l3.4,5.9h6.8l32.6,56.5l-6.1,10.7l6.1,10.6l-32.6,56.5h-6.8
					l-3.4,5.9h-70.6l-3.4-5.9h-6.8l-35.3-61.2l3.4-5.8l-3.4-5.9l32.6-56.5L-195.9,940z M-68.5,1013.6l6.1-10.7H2.9l3.4,5.9h6.8
					l32.6,56.4l-6.1,10.7l6.1,10.6L13.1,1143H6.4l-3.4,5.9h-70.7l-3.4-5.9H-78l-35.3-61.2l3.4-5.9l-3.4-5.9l32.6-56.5L-68.5,1013.6z
					"/>
				<path class="prismatic-st7" d="M183.6,1008.8l3.4-5.9h65.2l6.1,10.7h12.3l32.6,56.4l-3.4,5.9l3.4,5.9l-35.3,61.2h-6.7l-3.8,6.5l3.8,6.5
					h7.5l3.8-6.5l-3.4-5.9l35.3-61.1h6.8l3.4-5.9h70.7l3.4,5.9h6.8l32.7,56.5l-6.1,10.5l6.5,11.2h13l6.5-11.2l-6.5-11.2h-12.4
					l-32.6-56.5l3.4-5.9l-3.4-5.9l35.4-61.2h6.8l3.4-5.9h70.7l3.4,5.9h6.8l32.6,56.4l-6.1,10.7l6.4,11.2h13l6.1-10.6h65.2l3.4,5.9
					h6.8l35.4,61.3l-3.3,5.8l3.3,5.8l-32.6,56.5h-12.2l-6.5,11.2l6.5,11.3h13l6.5-11.3l-6.1-10.6l32.6-56.5h6.9l3.4-5.9h70.7
					l3.4,5.9h6.7l35.3,61.2l-3.4,5.9l3.8,6.5h7.5l3.7-6.5l-3.7-6.5h-6.8l-35.3-61.1l3.4-6l-3.4-5.9l32.6-56.4h12.2l6.5-11.2
					l-6.5-11.2h-12.3l-32.6-56.5l3.4-5.8l-3.4-5.9l35.3-61.2h6.8l3.8-6.5l-3.8-6.5h-7.5l-3.8,6.5l3.4,5.9l-35.3,61.2h-6.8l-3.4,5.9
					h-65.2l-6.2-10.6h-12.3l-32.6-56.5l3.4-5.9l-3.8-6.5h-7.5l-3.4,5.9h-65.2l-6.2-10.6h-12.2l-33-56.6l3.3-5.8l-3.3-5.8l32.6-56.5
					h12.2l6.5-11.2l-6.5-11.2h-13l-6.5,11.2l6.1,10.7l-32.6,56.5h-6.8l-3.4,5.9h-70.7l-3.4-5.9h-6.7l-35.4-61.2l3.4-5.9l-3.8-6.5
					h-7.5l-3.7,6.5l3.7,6.5h6.8l35.3,61.2l-3.4,5.9l3.4,5.9L398,917.5h-12.3l-6.1,10.6h-65.2l-3.4-5.9h-6.8l-32.6-56.5l6.1-10.6
					l-6.5-11.2h-13l-6.5,11.2l6.5,11.2h12.3l32.6,56.4l-3.4,5.9l3.4,5.9L270.5,991h-12.3l-6.1,10.7H187l-3.4-5.9h-7.5l-3.8,6.5
					l3.8,6.5L183.6,1008.8z M311,935.2l3.4-5.9h65.2l6.1,10.6H398l32.6,56.5l-3.4,5.9l3.4,5.8l-35.3,61.2h-6.8l-3.4,5.9h-70.7
					l-3.4-5.9h-6.8l-32.6-56.5l6.1-10.6l-6.1-10.6l32.6-56.5L311,935.2z M438.4,861.7l3.4-5.9h70.7l3.4,5.9h6.8l32.6,56.4l-6.1,10.7
					l6.1,10.7L522.7,996h-6.8l-3.4,5.9h-70.7l-3.4-5.9h-6.8L399,939.5l6.1-10.6l-6.1-10.6l32.6-56.5h6.8V861.7z M568.6,940l6.1-10.6
					h65.2l3.4,5.9h6.8l32.6,56.5l-6.1,10.6l6.1,10.6l-32.6,56.5h-6.8l-3.4,5.9h-65.2l-6.1-10.7h-12.3l-32.6-56.5l3.4-5.8l-3.4-5.9
					l32.6-56.5L568.6,940z M696,1013.6l6.1-10.7h65.2l3.4,5.9h6.8l32.6,56.4l-6.1,10.7l6.1,10.7l-32.6,56.5h-6.7l-3.4,5.9h-70.7
					l-3.4-5.9h-6.9l-35.4-61.2l3.4-5.9l-3.4-5.9l32.6-56.5L696,1013.6z"/>
				<path class="prismatic-st7" d="M898.1,1069.4l-3.7,6.5l3.7,6.5h7.5l3.8-6.5l-3.4-5.8l35.4-61.2h6.8l3.4-5.9h70.7l3.4,5.9h6.8l35.3,61.2
					l-3.4,5.9l3.4,5.9l-32.6,56.5H1023l-6.5,11.2l6.5,11.2h13l6.5-11.2l-6.2-10.7l32.6-56.4h6.7l3.4-5.9h65.2l6.1,10.6h12.4
					l32.6,56.5l-3.3,5.8l3.8,6.5h7.5l3.7-6.5l-3.7-6.5h-6.9l-32.6-56.5l6.1-10.6l-6.1-10.6l32.6-56.5h6.8l3.4-5.9h65.2l6.1,10.7h13
					l6.4-11.2l-6.5-11.2h-13l-6.1,10.6h-65.2l-3.4-5.9h-6.8l-35.4-61.2l3.4-5.8l-3.4-5.8l35.4-61.2h6.7l3.8-6.5l-3.8-6.5h-7.5
					l-3.8,6.5l3.4,5.9l-35.3,61.2h-6.8l-3.4,5.9h-65.2l-6.1-10.6H1066l-32.6-56.5l3.4-5.8l-3.8-6.5h-7.5l-3.4,5.9h-65.2l-6.1-10.7
					h-13l-6.5,11.2l6.2,10.7l-32.6,56.4h-6.8l-3.7,6.5l3.7,6.5h6.8l35.3,61.2l-3.4,5.9l3.4,5.8l-35.3,61.3h-6.8V1069.4z M906,922.9
					l32.6-56.5h12.2l6.1-10.6h65.2l3.4,5.9h6.8l32.6,56.4l-6.1,10.7l6.1,10.7l-32.6,56.5h-6.8l-3.4,5.9h-70.7L948,996h-6.8
					l-35.4-61.2l3.4-5.9L906,922.9z M1078.2,940l6.1-10.6h65.2l3.4,5.9h6.8l35.4,61.2l-3.4,5.9l3.4,5.8l-32.6,56.5h-12.4l-6.1,10.7
					h-65.2l-3.4-5.9h-6.7l-35.3-61.2l3.4-5.8l-3.4-5.9l32.6-56.5L1078.2,940z"/>
			</g>
			<path class="prismatic-st7" d="M1612,986.7h-18.1l-8.5,14.8h-90.9l-4.7-8.2h-9.5l-49.3-85.4l4.7-8.2l-5.2-9.1H1420l-4.7,8.2h-98.6l-4.7-8.2
				h-9.5l-49.4-85.5l4.7-8.1l-5.2-9h-10.5l-4.7,8.2h-98.6l-4.7-8.2h-9.3l-1.3,0.1l-5,9l4.8,8.3l-45.5,78.7h-17.1l-8.6,14.8h-90.9
				l-4.7-8.2H946l-5.2,9.1l5.2,9h10.4l4.7-8.2h90.9l8.6,14.8h17.1l45.5,78.8l-4.7,8.2l4.7,8.1l-45.5,78.8h-17.1l-9.1,15.7l9.1,15.7
				h18.1l9-15.7l-8.5-14.9l45.5-78.8h9.5l4.7-8.1h91l8.5,14.8h17.1l45.5,78.8l-4.7,8.1l5.2,9h10.4l4.7-8.2h90.9l8.6,14.8h17.1
				l45.5,78.8l-4.7,8.1l5.2,9h10.4l5.2-9l-5.2-9h-9.5l-45.5-78.7l8.6-14.8l-8.6-14.9l45.5-78.8h9.5l4.7-8.1h91l8.5,14.8h18.1l9-15.7
				L1612,986.7z M1416.2,1089.3l-8.5,14.8h-91l-4.7-8.1h-9.5l-45.5-78.8l8.6-14.8l-8.6-14.8l45.5-78.8h9.5l4.7-8.2h98.6l4.7,8.2h9.4
				l49.3,85.4l-4.7,8.2l4.7,8.1l-45.5,78.8L1416.2,1089.3z M1238.4,986.7l-8.6,14.8h-90.9l-4.7-8.2h-9.5l-45.5-78.8l8.6-14.8
				l-8.6-14.8l45.5-78.8h9.3l4.7-8.2h98.6l4.7,8.2h9.6l49.3,85.4l-4.7,8.1l4.7,8.1l-45.5,78.8L1238.4,986.7z"/>
			<path class="prismatic-st7" d="M886.7,993.3l-4.7,8.2h-91l-8.5-14.8h-17.2L719.9,908l4.7-8.2l-4.7-8.2l49.3-85.4h9.3l5.2-9l-5.2-9H768
				l-5.2,9l4.8,8.3l-49.2,85.3H709l-4.7,8.2h-98.6l-4.7-8.2h-9.5L546,811.9l8.5-14.7l-9.1-15.7h-18.1l-9,15.7l9,15.7h17.2l45.5,78.8
				l-4.7,8.1l4.7,8.1l-49.3,85.4h-9.4l-4.7,8.2H428l-4.7-8.2h-9.5l-45.5-78.7l8.6-14.8l-9-15.7h-18.1l-8.5,14.8h-91l-4.7-8.2h-9.5
				l-49.4-85.5l4.7-8.1l-4.7-8.1l45.5-78.9h17.1l9.1-15.7l-9.1-15.7h-18.1l-9,15.7l8.5,14.8L185.2,788h-9.6l-4.7,8.2H72.2l-4.7-8.2
				h-9.3L8.9,702.6l4.7-8.2l-5.2-9H-2l-5.2,9l5.2,9h9.4l49.3,85.3l-4.8,8.3l4.8,8.3L11.2,884h-17l-9.1,15.7l9.1,15.7h17.1l45.5,78.8
				l-4.7,8.2l4.7,8.1l-49.3,85.4H-2l-5.3,9.1l5.2,9H8.4l5.2-9l-4.7-8.2l49.3-85.4h9.5l4.7-8.1h91l8.5,14.8H189l45.5,78.8l-4.7,8.1
				l5.2,9h10.4l4.7-8.2H341l8.6,14.8h17.1l45.5,78.8l-4.7,8.1l4.7,8.1l-45.5,78.8h-17.1l-9,15.7l9,15.7h18.1l9-15.7l-8.6-14.9
				l45.5-78.8h9.5l4.7-8.1h98.7l4.7,8.1h9.4L590,1302l-4.7,8.2l5.2,9h10.4l5.2-9l-5.2-9h-9.4l-49.3-85.3l4.8-8.2l-4.8-8.2l45.5-78.7
				h17.1l8.6-14.8h90.9l4.7,8.2h9.4l45.5,78.8l-8.5,14.8l9.1,15.7h18.1l9.1-15.7l-9.1-15.7h-17.2l-45.4-78.7l4.7-8.2l-4.7-8.2
				l45.5-78.7h17.1l8.5-14.8H882l4.7,8.1h10.4l5.2-9l-5.2-9L886.7,993.3z M709,1095.9l-4.7,8.1h-91l-8.6-14.8h-17.1l-45.5-78.8
				l4.7-8.1l-4.7-8.2l49.3-85.4h9.5l4.7-8.2h98.6l4.7,8.2h9.4l45.5,78.8l-8.5,14.8l8.6,14.8l-45.5,78.8L709,1095.9z M531.3,1198.6
				l-4.7,8.2H428l-4.7-8.2h-9.5l-45.5-78.7l8.6-14.8l-8.6-14.9l45.5-78.8h9.5l4.7-8.1h98.6l4.7,8.1h9.4l45.5,78.8l-8.5,14.8
				l8.5,14.8l-45.5,78.8L531.3,1198.6L531.3,1198.6z M349.6,1089.3l-8.5,14.8h-91l-4.7-8.1h-9.5l-45.5-78.8l8.6-14.8l-8.6-14.8
				l45.5-78.8h9.5l4.7-8.2h91l8.5,14.8h17.1l45.5,78.8l-4.7,8.2l4.7,8.1l-45.5,78.8L349.6,1089.3L349.6,1089.3z M171.9,986.7
				l-8.5,14.8h-91l-4.7-8.2h-9.5l-45.4-78.7l8.6-14.8L12.8,885l45.5-78.8h9.3l4.7-8.2H171l4.7,8.2h9.6l49.3,85.4l-4.7,8.1l4.7,8.1
				L189,986.7H171.9z"/>
			<g class="prismatic-st1">
				<path class="prismatic-st2" d="M2662.7,90.7l-0.3-0.5l-44.1-76.5h-87.7l-43.8-75.9H2399l-43.8-76h-88.8l-0.3,0.5l-43.6,75.5H2136l-43.8-76
					h-87.7l-43.8-75.9H1873l-43.9-75.9h-88.8l-0.3,0.5l-43.6,75.5h-87.7l-0.3,0.5l-43.6,75.5h-86.6l-43.8-75.9h-87.7L1303-290h-88.8
					l-43.8,75.9h-87.7l-43.8,76h-86.6l-43.8-76h-88.8l-43.8,76h-87.7l-43.9,75.9h-86.6l-43.8-75.9H425l-43.8,75.9h-87.7l-0.3,0.5
					l-44.1,76.4l44.4,76.9h87.7l43.8,75.9h87.7l43.8,76h88.8l0.3-0.5l43.6-75.5h86.6l43.8,76h87.7l43.8,76h87.7l43.8,75.9h88.8
					l0.3-0.5l43.6-75.4h87.7l0.3-0.5l43.6-75.5h86.6l43.8,75.9h87.7l43.8,75.9h88.8l0.3-0.5l43.6-75.5h87.7l0.3-0.5l43.6-75.5h86.6
					l43.8,75.9h88.8l0.3-0.5l43.6-75.5h87.7l0.3-0.5l43.6-75.5h86.6l43.8,76h88.8l0.3-0.5l43.6-75.5h87.7l0.3-0.5L2662.7,90.7z
					 M2355.8,166.6l43.3-75h86.6l25,43.3l18.3,31.6l-43.3,75h-86.6L2355.8,166.6z M2383.1,65.8l14.3,24.8l-43.3,75h-86.6l-24.5-42.4
					l-18.8-32.5l43.3-75h86.5L2383.1,65.8z M2244.3-22.8l21.7,37.5l-5.7,9.8l-37.7,65.2H2136l-43.3-75l43.3-75h86.6L2244.3-22.8z
					 M1988-11l14.8,25.7l-43.3,75H1873l-24.8-43l-18.5-32l43.3-75h86.6L1988-11z M1871.3-61.2l-43.3,75h-86.6l-43.3-75l43.3-75h86.6
					L1871.3-61.2z M1593.6-86.6l14.6,25.4l-43.3,75h-86.6l-43.3-75l20-34.7l23.3-40.3h86.6L1593.6-86.6z M1345.2-61.2l-43.3,75
					h-86.6l-43.3-75l43.3-75h86.6L1345.2-61.2z M1060.5-98.7l21.7,37.5l-36.4,63l-6.9,12h-86.6l-43.3-75l21.7-37.5l21.7-37.5h86.6
					L1060.5-98.7z M907.3-60.3l43.3,75l-43.3,75h-86.6l-43.3-75l43.3-75L907.3-60.3z M644.2-60.3l43.3,75l-21.7,37.5l-21.7,37.5
					h-86.6l-43.3-75L536-22.8l21.7-37.5H644.2z M775.8,15.6l43.3,75L784,151.5l-8.2,14.2h-86.6l-43.3-75L679.1,33l10-17.4H775.8z
					 M1040.4,166.6l43.3-75h86.6l43.3,75l-43.3,75h-86.6L1040.4,166.6z M1346.8,241.6l-43.3-75l34.1-59l9.2-16h86.6l3.2,5.6
					l40.1,69.4l-21.4,37l-21.9,38H1346.8z M1566.6,166.6l43.3-75h86.6l43.3,75l-43.3,75h-86.6L1566.6,166.6z M1848.1,198.6l-18.5-32
					l43.3-75h86.6l43.3,75l-43.3,75H1873L1848.1,198.6z M1741.4,165.6l-43.3-75l43.3-75h86.6l28,48.5l15.3,26.5l-43.3,75H1741.4z
					 M1565,165.6h-86.6l-42.8-74l-0.5-0.9l4.1-7.1l39.2-67.9h86.6l28.6,49.6l14.6,25.4L1565,165.6z M1215.3,165.6l-43.3-75
					l36.5-63.1l6.8-11.9h86.6l21.7,37.5l21.7,37.5l-34.1,59l-9.2,16H1215.3z M1038.8,165.6h-86.6l-43.3-75l43.3-75h86.6l21.7,37.5
					l21.7,37.5L1038.8,165.6z M1170.3-60.3l43.3,75L1192,52.2l-21.6,37.5h-86.6l-43.3-75l36.4-63l6.9-12L1170.3-60.3z M1346.8-60.3
					h86.6l43.3,75l-43.3,75h-86.6l-43.3-75L1346.8-60.3z M1696.5-60.3l43.3,75l-43.3,75h-86.6l-25.4-43.9l-17.9-31.1l43.3-75
					C1609.9-60.3,1696.5-60.3,1696.5-60.3z M2091.1,15.6l43.3,75l-43.3,75h-86.6l-43.3-75l43.3-75L2091.1,15.6z M2222.6,241.6H2136
					l-25.4-43.9l-17.9-31l43.3-75h86.6l24.5,42.4l18.8,32.6L2222.6,241.6z M1961.2,242.5l43.3-75h86.6l25.4,43.9l17.9,31.1l-43.3,75
					h-86.6L1961.2,242.5z M1828,317.5h-86.6l-25.4-44l-17.9-31l43.3-75h86.6l24.8,43l18.5,32.1L1828,317.5z M1566.6,318.5l43.3-75
					h86.6l25.4,43.9l17.9,31.1l-43.3,75h-86.6L1566.6,318.5z M1435,242.5l22-38.1l21.3-36.9h86.6l43.3,75l-43.3,75h-86.6L1435,242.5
					z M1301.9,317.5h-86.6l-43.3-75l43.3-75h86.6l43.3,75L1301.9,317.5z M1040.4,318.5l32.8-56.7l10.5-18.3h86.6l43.3,75l-43.3,75
					h-86.6L1040.4,318.5z M908.9,242.5l35.3-61.1l8-13.9h86.6l43.3,75l-32.8,56.7l-10.5,18.3h-86.6L908.9,242.5z M777.4,166.6
					l35.1-60.8l8.2-14.2h86.6l43.3,75l-35.3,61.1l-8,13.9h-86.6L777.4,166.6z M514.4,166.6l36.2-62.8l7-12.2h86.6l43.3,75l-43.3,75
					h-86.6L514.4,166.6z M382.8,90.7l36.4-63.2l6.8-11.9h86.6l21.7,37.5L556,90.6l-36.3,62.8l-7,12.2h-86.6L382.8,90.7z M294.6-60.3
					h86.6l21.7,37.5l21.7,37.5l-21.7,37.5l-21.7,37.5h-86.6l-43.3-75L294.6-60.3z M556-61.2l-21.7,37.5l-21.7,37.5H426l-21.6-37.5
					l-21.7-37.5l43.3-75h86.6L556-61.2z M689.2-136.2h86.6l21.7,37.5l21.7,37.5l-43.3,75h-86.6l-43.3-75L689.2-136.2z M950.6-137.2
					l-21.7,37.5l-21.7,37.5h-86.6L799-99.7l-21.7-37.5l43.3-75h86.6L950.6-137.2z M1083.8-212.2h86.6l21.6,37.5l21.7,37.5l-43.3,75
					h-86.6l-21.7-37.5l-21.7-37.5L1083.8-212.2z M1345.2-213.1l-21.7,37.5l-21.7,37.5h-86.6l-21.7-37.5l-21.6-37.5l43.3-75h86.6
					L1345.2-213.1z M1476.7-137.2l-24,41.5l-19.3,33.5h-86.6l-43.3-75l21.7-37.5l21.6-37.5h86.6L1476.7-137.2z M1609.9-212.2h86.6
					l28.5,49.5l14.8,25.5l-43.3,75h-86.6l-28.6-49.6l-14.7-25.4L1609.9-212.2z M1871.3-213.1l-5.8,10l-37.5,65h-86.6l-28.5-49.4
					l-14.8-25.6l43.3-75h86.6L1871.3-213.1z M2002.8-137.2l-43.3,75H1873l-43.3-75l5.8-10l37.5-65h86.6L2002.8-137.2z M2134.4-61.2
					l-43.3,75h-86.6L1976-35.5l-14.8-25.7l43.3-75h86.6L2134.4-61.2z M2397.5-61.2l-43.3,75h-86.6l-21.7-37.5l-21.7-37.5l43.3-75
					h86.6L2397.5-61.2z M2529,14.7l-43.3,75h-86.6l-25.7-44.5l-17.6-30.5l43.3-75h86.6L2529,14.7z M2660.5,90.7l-43.3,75h-86.6
					l-25.1-43.3l-18.3-31.6l43.3-75h86.6L2660.5,90.7z"/>
				<polygon class="prismatic-st3" points="299,-52.7 260.1,14.7 299,82.1 376.8,82.1 415.7,14.7 376.8,-52.7 				"/>
				<polygon class="prismatic-st4" points="1088.1,-52.7 1049.2,14.7 1088.1,82.1 1165.9,82.1 1204.9,14.7 1165.9,-52.7 				"/>
				<polygon class="prismatic-st4" points="430.5,23.2 391.6,90.6 430.5,158 508.3,158 547.2,90.6 508.3,23.2 				"/>
				<polygon class="prismatic-st4" points="562,-52.7 523.1,14.7 562,82.1 639.8,82.1 678.7,14.7 639.8,-52.7 				"/>
				<polygon class="prismatic-st2" points="562,99.2 523.1,166.6 562,234 639.8,234 678.7,166.6 639.8,99.2 				"/>
				<polygon class="prismatic-st3" points="693.6,23.2 654.6,90.6 693.6,158 771.4,158 810.3,90.6 771.4,23.2 				"/>
				<polygon class="prismatic-st4" points="825.1,99.2 786.2,166.6 825.1,234 902.9,234 941.8,166.6 902.9,99.2 				"/>
				<polygon class="prismatic-st3" points="956.6,23.2 917.7,90.6 956.6,158 1034.4,158 1073.3,90.6 1034.4,23.2 				"/>
				<polygon class="prismatic-st4" points="956.6,175.1 917.7,242.5 956.6,309.9 1034.4,309.9 1073.3,242.5 1034.4,175.1 				"/>
				<polygon class="prismatic-st4" points="1088.1,251.1 1049.2,318.5 1088.1,385.8 1165.9,385.8 1204.9,318.5 1165.9,251.1 				"/>
				<polygon class="prismatic-st3" points="1219.7,175.1 1180.8,242.5 1219.7,309.9 1297.5,309.9 1336.4,242.5 1297.5,175.1 				"/>
				<polygon class="prismatic-st4" points="1219.7,23.2 1180.8,90.6 1219.7,158 1297.5,158 1336.4,90.6 1297.5,23.2 				"/>
				<polygon class="prismatic-st4" points="1351.2,99.2 1312.3,166.6 1351.2,234 1429,234 1467.9,166.6 1429,99.2 				"/>
				<polygon class="prismatic-st2" points="1351.2,-52.7 1312.3,14.7 1351.2,82.1 1429,82.1 1467.9,14.7 1429,-52.7 				"/>
				<polygon class="prismatic-st4" points="1745.8,23.2 1706.9,90.6 1745.8,158 1823.6,158 1862.5,90.6 1823.6,23.2 				"/>
				<polygon class="prismatic-st4" points="1745.8,175.1 1706.9,242.5 1745.8,309.9 1823.6,309.9 1862.5,242.5 1823.6,175.1 				"/>
				<polygon class="prismatic-st3" points="1614.3,-52.7 1575.4,14.7 1614.3,82.1 1692.1,82.1 1731,14.7 1692.1,-52.7 				"/>
				<polygon class="prismatic-st3" points="1482.7,175.1 1443.8,242.5 1482.7,309.9 1560.6,309.9 1599.5,242.5 1560.6,175.1 				"/>
				<polygon class="prismatic-st4" points="1614.3,251.1 1575.4,318.5 1614.3,385.8 1692.1,385.8 1731,318.5 1692.1,251.1 				"/>
				<polygon class="prismatic-st5" points="1482.7,23.2 1443.8,90.6 1482.7,158 1560.6,158 1599.5,90.6 1560.6,23.2 				"/>
			</g>
			<g class="prismatic-st6">
				<path class="prismatic-st7" d="M1855.2,65.9l5-8.7l-5-8.7h-10l-4.6,7.9h-87.4l-8.2-14.2h-16.4l-43.7-75.8l4.6-7.9l-4.6-7.9l43.7-75.7h16.5
					l8.7-15.1l-8.7-15.1h-17.4l-8.7,15.1l8.2,14.2l-43.8,75.8h-9.1l-4.5,7.9h-87.4l-8.2-14.3h-16.5l-43.7-75.7l4.6-7.9l-4.6-7.9
					l47.4-82.1h9l5-8.7l-5-8.7h-10l-5,8.7l4.6,7.9l-47.4,82.1h-9l-4.6,7.9h-95l-4.5-7.9h-9.2l-43.7-75.7l8.2-14.3l-8.7-15.1h-17.4
					l-8.7,15.1l8.7,15.1h16.5L1389-148l-4.5,7.8l4.5,7.8l-43.8,75.8h-16.4l-8.3,14.3H1233l-4.6-7.9h-10l-5,8.7l4.5,7.8l-43.8,75.8
					h-16.4l-8.2,14.2H1062l-4.5-7.9h-9.1l-47.4-82l4.6-7.9l-5-8.7h-10l-5,8.7l5,8.7h9l47.4,82.1l-4.6,7.9l4.6,7.9l-43.7,75.8h-16.4
					l-8.7,15.1l8.7,15.1h16.4l43.7,75.7l-4.6,8l4.6,8l-47.3,82h-9l-5,8.7l5,8.7h10l5-8.7l-4.5-7.9l47.4-82.1h9l4.6-7.9h94.8l4.5,7.9
					h9.2l43.7,75.7l-8.2,14.2l8.7,15.1h17.4l8.7-15.1l-8.7-15.1h-16.5l-43.8-75.8l4.5-7.8l-4.5-7.8l47.5-82.2h9.1l4.5-7.9h87.5
					l8.2,14.3h17.4l8.7-15.1l-8.2-14.3l43.7-75.7h9.1l4.5-7.9h94.8l4.6,7.9h9.1l47.4,82.1l-4.5,7.8l4.5,7.8l-43.7,75.8h-16.6
					l-8.7,15.1l8.7,15.1h17.4l8.7-15.1l-8.2-14.2l43.8-75.9h9.1l4.5-7.9h94.8l4.5,7.9h9.1l47.4,82l-4.6,8l5,8.7h10l5-8.7l-5-8.7h-9
					l-47.4-82.1l4.6-7.9l-4.6-7.9l43.7-75.7h16.5l8.2-14.3h87.5l4.6,7.9L1855.2,65.9z M1683.3-32.7L1727,43l-8.2,14.2l8.2,14.3
					l-43.7,75.7h-9.1l-4.6,7.9h-94.8l-4.6-7.9h-9.1l-47.4-82.1l4.6-7.9l-4.6-7.9l43.7-75.8h16.5l8.2-14.2h87.5l4.5,7.9L1683.3-32.7z
					 M1512.4-131.5l43.8,75.8l-8.2,14.2l8.2,14.2l-43.8,75.8h-9.1l-4.5,7.9H1404l-4.5-7.9h-9.1l-43.7-75.7l8.2-14.3l-8.2-14.3
					l43.7-75.7h9.1l4.5-7.9h94.8l4.6,7.9L1512.4-131.5L1512.4-131.5z M1345.1-26.4l43.7,75.8l-4.5,7.9l4.5,7.9l-43.7,75.7h-16.4
					l-8.2,14.3H1233l-4.6-7.9h-9.1l-43.7-75.7l8.2-14.3l-8.2-14.2l43.7-75.7h9.1l4.5-7.9h87.5l8.2,14.2L1345.1-26.4z M1174.2,72.3
					l43.7,75.8l-4.5,7.8l4.5,7.8l-47.4,82.2h-9.2l-4.5,7.9H1062l-4.6-7.9h-9l-43.7-75.7l8.2-14.3l-8.2-14.3l43.7-75.7h9.1l4.6-7.9
					h87.4l8.2,14.3L1174.2,72.3z"/>
				<path class="prismatic-st7" d="M877.5,147.2l-47.4-82.1l4.5-7.9l-4.5-7.9l47.4-82.1h9.1l5-8.7l-5-8.7h-9.1l-43.7-75.7l8.3-14.3l-8.7-15.1
					H816l-8.2,14.2h-87.5l-4.5-7.9h-10l-5,8.7l4.5,7.8l-43.8,75.8H645l-8.2,14.3h-87.4l-4.6-7.9h-9.1l-47.4-82.1l4.6-7.9l-5-8.8
					h-10.1l-5,8.7l5,8.7h9l47.5,82.2l-4.5,7.8l4.5,7.8l-47.4,82.2h-9.1l-4.5,7.9h-87.5L377.6,42h-17.4l-8.7,15.1l8.7,15.1h17.4
					l8.2-14.3h87.5l4.6,7.9h9.1l43.8,75.8l-8.2,14.2l8.2,14.2L487,245.9h-9.2l-5,8.7l5,8.7h10l5-8.7l-4.5-7.8L532,171h16.5l8.2-14.2
					h87.4l4.5,7.9h9.1l43.7,75.7l-8.3,14.3l8.7,15.1h17.5l8.7-15.1l-8.7-15.1h-16.4l-43.7-75.8l4.6-7.9l-4.6-7.9l47.4-82.1h9.1
					l4.6-7.9H815l4.5,7.9h9.1L876,148l-4.5,7.8l5,8.7h10l5-8.7l-5-8.7L877.5,147.2z M871.6-41.5l4.5,7.8l-47.4,82.2h-9.1l-4.5,7.9
					h-94.8l-4.6-7.9h-9.1l-43.7-75.7l8.2-14.3l-8.2-14.3l43.7-75.7h9.1l4.5-7.9h87.5l8.2,14.3h16.4L876-49.3L871.6-41.5z
					 M661.4-26.4l43.8,75.8l-4.5,7.9l4.5,7.9l-47.4,82.1h-9.1l-4.6,7.9h-87.4l-8.2-14.3H532l-43.7-75.7l4.5-7.9l-4.5-7.9l47.4-82.1
					h9.1l4.5-7.9h87.5l8.2,14.2L661.4-26.4z"/>
			</g>
			<g class="prismatic-st8">
				<path class="prismatic-st7" d="M2232.6,73.7h-12.5l-5.9,10.2h-62.6l-3.2-5.7h-6.5L2108,19.4l3.3-5.7l-3.6-6.3h-7.2l-3.3,5.6h-67.9
					l-3.3-5.6h-6.5l-34-58.9l3.2-5.6l-3.2-5.6l31.4-54.3h11.8l6.2-10.8l-6.2-10.8h-12.4l-6.2,10.8l5.9,10.2l-31.3,54.2h-6.6
					l-3.3,5.6H1907l-3.3-5.6h-6.4l-33.9-58.8l3.3-5.6l-3.6-6.2h-7.2l-3.6,6.2l3.6,6.2h6.5l33.9,58.7l-3.3,5.7l3.3,5.7L1865,2.7h-12
					l-5.9,10.2h-62.6l-3.3-5.6h-7.2l-3.6,6.2l3.6,6.2h7.2l3.3-5.6h62.6l5.9,10.2h11.8l31.3,54.2l-3.3,5.6l3.3,5.6l-31.3,54.2H1853
					l-6.2,10.8l6.2,10.7h12.5l6.2-10.8l-5.9-10.2l31.3-54.2h6.5l3.2-5.6h62.6l5.9,10.2h11.8l31.3,54.3l-3.2,5.6l3.6,6.2h7.2l3.3-5.6
					h62.6l5.9,10.2h11.8l31.3,54.3l-3.2,5.6l3.6,6.2h7.2l3.6-6.2l-3.6-6.2h-6.5l-31.3-54.2l5.9-10.2l-5.9-10.2l31.3-54.2h6.5
					l3.2-5.6h62.6l5.9,10.2h12.5l6.2-10.8L2232.6,73.7z M2097.8,144.3l-5.9,10.2h-62.6l-3.3-5.6h-6.5l-31.3-54.2l5.9-10.2l-5.9-10.2
					l31.3-54.2h6.5l3.3-5.6h67.9l3.3,5.6h6.5l33.9,58.8l-3.3,5.6l3.3,5.6l-31.3,54.2H2097.8z M1975.4,73.7l-5.9,10.2h-62.6l-3.3-5.7
					h-6.5L1865.8,24l5.9-10.2l-5.9-10.2l31.3-54.2h6.4l3.3-5.7h67.9l3.3,5.6h6.6l33.9,58.8l-3.2,5.6l3.2,5.6l-31.3,54.2h-11.8V73.7z
					"/>
				<path class="prismatic-st7" d="M1733.3,78.2l-3.3,5.7h-62.6l-5.9-10.2h-11.8l-31.3-54.2l3.3-5.7l-3.3-5.6l33.9-58.8h6.4l3.6-6.2l-3.6-6.2
					h-7.2l-3.6,6.2l3.3,5.7l-33.9,58.7h-6.5l-3.3,5.6h-67.9l-3.3-5.6h-6.5l-31.4-54.3l5.9-10.1l-6.2-10.8h-12.5l-6.2,10.8l6.2,10.8
					h11.9L1529,8.2l-3.3,5.6l3.2,5.6L1495,78.2h-6.5l-3.2,5.7h-67.9l-3.3-5.7h-6.5L1376.3,24l5.9-10.2L1376,3h-12.5l-5.9,10.2H1295
					l-3.3-5.6h-6.5l-34-58.9l3.2-5.6l-3.2-5.6l31.3-54.3h11.8l6.2-10.8l-6.2-10.8h-12.5l-6.2,10.8l5.9,10.2l-31.3,54.2h-6.6
					l-3.2,5.6h-67.8l-3.3-5.6h-6.4L1129-122l3.2-5.6l-3.6-6.2h-7.2l-3.6,6.2l3.6,6.2h6.5l33.9,58.7l-3.3,5.7l3.3,5.7l-31.3,54.2
					h-11.8l-6.2,10.8l6.2,10.8h11.8l31.3,54.2l-3.3,5.6l3.3,5.6l-33.9,58.8h-6.5l-3.6,6.2l3.6,6.2h7.2l3.6-6.2l-3.3-5.7l33.9-58.8
					h6.5l3.2-5.6h62.6L1241,95h11.8l31.3,54.3l-3.3,5.6l3.6,6.2h7.2l3.2-5.6h62.6l5.9,10.2h11.8l31.3,54.3l-3.2,5.6l3.2,5.6
					l-31.3,54.3h-11.8l-6.2,10.8l6.2,10.8h12.4l6.2-10.8l-5.9-10.2l31.3-54.2h6.6l3.3-5.6h67.9l3.3,5.6h6.4l34,58.8l-3.3,5.6
					l3.6,6.2h7.2l3.6-6.2l-3.6-6.2h-6.5l-33.9-58.8l3.3-5.7l-3.3-5.7l31.3-54.2h11.8l5.9-10.2h62.6l3.3,5.6h6.5l31.3,54.3l-5.9,10.2
					l6.2,10.8h12.5l6.2-10.8l-6.2-10.8h-11.8l-31.3-54.2l3.3-5.7l-3.3-5.7l31.3-54.2h11.8l5.9-10.2h62.6l3.2,5.6h7.2l3.6-6.2
					l-3.6-6.2L1733.3,78.2z M1610.9,148.9l-3.3,5.6H1545l-5.9-10.2h-11.8L1496,90.1l3.2-5.6l-3.2-5.6l34-58.9h6.5l3.3-5.6h67.9
					l3.3,5.6h6.5l31.3,54.2l-5.9,10.2l5.9,10.2l-31.3,54.2L1610.9,148.9z M1488.6,219.6l-3.3,5.6h-67.9l-3.3-5.6h-6.6l-31.3-54.2
					l5.9-10.2l-5.9-10.2l31.3-54.2h6.5l3.3-5.6h67.9l3.2,5.6h6.5l31.3,54.2l-5.9,10.2l5.9,10.2l-31.3,54.2H1488.6z M1363.6,144.3
					l-5.9,10.2H1295l-3.2-5.6h-6.5L1254,94.7l5.9-10.2l-5.9-10.2l31.3-54.2h6.5l3.2-5.6h62.6l5.9,10.2h11.8l31.3,54.2l-3.2,5.6
					l3.2,5.6l-31.3,54.2H1363.6z M1241.2,73.7l-5.9,10.2h-62.6l-3.3-5.7h-6.5L1131.6,24l5.9-10.2l-5.9-10.2l31.3-54.2h6.5l3.3-5.6
					h67.9l3.2,5.6h6.6l33.9,58.8l-3.3,5.6l3.3,5.6L1253,73.7H1241.2z"/>
				<path class="prismatic-st7" d="M1047,20.1l3.6-6.2l-3.6-6.2h-7.2l-3.6,6.2l3.2,5.6l-34,58.8H999l-3.3,5.7h-67.8l-3.3-5.7h-6.5l-33.9-58.8
					l3.3-5.7l-3.3-5.6L915.5-46h11.7l6.2-10.8l-6.2-10.8h-12.5l-6.2,10.8l5.9,10.2L883.2,7.6h-6.5l-3.3,5.6h-62.6L805,3h-11.9
					l-31.3-54.3l3.2-5.6l-3.6-6.2h-7.2l-3.6,6.2l3.6,6.2h6.6l31.4,54.3l-5.9,10.2l5.8,10.2l-31.3,54.3h-6.5L751,84h-62.6l-5.9-10.2
					H670l-6.2,10.8l6.2,10.8h12.5l5.9-10.2H751l3.3,5.6h6.5l34,58.8l-3.2,5.6l3.3,5.6l-34,58.8h-6.5l-3.6,6.2l3.6,6.2h7.2l3.6-6.2
					l-3.3-5.7l33.9-58.8h6.5l3.3-5.6h62.6l5.9,10.2h11.8l31.3,54.3l-3.2,5.6l3.6,6.2h7.2l3.2-5.6h62.6l5.9,10.2h12.5l6.2-10.8
					l-5.9-10.2l31.3-54.2h6.5l3.6-6.2l-3.6-6.2h-6.6l-33.9-58.8l3.3-5.6l-3.3-5.6l33.9-58.8h6.5V20.1z M1039.5,160.8l-31.3,54.2
					h-11.7l-5.9,10.2H928l-3.3-5.6h-6.5l-31.3-54.2l5.9-10.2l-5.9-10.2l31.3-54.2h6.5l3.3-5.6h67.9l3.3,5.6h6.5l34,58.8l-3.2,5.6
					L1039.5,160.8z M874.1,144.3l-5.9,10.2h-62.6l-3.3-5.6h-6.5l-34-58.8l3.3-5.6l-3.3-5.6l31.3-54.2H805l5.9-10.2h62.6l3.3,5.7h6.5
					L917.2,79l-3.3,5.6l3.3,5.6l-31.3,54.2L874.1,144.3z"/>
			</g>
			<path class="prismatic-st7" d="M361.4,99.5h17.4l8.2-14.2h87.4l4.5,7.9h9.1l47.3,82l-4.6,7.9l5,8.7h10l4.5-7.9H645l4.5,7.9h9.1l47.4,82.1
				l-4.5,7.8l4.7,8.6l1.1,0.1h9.2l4.5-7.9h94.7l4.5,7.9h10.1l4.9-8.7l-4.6-7.9l43.6-75.6h16.4l8.2-14.2h87.4l4.5,7.9h10l5-8.7
				l-5-8.7h-10l-4.5,7.9h-87.4l-8.2-14.2h-16.4l-43.7-75.6l4.5-7.9l-4.5-7.8l44-75.9h16.4l8.7-15.1l-8.7-15.1h-17.4l-8.7,15.1
				L873,0.2l-43.7,75.6h-9.1l-4.5,7.9h-87.4l-8.2-14.2h-16.4L660.1-6.3l4.5-7.8l-5-8.7h-10l-4.6,7.9h-87.3l-8.2-14.3h-16.4
				l-43.7-75.7l4.5-7.8l-5-8.7h-10l-5,8.7l5,8.7h9.1l43.7,75.6l-8.3,14.3l8.2,14.2L488,75.8h-9.1l-4.5,7.9H387l-8.2-14.2h-17.4
				l-8.7,15.1L361.4,99.5z M549.5,1l8.2-14.2H645l4.5,7.8h9.1l43.7,75.7l-8.2,14.2l8.2,14.2l-43.7,75.6h-9.1l-4.6,7.9h-94.7
				l-4.6-7.9h-9.1l-47.3-82l4.5-7.9l-4.5-7.8L533.1,1H549.5z M720.2,99.5l8.2-14.2h87.4l4.5,7.9h9.1l43.7,75.6l-8.2,14.2l8.2,14.3
				l-43.7,75.6h-9l-4.5,7.9h-94.7l-4.5-7.9h-9.2l-47.4-82l4.5-7.8l-4.5-7.8l43.7-75.7L720.2,99.5z"/>
			<path class="prismatic-st7" d="M1058,93.2l4.6-7.9h87.3l8.2,14.2h16.5l43.6,75.6l-4.6,7.9l4.6,7.9l-47.3,82h-9l-5,8.7l5,8.7h10l5-8.7
				l-4.6-7.9l47.3-81.9h9l4.5-7.9h94.7l4.5,7.9h9.1l43.7,75.8l-8.2,14.1l8.7,15.1h17.4l8.7-15.1l-8.7-15.1h-16.5l-43.7-75.7l4.5-7.8
				l-4.5-7.8l47.4-82h9.1l4.5-7.9h94.7l4.5,7.9h9.1l43.7,75.6l-8.2,14.3l8.7,15.1h17.4l8.2-14.2h87.4l4.5,7.9h9.1l47.4,82.1
				l-4.5,7.8l4.5,7.8l-43.7,75.7h-16.4l-8.7,15.1l8.7,15.1h17.4l8.7-15.1l-8.2-14.2l43.7-75.7h9.2l4.5-7.9h94.7l4.5,7.9h9l47.3,82
				l-4.6,7.8l5,8.7h10l5-8.7l-5-8.7h-9.1l-47.3-81.9l4.6-8l-4.6-7.9l43.6-75.6h16.4l8.7-15.1l-8.7-15.1h-16.4l-43.7-75.7l4.5-7.9
				l-4.5-7.8l47.4-82.1h9l5-8.7l-5-8.7h-10l-5,8.7l4.6,7.9l-47.4,82h-9.1l-4.5,7.9h-87.4l-8.2-14.2h-16.4l-43.7-75.7l4.5-7.8l-5-8.7
				h-10l-4.5,7.9H1582l-8.2-14.3h-16.4l-43.7-75.7l4.5-7.8l-4.5-7.8l43.7-75.7h16.4l8.7-15.1l-8.7-15.1h-17.4l-8.7,15.1l8.2,14.2
				l-43.7,75.7h-9.1l-4.5,7.8h-94.7l-4.6-7.8h-9l-47.4-82l4.5-7.9l-5-8.7h-10l-5,8.7l5,8.7h9.1l47.3,82l-4.6,7.9l4.6,7.9l-43.6,75.6
				h-16.4l-8.2,14.2h-87.4l-4.5-7.9h-9L1176-98.5l8.2-14.2l-8.7-15.1h-17.4l-8.7,15.1l8.7,15.1h16.5l43.6,75.6l-4.6,7.9l4.6,7.9
				l-43.7,75.6h-16.4l-8.2,14.2h-87.3l-4.6-7.9h-10l-5,8.7l5,8.7h10V93.2z M1228.7-5.4l4.5-7.8h87.4l8.2,14.2h16.4l43.7,75.7
				l-4.5,7.8l4.5,7.9l-47.4,82h-9.1l-4.5,7.9h-94.7l-4.6-7.9h-9L1176,98.7l8.2-14.2l-8.2-14.2l43.7-75.7
				C1219.7-5.4,1228.7-5.4,1228.7-5.4z M1399.4-104l4.6-7.9h94.7l4.5,7.9h9.1l43.7,75.6l-8.2,14.3l8.2,14.3l-43.7,75.6h-9.1
				l-4.5,7.9H1404l-4.5-7.9h-9.1l-43.7-75.7l8.2-14.2l-8.2-14.2l43.7-75.7H1399.4z M1573.8,1l8.2-14.2h87.4l4.5,7.8h9.1l43.7,75.7
				l-8.2,14.2l8.2,14.2l-43.7,75.6h-9.1l-4.5,7.9H1582l-8.2-14.2h-16.4l-43.7-75.6l4.5-7.9l-4.5-7.8L1557.4,1H1573.8z M1744.6,99.5
				l8.2-14.2h87.4l4.5,7.9h9.1l43.7,75.6l-8.2,14.3l8.2,14.3l-43.7,75.6h-9l-4.5,7.9h-94.7l-4.5-7.9h-9.2l-47.4-82l4.5-7.9l-4.5-7.8
				l43.7-75.7L1744.6,99.5z"/>
		</g>
	</g>
</g>
</svg>
