<!-- Generated by IcoMoon.io -->
<svg version="1.1" xmlns="http://www.w3.org/2000/svg" width="1024" height="1024" viewBox="0 0 1024 1024">
<title></title>
<g id="icomoon-ignore">
</g>
<path fill="#f7a943" d="M957.099 252.587v726.357c0 22.528-19.115 41.643-41.643 41.643h-806.912c-22.528 0-41.643-19.115-41.643-41.643v-937.301c0-22.528 19.115-41.643 41.643-41.643h595.285l253.269 252.587z"></path>
<path fill="#d9953c" d="M703.829 0v0 210.944c0 22.528 19.115 41.643 41.643 41.643h210.944l-252.587-252.587z"></path>
<path fill="#fff" d="M397.312 806.912c0 4.779-4.779 10.24-12.971 12.971h-114.688c-7.509 0-12.971-4.779-12.971-12.971v-68.949c0-7.509 4.779-12.971 12.971-12.971h114.688c7.509 0 12.971 4.779 12.971 12.971v68.949zM397.312 666.965c0 7.509-4.779 12.971-12.971 12.971h-114.688c-7.509 0-12.971-4.779-12.971-12.971v-68.949c0-7.509 4.779-12.971 12.971-12.971h114.688c7.509 0 12.971 4.779 12.971 12.971v68.949zM397.312 529.067c0 4.779-4.779 10.24-12.971 12.971h-114.688c-7.509 0-12.971-4.779-12.971-12.971v-68.267c0-7.509 4.779-12.971 12.971-12.971h114.688c7.509 0 12.971 4.779 12.971 12.971v68.267zM580.949 806.912c0 4.779-4.779 10.24-12.971 12.971h-114.688c-7.509 0-12.971-4.779-12.971-12.971v-68.949c0-7.509 4.779-12.971 12.971-12.971h114.688c7.509 0 12.971 4.779 12.971 12.971v68.949zM580.949 666.965c0 7.509-4.779 12.971-12.971 12.971h-114.688c-7.509 0-12.971-4.779-12.971-12.971v-68.949c0-7.509 4.779-12.971 12.971-12.971h114.688c7.509 0 12.971 4.779 12.971 12.971v68.949zM580.949 529.067c0 4.779-4.779 10.24-12.971 12.971h-114.688c-7.509 0-12.971-4.779-12.971-12.971v-68.267c0-7.509 4.779-12.971 12.971-12.971h114.688c7.509 0 12.971 4.779 12.971 12.971v68.267zM766.635 806.912c0 4.779-4.779 10.24-12.971 12.971h-114.005c-7.509 0-12.971-4.779-12.971-12.971v-68.949c0-7.509 4.779-12.971 12.971-12.971h114.688c7.509 0 12.971 4.779 12.971 12.971v68.949zM766.635 666.965c0 7.509-4.779 12.971-12.971 12.971h-114.005c-7.509 0-12.971-4.779-12.971-12.971v-68.949c0-7.509 4.779-12.971 12.971-12.971h114.688c7.509 0 12.971 4.779 12.971 12.971v68.949zM766.635 529.067c0 4.779-4.779 10.24-12.971 12.971h-114.005c-7.509 0-12.971-4.779-12.971-12.971v-68.267c0-7.509 4.779-12.971 12.971-12.971h114.688c7.509 0 12.971 4.779 12.971 12.971v68.267z"></path>
</svg>
