<svg xmlns="http://www.w3.org/2000/svg" width="890.716" height="1024" viewBox="0 0 890.716 1024">
  <defs>
    <style>
      .cls-1 {
        fill: #5465fc;
      }

      .cls-2 {
        fill: #231815;
        opacity: 0.2;
      }

      .cls-3 {
        fill: #fff;
      }
    </style>
  </defs>
  <g id="组_20051" data-name="组 20051" transform="translate(-67.301)">
    <path id="路径_63016" data-name="路径 63016" class="cls-1" d="M958.017,253.868V981.333A42.491,42.491,0,0,1,915.607,1024H109.717A42.326,42.326,0,0,1,67.3,981.333V42.667A42.573,42.573,0,0,1,109.717,0H705.74L957.974,253.868Z"/>
    <path id="路径_63017" data-name="路径 63017" class="cls-2" d="M705.517,0V211.2a42.667,42.667,0,0,0,42.413,42.667H957.507Z"/>
    <path id="路径_63018" data-name="路径 63018" class="cls-3" d="M216.441,630.051V438.5L512.262,607.542l295.823-164.08V630.041L512.262,816,216.441,630.053Zm7.452-226.215,44.746-24.857a18.787,18.787,0,0,0-2.485,9.942c0,24.857,34.8,47.231,79.547,47.231s79.547-19.886,79.547-47.231a71.776,71.776,0,0,0-4.971-24.559c-9.942,17.4-39.775,29.833-74.579,29.833-32.319,0-62.147-9.942-74.577-27.343l-2.485-2.485c0-2.485-2.485-9.942-2.485-14.915,0-24.857,34.8-47.231,79.547-47.231,19.793,0,43.748,5.983,43.748,5.983L432.7,289.489c-2.485,4.971-4.971,9.942-4.971,14.915,0,24.857,34.8,47.231,79.547,47.231s79.55-19.886,79.55-47.231a46.215,46.215,0,0,0-4.971-19.752c-9.942,17.4-39.775,27.429-74.579,27.429s-64.632-12.43-74.577-29.833c-2.485-4.971-4.971-9.942-4.971-14.915,0-24.857,34.8-47.231,79.547-47.231s79.564,19.886,79.564,47.229a45.737,45.737,0,0,1-4.971,17.319l49.4,23.557c9.942-2.485,30.146-3.5,37.6-3.5,44.746,0,79.55,15.052,79.55,42.4.077,9.9-4.973,17.091-7.452,22.066l59.666,39.645L512.267,567.909,223.9,403.843ZM424.847,467.5c0,24.857,37.705,47.231,82.449,47.231s82.449-19.886,82.449-47.231a169.838,169.838,0,0,0-3.728-30.768c-.267-1.014-.755-.046-1.243-1.022-9.942,17.4-42.676,29.833-77.478,29.833s-65.048-12.43-77.478-29.833c-2.485,4.971-4.971,29.311-4.971,31.8Zm161.992-78.584c0,24.857,34.8,47.231,79.547,47.231s79.547-19.886,79.547-47.231a46.213,46.213,0,0,0-4.971-19.752c-9.942,17.4-39.775,22.622-74.579,22.622s-62.147-12.43-74.577-29.833C589.326,366.926,586.839,383.945,586.839,388.918Z"/>
  </g>
</svg>
