<?xml version="1.0" standalone="no"?><!DOCTYPE svg PUBLIC "-//W3C//DTD SVG 1.1//EN" "http://www.w3.org/Graphics/SVG/1.1/DTD/svg11.dtd"><svg t="1720519876017" class="icon" viewBox="0 0 1024 1024" version="1.1" xmlns="http://www.w3.org/2000/svg" p-id="41036" xmlns:xlink="http://www.w3.org/1999/xlink" width="32" height="32"><path d="M936.13198541 430.46133284A434.06656611 434.06656611 0 0 1 943.85248919 512c0 238.50513171-193.34781041 431.85294213-431.85294214 431.85294213S80.14660493 750.50513171 80.14660493 512 273.49441537 80.14705787 511.99954705 80.14705787a430.07872136 430.07872136 0 0 1 276.4855413 100.12495409l-141.11021393 115.68524931A255.17374999 255.17374999 0 1 0 752.76360181 599.57856874H524.07934939V430.46133284h412.05263602z" fill="#FBBB00" p-id="41037"></path><path d="M511.99954705 80.14705787a430.07872136 430.07872136 0 0 1 276.4855413 100.12495409l-141.11021393 115.68524931A255.27340776 255.27340776 0 0 0 271.61147552 429.07215494l-142.42540237-117.07593617C201.33118419 174.19285051 345.67123556 80.14705787 511.99954705 80.14705787z" fill="#F14336" p-id="41038"></path><path d="M783.34211254 847.94383958l-141.46807785-115.09182877A255.99064624 255.99064624 0 0 0 752.76360181 599.57856874H524.07934939V430.46133284h412.05263602A432.24553566 432.24553566 0 0 1 783.34211254 847.94383958z" fill="#518EF8" p-id="41039"></path><path d="M512.73943507 767.94081694a253.91593988 253.91593988 0 0 0 129.13157917-35.08880613l141.47109831 115.09182877A430.01983242 430.01983242 0 0 1 511.99954705 943.85294213c-164.2128363 0-307.01271206-91.65550179-380.04568922-226.60350687l141.50280747-115.65051969A255.27793801 255.27793801 0 0 0 512.73943507 767.94081694z" fill="#28B446" p-id="41040"></path></svg>