<?xml version="1.0" encoding="UTF-8"?>
<svg width="500px" height="559px" viewBox="0 0 500 559" version="1.1" xmlns="http://www.w3.org/2000/svg" xmlns:xlink="http://www.w3.org/1999/xlink">
    <!-- Generator: Sketch 49 (51002) - http://www.bohemiancoding.com/sketch -->
    <title>ic-line</title>
    <desc>Created with Sketch.</desc>
    <defs></defs>
    <g id="Page-1" stroke="none" stroke-width="1" fill="none" fill-rule="evenodd">
        <g id="ic-line" transform="translate(-6.000000, -14.000000)" fill="#F7A943" fill-rule="nonzero">
            <path d="M481.882353,14.6076336 L30.1176471,14.6076336 C27.1058824,14.6076336 21.0823529,14.6076336 18.0705882,17.5291603 C9.03529412,20.450687 6.02352941,29.2152672 6.02352941,37.9798473 L6.02352941,549.247023 C6.02352941,560.93313 15.0588235,572.619237 30.1176471,572.619237 L481.882353,572.619237 C484.894118,572.619237 490.917647,572.619237 493.929412,569.69771 C496.941176,569.69771 496.941176,566.776183 499.952941,566.776183 C502.964706,563.854656 505.976471,558.011603 505.976471,552.16855 L505.976471,37.9798473 C502.964706,23.3722137 493.929412,14.6076336 481.882353,14.6076336 Z M337.317647,426.542901 L123.482353,426.542901 C114.447059,426.542901 105.411765,417.778321 105.411765,409.01374 C105.411765,400.24916 114.447059,391.48458 123.482353,391.48458 L334.305882,391.48458 C343.341176,391.48458 352.376471,400.24916 352.376471,409.01374 C355.388235,417.778321 346.352941,423.621374 337.317647,426.542901 Z M105.411765,297.995725 C105.411765,289.231145 114.447059,280.466565 123.482353,280.466565 L262.023529,280.466565 C271.058824,280.466565 280.094118,289.231145 280.094118,297.995725 C280.094118,306.760305 271.058824,315.524885 262.023529,315.524885 L123.482353,315.524885 C114.447059,315.524885 105.411765,309.681832 105.411765,297.995725 Z M385.505882,207.428397 L123.482353,207.428397 C114.447059,207.428397 105.411765,198.663817 105.411765,189.899237 C105.411765,181.134656 114.447059,172.370076 123.482353,172.370076 L385.505882,172.370076 C394.541176,172.370076 403.576471,181.134656 403.576471,189.899237 C403.576471,198.663817 397.552941,207.428397 385.505882,207.428397 Z" id="Shape"></path>
        </g>
    </g>
</svg>